<?xml version="1.0" encoding="UTF-8"?>
<svg version="1.1" xmlns="http://www.w3.org/2000/svg" width="1024" height="1536">
<path d="M0 0 C0.86753906 0.0825 1.73507812 0.165 2.62890625 0.25 C7.44308717 0.70917672 12.21899037 1.27245506 17 2 C17 2.66 17 3.32 17 4 C17.72340576 4.03810791 18.44681152 4.07621582 19.19213867 4.11547852 C26.83656318 4.62101177 33.91867545 5.97491258 41.3125 7.9375 C42.8603418 8.33485352 42.8603418 8.33485352 44.43945312 8.74023438 C47.29733838 9.47804844 50.14954721 10.23403929 53 11 C54.86785156 11.50080078 54.86785156 11.50080078 56.7734375 12.01171875 C60.37750186 13.11562708 63.82221301 14.4523487 67.3125 15.875 C71.54929019 17.59952264 75.78986537 19.30342947 80.0625 20.9375 C86.57324883 23.52637644 92.77139465 26.80492291 99 30 C99 30.66 99 31.32 99 32 C100.65 32.33 102.3 32.66 104 33 C104 33.66 104 34.32 104 35 C104.721875 35.103125 105.44375 35.20625 106.1875 35.3125 C109.27746686 36.06782523 111.39558686 37.19137976 114 39 C114.33 39.66 114.66 40.32 115 41 C115.99 41.33 116.98 41.66 118 42 C118.598125 42.680625 119.19625 43.36125 119.8125 44.0625 C121.89905564 46.2560236 121.89905564 46.2560236 125 46.5 C128.64166262 45.89305623 129.61108096 44.71842511 132 42 C133.485 41.505 133.485 41.505 135 41 C136.02196992 40.02246356 137.01979625 39.0194119 138 38 C146.52997747 31.15640888 156.74297835 26.44556606 166.796875 22.3203125 C169.59797634 21.16571219 172.32526155 19.9211096 175.0625 18.625 C178.16046175 17.22629339 180.54540197 16.55424542 184 17 C184.33 16.34 184.66 15.68 185 15 C187.01171875 14.2890625 187.01171875 14.2890625 189.6875 13.625 C194.10949201 12.49232934 198.49471061 11.2851465 202.875 10 C211.8365724 7.43252426 220.76134825 5.26824153 230 4 C231.46396799 3.77489072 232.92748687 3.54684775 234.390625 3.31640625 C235.1846875 3.19330078 235.97875 3.07019531 236.796875 2.94335938 C238.38593117 2.69665081 239.9745112 2.44684745 241.5625 2.19335938 C244.37129335 1.76175339 247.18284667 1.37355224 250 1 C250.64302063 0.91421692 251.28604126 0.82843384 251.94854736 0.74005127 C264.57445285 -0.89583925 277.06367194 -1.31317872 289.78759766 -1.26074219 C292.86511027 -1.25003441 295.94203629 -1.26070236 299.01953125 -1.2734375 C314.13394125 -1.28369049 329.0778661 -0.49215597 344 2 C344.99 2 345.98 2 347 2 C348.70975321 2.10378694 350.41818921 2.23069238 352.125 2.375 C353.01445313 2.44460938 353.90390625 2.51421875 354.8203125 2.5859375 C355.53960938 2.72257813 356.25890625 2.85921875 357 3 C357.33 3.66 357.66 4.32 358 5 C359.093125 4.79375 360.18625 4.5875 361.3125 4.375 C365 4 365 4 368 6 C370.55660749 6.66998236 373.08446646 7.26261873 375.66796875 7.8046875 C377.2168453 8.14431047 378.76567184 8.48416162 380.31445312 8.82421875 C382.74472448 9.35003976 385.17564305 9.87247623 387.60766602 10.39013672 C389.96321799 10.89405719 392.31558706 11.41119802 394.66796875 11.9296875 C395.74028999 12.15179398 395.74028999 12.15179398 396.83427429 12.37838745 C404.60637042 14.105268 410.62099514 17.02332793 416 23 C416.680625 23.556875 417.36125 24.11375 418.0625 24.6875 C423.69339711 31.40824816 424.56575773 39.53227579 425 48 C428.63 48.33 432.26 48.66 436 49 C436 49.66 436 50.32 436 51 C436.70125 51.226875 437.4025 51.45375 438.125 51.6875 C444.92181918 54.79039571 449.39163226 59.8185307 452.07091367 66.78418458 C454.90206466 76.58355278 454.14968518 87.62244096 454.15390015 97.75125122 C454.1582824 99.06148313 454.16266465 100.37171505 454.1671797 101.72165096 C454.17898754 105.31535552 454.18475608 108.90904679 454.18936086 112.50276685 C454.19537672 116.39509256 454.20696984 120.28740284 454.21765137 124.17971802 C454.24202194 133.55035167 454.2567705 142.92099035 454.26971143 152.29164582 C454.27343166 154.94115072 454.27740409 157.59065512 454.2814641 160.24015951 C454.30668566 176.7256178 454.32871801 193.21107708 454.34119225 209.69655037 C454.3441214 213.50294116 454.34708317 217.30933193 454.35009766 221.11572266 C454.35084371 222.06165464 454.35158976 223.00758662 454.35235842 223.9821832 C454.36502763 239.32477667 454.39828348 254.66725469 454.43989949 270.00979413 C454.48234938 285.7897892 454.50588989 301.5697251 454.51111281 317.3497771 C454.51452109 326.19874986 454.52620954 335.04754134 454.55921555 343.89645767 C454.58725777 351.42619573 454.5981965 358.9557152 454.58702008 366.48550142 C454.58184621 370.32311513 454.58463739 374.16027126 454.60948563 377.99781799 C454.63625182 382.1664321 454.62387667 386.33404634 454.60800171 390.50271606 C454.6218838 391.70331575 454.63576588 392.90391543 454.65006864 394.14089692 C454.55077957 404.75306547 451.62261933 414.37738067 444 422 C440.5 425 440.5 425 438 425 C438 425.66 438 426.32 438 427 C430.259855 430.81853525 423.55092695 431.60024248 414.9921875 431.609375 C413.7855545 431.62591125 412.57892151 431.64244751 411.33572388 431.65948486 C407.51542955 431.70772426 403.69553263 431.72928337 399.875 431.75 C397.2708136 431.77817963 394.66664551 431.80810982 392.0625 431.83984375 C385.70840491 431.913477 379.35442047 431.96526013 373 432 C373 431.34 373 430.68 373 430 C371.95585938 430.18304687 370.91171875 430.36609375 369.8359375 430.5546875 C363.73824099 431.31388157 357.72260004 430.6398193 351.625 430.125 C350.45710937 430.03347656 349.28921875 429.94195313 348.0859375 429.84765625 C341.38192647 429.31404102 334.68848408 428.70153577 328 428 C327.67 428.66 327.34 429.32 327 430 C327 429.34 327 428.68 327 428 C325.82195801 428.00785522 325.82195801 428.00785522 324.62011719 428.01586914 C320.99675322 428.03689807 317.37340217 428.04974154 313.75 428.0625 C312.51507812 428.07087891 311.28015625 428.07925781 310.0078125 428.08789062 C308.17089844 428.09272461 308.17089844 428.09272461 306.296875 428.09765625 C304.63156738 428.10551147 304.63156738 428.10551147 302.93261719 428.11352539 C299.7617004 428.0219885 296.67131955 427.81230843 293.51538086 427.52734375 C286.17081002 426.88509077 278.82450291 426.66865998 271.45703125 426.46484375 C269.96139603 426.42158156 268.46576522 426.37816664 266.97013855 426.33460999 C263.83781696 426.24420341 260.70543747 426.15629183 257.57299805 426.07006836 C254.43681383 425.98351808 251.30076886 425.8934198 248.16479492 425.79956055 C239.73466769 425.5477252 231.30488891 425.3228604 222.87268257 425.15266991 C218.23033015 425.05705203 213.59068477 424.92473514 208.9499979 424.76842785 C205.92068224 424.67389893 202.89123931 424.60984036 199.86099815 424.55337715 C198.44007259 424.5208602 197.01936454 424.47611835 195.5992527 424.41807365 C186.19877169 423.96500652 186.19877169 423.96500652 178.26953125 428.39916992 C177.16787812 429.58861682 176.07655463 430.78778976 175 432 C173.14000092 433.30272309 171.24841223 434.56301732 169.3125 435.75 C168.42175781 436.30171875 167.53101563 436.8534375 166.61328125 437.421875 C165.75089844 437.94265625 164.88851563 438.4634375 164 439 C163.10667969 439.54914063 162.21335937 440.09828125 161.29296875 440.6640625 C159.09302638 441.94580064 157.47921215 442.53514772 155 443 C154.26136719 443.15210938 153.52273438 443.30421875 152.76171875 443.4609375 C148.7395413 444.24603013 144.6921421 444.86116623 140.64453125 445.5 C138.03501746 445.86863151 138.03501746 445.86863151 136 447 C132.58198767 447.11706651 129.16528538 446.90545786 125.75 446.75 C124.75814697 446.70552734 123.76629395 446.66105469 122.74438477 446.61523438 C114.88558813 446.19143506 107.6250683 444.97329475 100 443 C99.18789063 442.85433594 98.37578125 442.70867187 97.5390625 442.55859375 C86.33026961 440.09265931 76.96174262 434.10756208 69 426 C69 425.34 69 424.68 69 424 C67.7730542 424.06783691 66.5461084 424.13567383 65.28198242 424.20556641 C54.48269004 424.78494743 43.70212314 425.15461094 32.88955688 425.33102417 C10.40956906 425.71463081 -12.05599433 426.51478734 -34.52316666 427.34009552 C-37.14279495 427.43586564 -39.76247324 427.53013094 -42.38217163 427.6239624 C-61.47340559 428.30995185 -80.54710925 429.11333706 -99.61369324 430.31333923 C-113.40154389 431.17761306 -127.18752417 431.72096008 -141 432 C-141.70541931 432.0143811 -142.41083862 432.02876221 -143.13763428 432.0435791 C-147.61509454 432.13131671 -152.0921011 432.19435043 -156.57028198 432.23016357 C-158.00045008 432.24317875 -159.4305844 432.26096241 -160.86062622 432.28399658 C-170.83111396 432.43423173 -179.09679762 431.62484456 -188 427 C-188 426.34 -188 425.68 -188 425 C-189.1446875 424.62875 -189.1446875 424.62875 -190.3125 424.25 C-193.26080945 422.87869328 -194.35834532 421.7648921 -196 419 C-196 418.34 -196 417.68 -196 417 C-196.66 417 -197.32 417 -198 417 C-198.82165509 415.29605107 -199.63190645 413.58660102 -200.4375 411.875 C-200.88996094 410.92367188 -201.34242188 409.97234375 -201.80859375 408.9921875 C-203.78812783 404.02063633 -204.12505912 399.20801176 -204.12698364 393.8944397 C-204.12980567 392.68935005 -204.1326277 391.48426041 -204.13553524 390.24265289 C-204.13350881 388.93103935 -204.13148237 387.61942581 -204.12939453 386.26806641 C-204.13073306 384.85865993 -204.13249469 383.4492538 -204.13464451 382.03984833 C-204.13916464 378.19957583 -204.13734751 374.35932975 -204.13423705 370.5190568 C-204.1323219 367.26900547 -204.13387414 364.0189596 -204.13546103 360.76890838 C-204.13968106 352.09053374 -204.13669554 343.41217542 -204.13031453 334.73380268 C-204.12578041 328.44403506 -204.12385111 322.1542711 -204.12332153 315.86450195 C-204.11821355 272.97528568 -204.07885086 230.08918815 -203.30958652 187.20541573 C-203.26951417 184.9661557 -203.23106511 182.72687286 -203.19291687 180.48757935 C-203.14847612 177.88044415 -203.09627555 175.27389132 -203.03913879 172.66696167 C-203.01905258 171.56321198 -202.99896637 170.45946228 -202.97827148 169.32226562 C-202.95828598 168.38048462 -202.93830048 167.43870361 -202.91770935 166.46838379 C-202.90358604 164.08243513 -202.90358604 164.08243513 -203.49128723 162.17349243 C-204.28489059 158.78279535 -204.15606868 155.36620242 -204.16113281 151.90185547 C-204.16609772 151.08828079 -204.17106262 150.27470612 -204.17617798 149.43647766 C-204.19077299 146.74670562 -204.1975986 144.05699263 -204.203125 141.3671875 C-204.20888042 139.49113972 -204.2146381 137.61509195 -204.22039795 135.73904419 C-204.2309016 131.80324022 -204.23674785 127.86745663 -204.24023438 123.93164062 C-204.24570544 118.90828653 -204.26970643 113.88520535 -204.29820633 108.86193657 C-204.31691001 104.98411292 -204.3220425 101.10635385 -204.32357025 97.22848892 C-204.32658193 95.37787516 -204.33455981 93.52726213 -204.34775543 91.67669296 C-204.43515326 78.47307802 -204.38370629 67.23248374 -195 57 C-190.6 53 -190.6 53 -188 53 C-188 52.34 -188 51.68 -188 51 C-186.39658445 50.66307215 -184.79223445 50.33058907 -183.1875 50 C-182.29417969 49.814375 -181.40085938 49.62875 -180.48046875 49.4375 C-178 49 -178 49 -175 49 C-175.061875 47.865625 -175.12375 46.73125 -175.1875 45.5625 C-175.1875 38.50012769 -172.38954597 32.10118274 -169 26 C-168.54625 25.01 -168.0925 24.02 -167.625 23 C-161.21625764 15.67572302 -150.80988835 13.38407688 -141.58203125 11.54296875 C-139.02862335 11.11997028 -139.02862335 11.11997028 -137 10 C-135.948125 9.896875 -134.89625 9.79375 -133.8125 9.6875 C-129.7627883 9.22862979 -125.98509379 8.22249167 -122.0625 7.125 C-109.73855359 3.70908984 -97.17335471 1.90680535 -84.48828125 0.4296875 C-82.3866431 0.1708071 -80.28884353 -0.13228505 -78.20703125 -0.51953125 C-73.60882181 -1.20842256 -69.01751072 -1.3749472 -64.375 -1.5625 C-63.35809082 -1.6042334 -62.34118164 -1.6459668 -61.29345703 -1.68896484 C-40.85316317 -2.46840017 -20.35451652 -2.16753587 0 0 Z " fill="#FEF0CF" transform="translate(387,544)"/>
<path d="M0 0 C3.07751261 0.01070778 6.15443863 0.00003983 9.23193359 -0.01269531 C24.3463436 -0.0229483 39.29026845 0.76858622 54.21240234 3.26074219 C55.20240234 3.26074219 56.19240234 3.26074219 57.21240234 3.26074219 C58.92215556 3.36452912 60.63059155 3.49143457 62.33740234 3.63574219 C63.22685547 3.70535156 64.11630859 3.77496094 65.03271484 3.84667969 C65.75201172 3.98332031 66.47130859 4.11996094 67.21240234 4.26074219 C67.54240234 4.92074219 67.87240234 5.58074219 68.21240234 6.26074219 C69.30552734 6.05449219 70.39865234 5.84824219 71.52490234 5.63574219 C75.21240234 5.26074219 75.21240234 5.26074219 78.21240234 7.26074219 C80.76900984 7.93072454 83.2968688 8.52336091 85.88037109 9.06542969 C87.42924765 9.40505266 88.97807418 9.74490381 90.52685547 10.08496094 C92.95712683 10.61078195 95.38804539 11.13321841 97.82006836 11.65087891 C100.17562034 12.15479938 102.5279894 12.6719402 104.88037109 13.19042969 C105.95269234 13.41253616 105.95269234 13.41253616 107.04667664 13.63912964 C114.81877276 15.36601019 120.83339748 18.28407012 126.21240234 24.26074219 C126.89302734 24.81761719 127.57365234 25.37449219 128.27490234 25.94824219 C133.90579945 32.66899035 134.77816008 40.79301798 135.21240234 49.26074219 C138.84240234 49.59074219 142.47240234 49.92074219 146.21240234 50.26074219 C146.21240234 50.92074219 146.21240234 51.58074219 146.21240234 52.26074219 C146.91365234 52.48761719 147.61490234 52.71449219 148.33740234 52.94824219 C154.15626306 55.6046786 158.2746942 59.60293391 161.21240234 65.26074219 C161.79688964 68.25685354 162.07696053 71.21330148 162.21240234 74.26074219 C161.55240234 74.26074219 160.89240234 74.26074219 160.21240234 74.26074219 C160.00486328 73.62007812 159.79732422 72.97941406 159.58349609 72.31933594 C156.96396151 64.96491038 153.83560339 59.6987003 146.78271484 55.97949219 C141.76155942 53.84283031 137.76857994 53.05448184 132.21240234 52.26074219 C132.21240234 159.51074219 132.21240234 266.76074219 132.21240234 377.26074219 C131.88240234 377.26074219 131.55240234 377.26074219 131.21240234 377.26074219 C130.88240234 368.35074219 130.55240234 359.44074219 130.21240234 350.26074219 C128.89240234 352.24074219 127.57240234 354.22074219 126.21240234 356.26074219 C121.07496067 359.98790575 116.56110365 361.32402244 110.21240234 361.26074219 C106.81883396 360.5590765 103.64778461 359.39332031 100.39990234 358.19824219 C78.01679355 350.59134821 54.92328568 347.16780917 31.51098633 344.62060547 C29.58684892 344.41068921 27.66369592 344.19030198 25.74389648 343.94384766 C-29.71146317 337.22890212 -100.83706956 346.35194765 -146.42041016 380.96386719 C-147.1496167 381.55409668 -147.1496167 381.55409668 -147.89355469 382.15625 C-150.68058852 383.78148087 -153.69050349 384.40810427 -156.78759766 385.26074219 C-156.78895419 384.57435356 -156.79031071 383.88796494 -156.79170835 383.18077666 C-156.87236429 342.49679183 -156.96332131 301.81284138 -157.06764927 261.12891004 C-157.08016809 256.24357368 -157.09260087 251.3582371 -157.10498047 246.47290039 C-157.10744646 245.50032077 -157.10991246 244.52774115 -157.11245318 243.52568942 C-157.15217323 227.7793204 -157.18492391 212.03294422 -157.21509747 196.28655434 C-157.24621517 180.12844203 -157.28482596 163.97036013 -157.33038771 147.81228203 C-157.35826404 137.84248232 -157.38030081 127.87270486 -157.39486016 117.90287667 C-157.405405 111.06552681 -157.42323039 104.22822004 -157.44676469 97.39090265 C-157.4601267 93.44658151 -157.47029418 89.50232075 -157.47181129 85.55797577 C-157.47327249 81.94356555 -157.48392029 78.32930061 -157.50173207 74.71493506 C-157.50884439 72.7949396 -157.50625227 70.87491568 -157.50326192 68.95490938 C-157.53650406 63.81860831 -157.68199135 59.08950102 -158.93000221 54.09268093 C-159.21300871 52.82814115 -159.49601521 51.56360136 -159.78759766 50.26074219 C-157.78759766 47.49121094 -157.78759766 47.49121094 -154.78759766 45.26074219 C-153.85947266 44.49375 -152.93134766 43.72675781 -151.97509766 42.93652344 C-128.13470509 25.26074219 -128.13470509 25.26074219 -117.78759766 25.26074219 C-118.28259766 23.28074219 -118.28259766 23.28074219 -118.78759766 21.26074219 C-110.35902623 17.83217076 -110.35902623 17.83217076 -105.78759766 18.26074219 C-105.45759766 17.60074219 -105.12759766 16.94074219 -104.78759766 16.26074219 C-102.77587891 15.54980469 -102.77587891 15.54980469 -100.10009766 14.88574219 C-95.67810564 13.75307153 -91.29288705 12.54588868 -86.91259766 11.26074219 C-77.95102526 8.69326645 -69.02624941 6.52898372 -59.78759766 5.26074219 C-58.32362966 5.03563291 -56.86011079 4.80758994 -55.39697266 4.57714844 C-54.60291016 4.45404297 -53.80884766 4.3309375 -52.99072266 4.20410156 C-51.40166649 3.957393 -49.81308645 3.70758964 -48.22509766 3.45410156 C-45.4163043 3.02249558 -42.60475099 2.63429442 -39.78759766 2.26074219 C-39.14457703 2.17495911 -38.5015564 2.08917603 -37.83905029 2.00079346 C-25.21314481 0.36490294 -12.72392571 -0.05243653 0 0 Z " fill="#FEF0CF" transform="translate(676.78759765625,542.7392578125)"/>
<path d="M0 0 C0.00021737 0.68389294 0.00043474 1.36778587 0.00065869 2.07240283 C0.01417749 42.61451651 0.05367307 83.15653253 0.12685562 123.69858455 C0.13562227 128.56761073 0.14417209 133.43663727 0.15258789 138.30566406 C0.15426695 139.27499076 0.15594602 140.24431746 0.15767596 141.24301769 C0.18433845 156.93376041 0.1934405 172.62446659 0.19604143 188.31522964 C0.19910196 204.4180057 0.22106029 220.52067622 0.26052457 236.62340462 C0.28427747 246.55794971 0.29332821 256.49228404 0.28351311 266.42685361 C0.27819325 273.24137267 0.29124635 280.05570304 0.3186629 286.87016837 C0.33393607 290.80056108 0.34118906 294.73053145 0.32659721 298.66093636 C0.31340027 302.263919 0.32342786 305.86608499 0.35143773 309.46897604 C0.36039379 311.38028664 0.34493231 313.29166434 0.32842034 315.20292461 C0.4203164 323.08062383 2.05767572 328.23990987 6 335 C6.495 336.485 6.495 336.485 7 338 C8.71519747 339.02651373 8.71519747 339.02651373 11 340 C12.71574977 341.01885378 14.42124001 342.05250256 16.12109375 343.09765625 C21.37917733 345.62284816 27.25262923 345.17289335 32.94921875 345.15625 C34.4149659 345.15365173 34.4149659 345.15365173 35.9103241 345.15100098 C42.40675196 345.10379051 48.85449008 344.82850454 55.33203125 344.34375 C84.91587905 342.13645807 114.40278311 341.6593494 144.05913925 341.62985229 C147.19657123 341.62508125 150.33393281 341.61446349 153.47134399 341.60229492 C180.33665105 341.51009732 207.01038114 342.21669265 233.76490784 344.78572845 C235.28687306 344.93163467 236.80927034 345.07308696 238.33201599 345.21060944 C240.62442231 345.42079061 242.9141224 345.65023332 245.20410156 345.88525391 C245.88224285 345.94560003 246.56038414 346.00594616 247.25907516 346.06812096 C253.47472832 346.74949288 258.02909479 349.08382956 263.36328125 352.24609375 C272.95665295 357.3321258 283.64237444 357.51941217 294.25 357.4375 C294.93220612 357.43445862 295.61441223 357.43141724 296.31729126 357.42828369 C312.97508897 357.32610556 312.97508897 357.32610556 328.4050293 351.59399414 C337.82904192 346.22723501 346.84492665 345.52729492 357.4375 344.6875 C359.1323559 344.53271345 360.82702083 344.37582103 362.52148438 344.21679688 C381.71234285 342.46788376 400.89268859 341.84309102 420.15625 341.8671875 C422.11942558 341.86651013 424.08260107 341.86553656 426.04577637 341.86428833 C430.12980968 341.86282888 434.21382086 341.86490677 438.29785156 341.86962891 C443.43972414 341.87529555 448.58154463 341.87195867 453.72341537 341.86619282 C482.46577236 341.83875521 511.09797525 342.25520355 539.78417969 344.20043945 C547.58831172 344.72325315 555.36929547 345.09485343 563.19140625 345.13671875 C563.89597961 345.1436525 564.60055298 345.15058624 565.32647705 345.1577301 C573.45554891 345.14685842 579.60776233 343.05432746 586 338 C592.99687768 330.40338994 593.43716048 323.81322589 593.39872742 313.86428833 C593.40416889 312.51029457 593.41092129 311.15630555 593.41886932 309.80232418 C593.43689051 306.08751015 593.4363381 302.37289607 593.43273985 298.65804863 C593.43211603 294.64990383 593.44873582 290.64182613 593.46325684 286.63371277 C593.4860505 279.69132109 593.49792927 272.74897962 593.50238609 265.80655289 C593.50884569 255.76899404 593.53177972 245.73152596 593.55872939 235.69400369 C593.60200667 219.40864543 593.63196805 203.123291 593.65356445 186.83789062 C593.67457132 171.01853558 593.70184387 155.1992118 593.73754883 139.37988281 C593.73974765 138.4047116 593.74194648 137.42954039 593.74421193 136.42481853 C593.75528151 131.5326508 593.76647434 126.64048336 593.77772844 121.74831605 C593.87092687 81.16557148 593.94251867 40.58280987 594 0 C603.8070571 -0.10902309 610.17681938 2.55953889 617.2109375 9.4140625 C622.92796462 17.67753838 623.57701592 25.8053524 623.50120544 35.62536621 C623.50510476 36.98393506 623.51075025 38.34249982 623.51797634 39.70105505 C623.53265864 43.41042041 623.52259327 47.11935813 623.50823963 50.82870936 C623.49709229 54.8383263 623.50908483 58.84788507 623.51808167 62.85749817 C623.53199061 70.70289322 623.52447532 78.54812695 623.50940608 86.39351428 C623.49251622 95.53597408 623.49576001 104.67839403 623.49950016 113.82086462 C623.50537445 130.1369566 623.49122412 146.45297134 623.46655273 162.76904297 C623.44263325 178.58971044 623.43554904 194.41027472 623.44604492 210.23095703 C623.45746266 227.47197949 623.45937361 244.71295426 623.44494683 261.95397615 C623.44342104 263.79356161 623.44190068 265.63314708 623.44038582 267.47273254 C623.439628 268.37776782 623.43887019 269.2828031 623.43808941 270.21526369 C623.4333532 276.5831475 623.43519332 282.95100996 623.43945122 289.31889343 C623.44438563 297.08262869 623.43835903 304.84626652 623.41855692 312.60997951 C623.40870748 316.56870552 623.40355432 320.52728339 623.41144943 324.48601723 C623.41853732 328.11431644 623.41162964 331.74231755 623.3938458 335.37057763 C623.38792404 337.29533121 623.39659475 339.22011289 623.40589231 341.14485312 C623.3282474 351.81448532 621.76360792 361.18608792 614 369 C606.83570509 374.68594834 600.85126641 377.31292792 591.64453125 377.2590332 C590.81218964 377.26125822 589.97984802 377.26348324 589.12228394 377.26577568 C586.3522017 377.2684625 583.58253286 377.25443732 580.8125 377.23828125 C579.36201767 377.23407889 579.36201767 377.23407889 577.88223267 377.22979164 C555.0075994 377.1572134 532.17007408 376.27877492 509.31825256 375.32486343 C503.64049009 375.08982498 497.96233276 374.86477662 492.28417969 374.6394043 C489.96600315 374.54732419 487.64782688 374.45523739 485.32965088 374.36314392 C484.17938667 374.31746717 483.02912247 374.27179043 481.84400177 374.22472954 C478.36697409 374.08624017 474.88999487 373.94658614 471.4130249 373.80665588 C456.26104845 373.19832014 441.10804888 372.63126495 425.953125 372.1015625 C424.97394608 372.06725695 423.99476715 372.03295139 422.98591614 371.99760628 C414.61800964 371.70472999 406.25001646 371.41443103 397.88183594 371.12948608 C393.68041232 370.98641737 389.4790785 370.84093525 385.27779388 370.69384384 C383.05157248 370.616693 380.82526566 370.54254429 378.59893799 370.46853638 C370.37914182 370.18536587 362.19468499 369.70783035 354 369 C353.70432129 369.62398682 353.40864258 370.24797363 353.10400391 370.89086914 C348.26062529 380.14384302 336.21752766 385.30926287 326.82617188 388.32543945 C306.43260383 394.5170588 279.53670559 395.11336811 260.04296875 385.19140625 C259.36878906 384.79824219 258.69460938 384.40507813 258 384 C256.63294922 383.20916016 256.63294922 383.20916016 255.23828125 382.40234375 C247.46566899 377.6806634 247.46566899 377.6806634 244.88427734 373.9074707 C241.02896907 370.07499128 236.56904152 370.34950226 231.46094131 370.34325695 C229.03167365 370.37521732 226.60437386 370.43885259 224.17578125 370.50390625 C222.41435947 370.52966211 220.65290739 370.55341069 218.89143372 370.57533264 C212.92601295 370.66466132 206.96353717 370.82822722 201 371 C199.38641224 371.0447559 199.38641224 371.0447559 197.74022675 371.09041595 C181.12371613 371.55423479 164.51332683 372.156616 147.902771 372.79595947 C142.88790978 372.98701044 137.87277365 373.17019915 132.85761547 373.3532629 C127.98035773 373.53177096 123.10322513 373.71351463 118.22612953 373.89639473 C115.92143404 373.98272966 113.61671511 374.06844125 111.31197166 374.15348625 C108.11174651 374.27237314 104.91169887 374.3952441 101.71166992 374.51928711 C100.78547852 374.55309479 99.85928711 374.58690247 98.9050293 374.62173462 C93.3903268 374.8405513 87.9184683 375.24986251 82.42466831 375.77544308 C79.73276537 376.02474952 77.04734493 376.18867101 74.34619141 376.29711914 C73.37857376 376.33705994 72.41095612 376.37700073 71.41401672 376.41815186 C70.40340683 376.45676331 69.39279694 376.49537476 68.3515625 376.53515625 C67.26808029 376.57835999 66.18459808 376.62156372 65.06828308 376.66607666 C61.58734356 376.80272508 58.10623852 376.93370283 54.625 377.0625 C53.44102631 377.10635834 52.25705261 377.15021667 51.03720093 377.19540405 C23.27064522 378.20939692 23.27064522 378.20939692 9.8125 378.3125 C8.71953613 378.32998291 7.62657227 378.34746582 6.50048828 378.36547852 C-3.27451964 378.35842131 -11.36718167 376.43429691 -18.95703125 370.09375 C-25.31637257 363.57633709 -29.24434038 355.26668444 -29.25726891 346.13312054 C-29.2637178 344.977204 -29.27016669 343.82128745 -29.276811 342.63034314 C-29.2737138 341.36994633 -29.2706166 340.10954952 -29.26742554 338.81095886 C-29.27116378 337.45100808 -29.275766 336.09105945 -29.28115618 334.73111421 C-29.29338005 330.99950175 -29.29312645 327.26797899 -29.29076743 323.53635108 C-29.29035911 319.50964788 -29.30139986 315.48297338 -29.31088257 311.45628357 C-29.32749008 303.56928489 -29.332992 295.6823161 -29.33410732 287.7953014 C-29.3350579 281.3839036 -29.33916866 274.97251567 -29.34550858 268.56112099 C-29.36312016 250.38077147 -29.37234755 232.20044555 -29.37084763 214.02008744 C-29.37076772 213.04013583 -29.3706878 212.06018422 -29.37060547 211.05053711 C-29.37052371 210.06938804 -29.37044195 209.08823897 -29.37035771 208.0773581 C-29.36954479 192.17612385 -29.38868414 176.27498432 -29.4168822 160.37377747 C-29.44561208 144.0437281 -29.45942244 127.71372493 -29.45769465 111.38364965 C-29.45703079 102.21667023 -29.46252121 93.04979012 -29.48405075 83.88283348 C-29.50226389 76.07797893 -29.50660879 68.27326871 -29.4930319 60.46840211 C-29.48650295 56.48749557 -29.48638222 52.5068659 -29.5037384 48.52598572 C-29.51947768 44.87840119 -29.51659724 41.23131287 -29.49917014 37.58374039 C-29.49465374 35.64610778 -29.5097509 33.70845973 -29.52564943 31.77088708 C-29.44444835 21.49679238 -26.94427456 14.28304898 -19.9296875 6.7265625 C-14.09660749 1.50749091 -7.65994899 -0.05081227 0 0 Z " fill="#CA893F" transform="translate(215,595)"/>
<path d="M0 0 C1 1 1 1 1.1241985 3.25940424 C1.12381878 4.27059948 1.12343906 5.28179472 1.12304783 6.32363224 C1.12503888 7.48559402 1.12702993 8.64755579 1.12908131 9.84472853 C1.12616847 11.13750147 1.12325563 12.43027441 1.12025452 13.76222229 C1.1206901 15.13664407 1.12156476 16.51106577 1.12284368 17.88548702 C1.12509122 21.67996225 1.12106385 25.47440953 1.11606562 29.2688812 C1.111765 33.35410971 1.11320727 37.43933652 1.1139679 41.52456665 C1.11449338 48.60837239 1.11134405 55.69216894 1.10573006 62.77597237 C1.09761833 73.01808382 1.09500017 83.26019082 1.09374207 93.50230514 C1.09155103 110.11766884 1.08488955 126.73302764 1.07543945 143.34838867 C1.06626667 159.49291967 1.05918518 175.63744934 1.05493164 191.78198242 C1.05453756 193.27359263 1.05453756 193.27359263 1.05413551 194.79533637 C1.05283051 199.78376146 1.0515668 204.77218655 1.05032361 209.76061165 C1.03994939 251.17374451 1.02232967 292.58687198 1 334 C1.74623123 333.49645744 1.74623123 333.49645744 2.50753784 332.98274231 C4.81294698 331.42955242 7.12129424 329.88078224 9.4296875 328.33203125 C10.21174561 327.80420044 10.99380371 327.27636963 11.79956055 326.73254395 C75.22104371 284.25026894 157.54844653 280.54477572 230.57910156 294.85327148 C241.24512891 297.10353482 251.67155535 300.19369472 262.10546875 303.328125 C271.66428417 306.12710271 271.66428417 306.12710271 281.14453125 304.0234375 C283.95688862 302.47220038 285.89936221 300.4007289 288 298 C288.99405132 296.9940865 289.99281121 295.99275915 291 295 C291.26914103 299.10622438 291.50153657 303.21282961 291.7019043 307.32299805 C291.7748205 308.71709785 291.85728691 310.11073556 291.94995117 311.50366211 C292.51114948 320.05043636 292.67480494 327.07967088 287 334 C280.82629329 340.36968393 274.31251769 343.80914605 265.36425781 344.13061523 C263.9772144 344.13414389 262.59014034 344.1305986 261.203125 344.12109375 C260.45621399 344.11822861 259.70930298 344.11536346 258.9397583 344.1124115 C251.19194621 344.04847641 243.47840399 343.58656964 235.75 343.0625 C206.94703395 341.1375493 178.1748291 340.81166964 149.31835938 340.81469727 C145.27990235 340.81477851 141.24155882 340.80781902 137.203125 340.79418945 C112.71471402 340.71287206 88.42161749 341.09068813 64 343 C62.65500428 343.10178128 61.30998716 343.20328004 59.96495056 343.30451965 C41.81159988 344.42746723 41.81159988 344.42746723 25.2434082 351.26025391 C15.3249143 356.58047879 3.48989157 356.49752423 -7.5 356.4375 C-8.79808594 356.45748047 -10.09617187 356.47746094 -11.43359375 356.49804688 C-22.98294906 356.49227797 -32.8703613 354.34015769 -43.0703125 348.859375 C-49.28144094 345.5946827 -54.93726951 344.77866645 -61.875 344.25 C-63.41994141 344.10111328 -63.41994141 344.10111328 -64.99609375 343.94921875 C-68.16504016 343.6591298 -71.3350187 343.41610961 -74.50894165 343.18783569 C-77.33420853 342.97479935 -80.15624885 342.73070662 -82.97924805 342.48950195 C-105.59351052 340.66514253 -128.19022488 340.64558629 -150.86559677 340.68295288 C-154.09648898 340.68754834 -157.32736285 340.68813957 -160.55825806 340.68798828 C-188.42655642 340.69545555 -216.15691848 341.06570879 -243.95817566 343.14237976 C-252.24035722 343.75784553 -260.49446862 344.18810243 -268.80078125 344.28125 C-269.69105515 344.30070679 -270.58132904 344.32016357 -271.49858093 344.34020996 C-279.4795241 344.35722317 -286.92260954 342.56947944 -293.36328125 337.66015625 C-298.73603095 332.2104698 -302.11419571 325.40562608 -302.11329651 317.78120422 C-302.10813522 317.09672714 -302.10297394 316.41225006 -302.09765625 315.70703125 C-302.0962413 315.00100266 -302.09482635 314.29497406 -302.09336853 313.56755066 C-302.08777764 311.31582374 -302.07522688 309.06419679 -302.0625 306.8125 C-302.05748382 305.28450665 -302.05292112 303.75651173 -302.04882812 302.22851562 C-302.0378112 298.48563865 -302.02055287 294.74283627 -302 291 C-300.00295012 292.99704988 -299.31191187 294.33909237 -298.1875 296.875 C-296.38380013 300.58335309 -294.52883343 302.73792729 -291 305 C-283.88946775 307.37017742 -278.6486067 305.68428718 -271.80078125 303.27319336 C-252.02580893 296.43325224 -231.72580936 292.52675986 -211 290 C-209.66916884 289.82250147 -208.33835937 289.64484029 -207.00756836 289.46704102 C-194.57332326 287.87208355 -182.21435622 287.55871043 -169.6875 287.5625 C-168.62295593 287.56176483 -167.55841187 287.56102966 -166.46160889 287.56027222 C-136.77920304 287.61369269 -108.45146626 291.3705763 -80 300 C-78.97664551 300.30276855 -77.95329102 300.60553711 -76.89892578 300.91748047 C-57.07883182 306.84812477 -37.76874793 314.71073579 -21 327 C-19.27720183 328.21223617 -17.55215586 329.42128122 -15.82543945 330.62792969 C-14.47105522 331.57475616 -14.47105522 331.57475616 -13.08930969 332.54071045 C-12.39983749 333.022276 -11.7103653 333.50384155 -11 334 C-11.00037972 333.32283469 -11.00075944 332.64566939 -11.00115067 331.94798392 C-11.02353711 291.7983332 -11.04069079 251.64868329 -11.05106533 211.49902759 C-11.05231601 206.67635367 -11.05361034 201.85367976 -11.05493164 197.03100586 C-11.05532511 195.59086705 -11.05532511 195.59086705 -11.05572652 194.12163452 C-11.06007578 178.58353417 -11.06795925 163.04543753 -11.0771528 147.50733938 C-11.08651001 131.55942149 -11.09206 115.61150553 -11.09408849 99.66358501 C-11.09545942 89.82583516 -11.09978675 79.9880958 -11.10791647 70.15034918 C-11.11320942 63.40084575 -11.11479849 56.65134773 -11.11350138 49.90184238 C-11.11286199 46.00993536 -11.11383031 42.11804663 -11.11920547 38.22614288 C-11.12409823 34.65732541 -11.12430034 31.08853839 -11.12089889 27.51971946 C-11.12028126 25.62902356 -11.12457026 23.73832798 -11.12908131 21.84763736 C-11.0947424 2.12515191 -11.0947424 2.12515191 -7.75 -1.3125 C-4.38376132 -2.15405967 -2.99525007 -1.66402781 0 0 Z " fill="#FCDA9C" transform="translate(517,597)"/>
<path d="M0 0 C2.61237779 0.01073647 5.22406832 0.00001689 7.83642578 -0.01269531 C41.66254452 -0.04347612 74.98063708 7.35534067 106.61376953 19.07324219 C107.65364014 19.45834961 108.69351074 19.84345703 109.76489258 20.24023438 C116.98559035 23.00438383 116.98559035 23.00438383 118.11376953 25.26074219 C118.68609658 31.55633967 118.68609658 31.55633967 116.48876953 34.26074219 C110.5396737 36.76562464 103.13404491 32.58367774 97.42626953 30.51074219 C46.06905068 12.36589794 -13.87671948 6.38961688 -66.12451172 24.52636719 C-70.08981342 25.58078971 -73.47564945 25.89179159 -77.26123047 24.19824219 C-78.88623047 22.26074219 -78.88623047 22.26074219 -79.51123047 18.82324219 C-78.88623047 15.26074219 -78.88623047 15.26074219 -76.53466797 13.22949219 C-72.03327466 10.47154003 -66.96785411 9.4312013 -61.88623047 8.19824219 C-60.85602783 7.94075195 -59.8258252 7.68326172 -58.7644043 7.41796875 C-55.80814031 6.68522948 -52.84807953 5.97051103 -49.88623047 5.26074219 C-49.17772949 5.08623535 -48.46922852 4.91172852 -47.73925781 4.73193359 C-32.00661104 0.87282506 -16.13552636 -0.07851838 0 0 Z " fill="#FCDA9B" transform="translate(347.88623046875,730.7392578125)"/>
<path d="M0 0 C0.72820953 0.00060425 1.45641907 0.0012085 2.20669556 0.00183105 C27.27486817 0.05809079 51.00052862 3.81731236 75.4375 9.25 C77.13181152 9.61786621 77.13181152 9.61786621 78.86035156 9.99316406 C79.91061523 10.23389648 80.96087891 10.47462891 82.04296875 10.72265625 C82.9764917 10.932854 83.91001465 11.14305176 84.87182617 11.35961914 C87.44264114 12.2545615 88.62176411 13.02370823 90.25 15.1875 C90.66616519 18.44746064 90.5266188 20.53053035 89.25 23.5625 C86.78765119 25.56315841 85.00064657 25.73707332 81.87109375 25.58203125 C77.18159935 24.876161 72.64893184 23.54608545 68.08984375 22.265625 C59.03180257 19.7223703 49.99233609 17.90836336 40.6875 16.5625 C39.83720215 16.43931396 38.9869043 16.31612793 38.11083984 16.18920898 C12.87383962 12.69600645 -14.74658873 11.86064434 -39.75 17.1875 C-40.69069336 17.38085938 -41.63138672 17.57421875 -42.60058594 17.7734375 C-60.5472 21.53821766 -79.050333 26.34916985 -95.78125 33.97265625 C-99.51121252 35.49899618 -101.87900672 35.11653839 -105.75 34.1875 C-106.75 33.1875 -106.75 33.1875 -107.3125 29.4375 C-107.26629672 26.84695947 -107.24053874 25.66277105 -105.35375977 23.8347168 C-99.5277921 20.37543228 -93.51193926 17.98317825 -87.125 15.75 C-86.02470459 15.36239502 -84.92440918 14.97479004 -83.79077148 14.57543945 C-64.69653278 7.95813482 -45.80414197 3.72436616 -25.75 1.1875 C-24.94723633 1.08219971 -24.14447266 0.97689941 -23.31738281 0.8684082 C-15.567517 -0.03789107 -7.79174936 -0.0119429 0 0 Z " fill="#FCDA9C" transform="translate(664.75,673.8125)"/>
<path d="M0 0 C0.88123535 0.17128418 1.7624707 0.34256836 2.67041016 0.51904297 C22.01118685 4.30144923 43.7160522 10.45594551 61 20 C62.39935013 22.79870027 62.25265405 24.90498792 62 28 C60.9375 29.875 60.9375 29.875 59 31 C53.44559407 31.46057574 49.50988447 30.23741422 44.5625 27.9375 C28.20158925 20.79141837 10.51932539 16.30351313 -7 13 C-7.73573242 12.85046875 -8.47146484 12.7009375 -9.22949219 12.546875 C-22.7791941 9.87039067 -36.36412794 9.68497739 -50.125 9.625 C-51.00679932 9.61714478 -51.88859863 9.60928955 -52.79711914 9.60119629 C-65.79803078 9.51117232 -78.211062 10.69139419 -91 13 C-91.74197632 13.1322699 -92.48395264 13.26453979 -93.24841309 13.40081787 C-97.36934669 14.14175457 -101.48120469 14.92249696 -105.58862305 15.73486328 C-107.62258111 16.13687503 -109.65784766 16.53171811 -111.69335938 16.92578125 C-118.4184329 18.17684881 -118.4184329 18.17684881 -125 20 C-131.23321555 20.44522968 -131.23321555 20.44522968 -133.9375 18.875 C-135.54965675 16.0300175 -135.52388687 14.2088071 -135 11 C-131.54138677 7.65371511 -128.54512004 6.30210377 -123.8984375 5.21875 C-122.70154297 4.93588135 -121.50464844 4.6530127 -120.27148438 4.36157227 C-118.98564453 4.07725342 -117.69980469 3.79293457 -116.375 3.5 C-115.3706189 3.27605057 -115.3706189 3.27605057 -114.34594727 3.0475769 C-110.20949451 2.12918795 -106.06620587 1.24915128 -101.91589355 0.39569092 C-100.17316098 0.03576307 -98.43263472 -0.33480625 -96.69238281 -0.70654297 C-65.69659375 -7.12236461 -30.90675496 -6.51841675 0 0 Z " fill="#FCDA9C" transform="translate(404,678)"/>
<path d="M0 0 C0.91476105 0.00149048 1.82952209 0.00298096 2.77200317 0.0045166 C28.43324573 0.07935433 52.91368667 3.25497593 77.6875 9.9375 C78.84100952 10.2466333 78.84100952 10.2466333 80.01782227 10.56201172 C85.38197664 12.06947664 85.38197664 12.06947664 87.625 14.3125 C88.28800618 20.39005662 88.28800618 20.39005662 86.1875 23.3125 C79.59997724 25.88324059 71.04185065 22.56071488 64.4375 20.9375 C54.09642885 18.48536576 43.74997578 16.88552041 33.20361328 15.62207031 C31.09281162 15.3686622 28.98585902 15.08337506 26.88037109 14.7890625 C22.48777538 14.24159682 18.14157087 14.1343212 13.71875 14.109375 C12.46788101 14.09885353 12.46788101 14.09885353 11.19174194 14.08811951 C8.50277269 14.07066029 5.81402392 14.06426347 3.125 14.0625 C2.20527405 14.06182526 1.2855481 14.06115051 0.33795166 14.06045532 C-14.10487975 14.07728479 -28.1382293 14.70747387 -42.375 17.3125 C-43.70265381 17.53800537 -43.70265381 17.53800537 -45.05712891 17.76806641 C-63.17568253 20.90905059 -83.82421152 26.03710576 -100.375 34.3125 C-103.0473621 34.44665472 -105.69750488 34.35568541 -108.375 34.3125 C-109.93930248 31.18389505 -109.73127284 28.75647075 -109.375 25.3125 C-95.94059595 12.570099 -68.24012157 8.71267217 -50.8125 4.9375 C-49.72122803 4.699104 -48.62995605 4.46070801 -47.50561523 4.21508789 C-31.66068812 0.92884692 -16.13969776 -0.06532136 0 0 Z " fill="#FCDA9C" transform="translate(667.375,617.6875)"/>
<path d="M0 0 C2.98336153 0.01071662 5.9661195 0.00004041 8.94946289 -0.01269531 C20.79407746 -0.02162832 32.32004009 0.65383178 44.05297852 2.26074219 C45.64203003 2.46376953 45.64203003 2.46376953 47.26318359 2.67089844 C103.96660069 10.2138575 103.96660069 10.2138575 119.05297852 25.26074219 C119.48720767 28.73457545 119.65514747 31.12724769 117.99047852 34.26074219 C114.9028472 35.85435835 112.39781406 34.90264527 109.05297852 34.26074219 C106.96533637 33.4700101 104.90350073 32.60927039 102.86547852 31.69824219 C86.53254072 24.78600178 68.55034168 20.07923636 51.05297852 17.26074219 C50.30709473 17.1336084 49.56121094 17.00647461 48.79272461 16.87548828 C36.88685967 14.85355831 25.12481942 13.56212935 13.05297852 13.26074219 C12.11856934 13.23351074 11.18416016 13.2062793 10.22143555 13.17822266 C-15.13563686 12.52382004 -41.5465065 15.1450329 -65.95483398 22.39746094 C-69.43342483 23.40107527 -72.34461762 23.54328367 -75.94702148 23.26074219 C-77.94702148 21.26074219 -77.94702148 21.26074219 -78.25952148 17.82324219 C-77.94702148 14.26074219 -77.94702148 14.26074219 -76.78295898 12.65527344 C-69.79277604 7.34570895 -57.60520458 6.44949809 -49.13452148 4.63574219 C-48.18810791 4.42965332 -47.24169434 4.22356445 -46.26660156 4.01123047 C-30.83266963 0.80886815 -15.7263146 -0.06699176 0 0 Z " fill="#FCDA9C" transform="translate(346.947021484375,617.7392578125)"/>
<path d="M0 0 C2.25849423 3.38774134 2.2494698 4.5212108 2.24774647 8.48935604 C2.25431946 10.21149599 2.25431946 10.21149599 2.26102525 11.96842664 C2.25567992 13.23551562 2.25033458 14.5026046 2.24482727 15.80809021 C2.24624904 17.16331237 2.24856109 18.51853384 2.25168961 19.87375313 C2.25780573 23.60636493 2.25153472 27.33887078 2.243379 31.07147491 C2.23680286 35.09418834 2.24179583 39.11688803 2.24560547 43.13960266 C2.25083432 50.11476511 2.24932833 57.0898998 2.24382973 64.06506157 C2.23562186 75.09524179 2.24684018 86.12536201 2.2610321 97.15553284 C2.26563357 100.92920194 2.2700839 104.70287121 2.27447033 108.47654057 C2.27556847 109.41971471 2.27666661 110.36288885 2.27779803 111.33464403 C2.28997729 122.07587688 2.29752518 132.81711166 2.3034668 143.55834961 C2.30401486 144.54040825 2.30456292 145.5224669 2.30512758 146.5342849 C2.31357902 162.43364809 2.31025303 178.33299433 2.30431245 194.23235761 C2.29869039 210.55896677 2.31225379 226.88549073 2.34186524 243.21207386 C2.35938932 253.27965127 2.36105943 263.34698216 2.34222009 273.41455836 C2.33059345 280.32061944 2.33709615 287.2265146 2.3576893 294.13255417 C2.36898379 298.11385929 2.37224356 302.09473649 2.35351372 306.0760231 C2.3364943 309.72769187 2.34283323 313.37857959 2.36701228 317.03020108 C2.37391368 318.96277393 2.35639904 320.89538758 2.33774453 322.82788271 C2.43566532 332.22715495 4.60466012 340.74812651 10.25 348.4375 C18.1210197 355.77185926 27.12159503 358.26400627 37.625 358.37890625 C38.85029419 358.40392212 38.85029419 358.40392212 40.1003418 358.42944336 C42.73347897 358.48186148 45.36665437 358.52206481 48 358.5625 C51.60424991 358.63143396 55.20836416 358.7066206 58.8125 358.78125 C59.69470215 358.7986171 60.5769043 358.81598419 61.48583984 358.83387756 C68.66259539 358.97907471 75.82932277 359.22784487 83 359.5625 C83.94101562 359.60640869 84.88203125 359.65031738 85.8515625 359.69555664 C87.90120346 359.79371572 89.95063662 359.89620681 92 360 C92 360.33 92 360.66 92 361 C76.8047372 361.62544267 61.60410216 362.12489636 46.39547729 362.23217773 C44.9798346 362.24393734 43.56422438 362.26091584 42.14871216 362.28344727 C32.17450621 362.43395883 23.90663745 361.62662893 15 357 C15 356.34 15 355.68 15 355 C13.8553125 354.62875 13.8553125 354.62875 12.6875 354.25 C9.73919055 352.87869328 8.64165468 351.7648921 7 349 C7 348.34 7 347.68 7 347 C6.34 347 5.68 347 5 347 C4.17834491 345.29605107 3.36809355 343.58660102 2.5625 341.875 C2.11003906 340.92367188 1.65757812 339.97234375 1.19140625 338.9921875 C-0.78812783 334.02063633 -1.12505912 329.20801176 -1.12698364 323.8944397 C-1.12980567 322.68935005 -1.1326277 321.48426041 -1.13553524 320.24265289 C-1.13350881 318.93103935 -1.13148237 317.61942581 -1.12939453 316.26806641 C-1.13073306 314.85865993 -1.13249469 313.4492538 -1.13464451 312.03984833 C-1.13916464 308.19957583 -1.13734751 304.35932975 -1.13423705 300.5190568 C-1.1323219 297.26900547 -1.13387414 294.0189596 -1.13546103 290.76890838 C-1.13968106 282.09053374 -1.13669554 273.41217542 -1.13031453 264.73380268 C-1.12578041 258.44403506 -1.12385111 252.1542711 -1.12332153 245.86450195 C-1.11821355 202.97528568 -1.07885086 160.08918815 -0.30958652 117.20541573 C-0.26951417 114.9661557 -0.23106511 112.72687286 -0.19291687 110.48757935 C-0.14847612 107.88044415 -0.09627555 105.27389132 -0.03913879 102.66696167 C-0.01905258 101.56321198 0.00103363 100.45946228 0.02172852 99.32226562 C0.04171402 98.38048462 0.06169952 97.43870361 0.08229065 96.46838379 C0.09711232 94.08296448 0.09711232 94.08296448 -0.49327087 92.17845154 C-1.2885133 88.75966822 -1.13854287 85.31410141 -1.12939453 81.82250977 C-1.13114685 81.00090363 -1.13289917 80.17929749 -1.13470459 79.33279419 C-1.13910292 76.61897667 -1.13619193 73.90522442 -1.1328125 71.19140625 C-1.13348618 69.3033802 -1.13445675 67.41535424 -1.13571167 65.52732849 C-1.13718596 61.57053807 -1.13504293 57.61377022 -1.13037109 53.65698242 C-1.12467788 48.58839651 -1.12795194 43.5198636 -1.13394356 38.45127964 C-1.13755973 34.55221661 -1.13640565 30.65316612 -1.13381577 26.75410271 C-1.13314922 24.88541597 -1.13396541 23.01672809 -1.13629532 21.14804268 C-1.1388387 18.5342928 -1.13495725 15.9206283 -1.12939453 13.30688477 C-1.13141876 12.53633255 -1.13344299 11.76578033 -1.13552856 10.97187805 C-1.12063853 7.18948943 -0.91320104 3.67725022 0 0 Z " fill="#FEF7DD" transform="translate(184,614)"/>
<path d="M0 0 C0.00173625 0.68541182 0.0034725 1.37082363 0.00526136 2.07700551 C0.10825369 42.68563492 0.21635843 83.29424792 0.33111694 123.90284587 C0.34488678 128.77702735 0.35861384 133.65120895 0.37231445 138.52539062 C0.37640691 139.98095453 0.37640691 139.98095453 0.38058204 141.46592377 C0.42467628 157.1852229 0.46530332 172.90452918 0.50465261 188.62384082 C0.54509528 204.74915771 0.58925558 220.87446131 0.63687855 236.9997586 C0.66615505 246.95267345 0.69251983 256.90558732 0.71517897 266.85851948 C0.73098748 273.68041571 0.75040184 280.5022957 0.77266841 287.32417388 C0.78541457 291.26203448 0.79655487 295.19988263 0.80341911 299.13775826 C0.8097381 302.74271828 0.82058371 306.34763527 0.8350333 309.95257162 C0.84155948 311.87478934 0.84323794 313.79702163 0.84474558 315.71924984 C0.85022002 316.8632997 0.85569446 318.00734955 0.8613348 319.18606758 C0.86399284 320.17106212 0.86665089 321.15605665 0.86938947 322.17089951 C1.00825877 325.17888978 1.44878409 328.04202502 2 331 C-2.89202011 326.10797989 -2.23528841 318.09266369 -2.25816262 311.61812592 C-2.25233693 310.40021614 -2.24651125 309.18230637 -2.24050903 307.92749023 C-2.24307231 305.96325733 -2.24307231 305.96325733 -2.24568737 303.95934296 C-2.25014341 300.34027096 -2.24218132 296.72131813 -2.23213124 293.1022613 C-2.22347382 289.19370842 -2.22641852 285.28516195 -2.22793579 281.37660217 C-2.22898319 274.60993871 -2.22272172 267.8433139 -2.21146011 261.07666016 C-2.19518846 251.29328628 -2.1899954 241.50993104 -2.18748413 231.7265451 C-2.18310964 215.85267963 -2.16980722 199.97883476 -2.15087891 184.10498047 C-2.13251374 168.68733829 -2.11836035 153.2697017 -2.10986328 137.85205078 C-2.10933783 136.90130098 -2.10881239 135.95055118 -2.10827102 134.97099078 C-2.10566089 130.20123716 -2.10313349 125.4314835 -2.10064721 120.66172981 C-2.07992238 81.10780546 -2.04470355 41.55390409 -2 2 C-3.98 2 -5.96 2 -8 2 C-4.77208445 -0.1519437 -3.71599191 -0.20086443 0 0 Z " fill="#C37C2B" transform="translate(215,595)"/>
<path d="M0 0 C0.33 0 0.66 0 1 0 C1 106.26 1 212.52 1 322 C-0.32 321.34 -1.64 320.68 -3 320 C-2.01 319.67 -1.02 319.34 0 319 C0 213.73 0 108.46 0 0 Z " fill="#FEF8E5" transform="translate(505,609)"/>
<path d="M0 0 C0 0.99 0 1.98 0 3 C-0.62342285 3.28085449 -1.2468457 3.56170898 -1.88916016 3.85107422 C-16.21715688 10.35899976 -29.27674224 16.95093047 -41 27.5625 C-44.23342131 30.18965482 -45.82839741 31.27206104 -50 31 C-52.625 28.75 -52.625 28.75 -55 26 C-55.763125 25.443125 -56.52625 24.88625 -57.3125 24.3125 C-57.869375 23.879375 -58.42625 23.44625 -59 23 C-59 22.34 -59 21.68 -59 21 C-56.75 20.75 -56.75 20.75 -54 21 C-53.360625 21.66 -52.72125 22.32 -52.0625 23 C-50.10841045 25.2741555 -50.10841045 25.2741555 -47 25.5 C-43.35833738 24.89305623 -42.38891904 23.71842511 -40 21 C-39.01 20.67 -38.02 20.34 -37 20 C-35.97803008 19.02246356 -34.98020375 18.0194119 -34 17 C-26.30386577 10.82540036 -10.32309682 0 0 0 Z " fill="#FEE3AF" transform="translate(559,565)"/>
<path d="M0 0 C24.35583271 -0.12711812 48.65933399 0.10702601 73 1 C73 1.33 73 1.66 73 2 C71.87843506 2.02505615 70.75687012 2.0501123 69.60131836 2.07592773 C64.37997552 2.19348102 59.15872359 2.31477178 53.9375 2.4375 C52.52452637 2.47059769 52.52452637 2.47059769 51.08300781 2.50436401 C40.54932127 2.75386383 30.02391353 3.03020715 19.5 3.5625 C7.66956322 4.15747582 -4.15772999 4.09737477 -16 4 C-16 3.67 -16 3.34 -16 3 C-10.72 2.34 -5.44 1.68 0 1 C0 0.67 0 0.34 0 0 Z " fill="#FEF4DE" transform="translate(359,967)"/>
<path d="M0 0 C0.75560211 0.00088623 1.51120422 0.00177246 2.28970337 0.00268555 C13.75892181 0.01843602 25.18358674 0.26956723 36.625 1.125 C36.625 1.785 36.625 2.445 36.625 3.125 C19.465 3.455 2.305 3.785 -15.375 4.125 C-15.375 3.465 -15.375 2.805 -15.375 2.125 C-16.468125 2.310625 -17.56125 2.49625 -18.6875 2.6875 C-23.98195693 3.37188222 -29.09981308 2.75530726 -34.375 2.125 C-34.375 1.795 -34.375 1.465 -34.375 1.125 C-22.90314389 0.33377536 -11.49803398 -0.03929164 0 0 Z " fill="#FEF8E0" transform="translate(775.375,971.875)"/>
<path d="M0 0 C1.80844584 0.00187311 3.61689221 0.00329277 5.42533875 0.00428772 C10.10549406 0.00804275 14.7856166 0.01780989 19.46575928 0.0289917 C24.2733923 0.03935984 29.08103081 0.04381777 33.88867188 0.04882812 C43.26303496 0.05944112 52.63737409 0.07642914 62.01171875 0.09765625 C62.01171875 0.42765625 62.01171875 0.75765625 62.01171875 1.09765625 C61.18138626 1.10796371 60.35105377 1.11827118 59.49555969 1.12889099 C51.57004749 1.22793411 43.64459107 1.33057364 35.71917439 1.43699551 C31.64719572 1.49155376 27.57520967 1.54484569 23.50317383 1.5949707 C1.42901996 1.83910831 1.42901996 1.83910831 -20.6328125 2.5703125 C-21.90097054 2.62595619 -21.90097054 2.62595619 -23.19474792 2.682724 C-27.22340024 2.82057539 -27.22340024 2.82057539 -30.98828125 4.09765625 C-33.09357058 4.1830952 -35.20159282 4.2048035 -37.30859375 4.1953125 C-38.56542969 4.19208984 -39.82226562 4.18886719 -41.1171875 4.18554688 C-42.43589844 4.17716797 -43.75460937 4.16878906 -45.11328125 4.16015625 C-46.45312336 4.15514114 -47.79296725 4.15057826 -49.1328125 4.14648438 C-52.41801331 4.13466711 -55.70312522 4.11819242 -58.98828125 4.09765625 C-58.98828125 3.76765625 -58.98828125 3.43765625 -58.98828125 3.09765625 C-49.70401072 1.93003737 -40.44333066 0.96505294 -31.09301758 0.53735352 C-30.18851521 0.49545426 -29.28401285 0.45355501 -28.35210133 0.41038609 C-18.89996892 0.00409352 -9.45914413 -0.02957968 0 0 Z M-32.98828125 4.09765625 C-32.32828125 4.09765625 -31.66828125 4.09765625 -30.98828125 4.09765625 C-30.98828125 4.75765625 -30.98828125 5.41765625 -30.98828125 6.09765625 C-31.97828125 5.76765625 -32.96828125 5.43765625 -33.98828125 5.09765625 C-33.65828125 4.76765625 -33.32828125 4.43765625 -32.98828125 4.09765625 Z " fill="#BF7728" transform="translate(633.98828125,936.90234375)"/>
<path d="M0 0 C0.83080078 0.09345703 1.66160156 0.18691406 2.51757812 0.28320312 C3.80631836 0.43885742 3.80631836 0.43885742 5.12109375 0.59765625 C6.83058235 0.79554328 8.54021281 0.99220962 10.25 1.1875 C11.00482666 1.27765381 11.75965332 1.36780762 12.53735352 1.46069336 C14.71766708 1.70925944 14.71766708 1.70925944 17.55859375 1.66015625 C19.26834696 1.76394319 20.97678296 1.89084863 22.68359375 2.03515625 C23.57304688 2.10476563 24.4625 2.174375 25.37890625 2.24609375 C26.45785156 2.45105469 26.45785156 2.45105469 27.55859375 2.66015625 C28.05359375 3.65015625 28.05359375 3.65015625 28.55859375 4.66015625 C29.65171875 4.45390625 30.74484375 4.24765625 31.87109375 4.03515625 C35.55859375 3.66015625 35.55859375 3.66015625 38.55859375 5.66015625 C40.87968044 6.36828439 43.21236522 7.04039777 45.55859375 7.66015625 C45.22859375 8.32015625 44.89859375 8.98015625 44.55859375 9.66015625 C38.28425692 9.32131869 32.25611645 8.66373194 26.12109375 7.28515625 C13.79264246 4.65629531 1.09414033 3.83808605 -11.44140625 2.66015625 C-7.40470947 -0.03097494 -4.76885157 -0.5616094 0 0 Z " fill="#FEE9BD" transform="translate(716.44140625,544.33984375)"/>
<path d="M0 0 C0.495 1.485 0.495 1.485 1 3 C-3.76266388 3.98598587 -8.55216411 4.7418952 -13.35546875 5.5 C-15.96498254 5.86863151 -15.96498254 5.86863151 -18 7 C-21.48119281 7.08982929 -24.9602854 6.85730691 -28.4375 6.6875 C-29.93144287 6.61801147 -29.93144287 6.61801147 -31.45556641 6.54711914 C-38.08442801 6.19968657 -44.53764165 5.59239931 -51 4 C-51.33 3.01 -51.66 2.02 -52 1 C-51.38898438 1.0721875 -50.77796875 1.144375 -50.1484375 1.21875 C-36.10093549 2.64328542 -21.46162223 3.15396689 -7.55859375 0.4375 C-4.98744942 -0.00214605 -2.60286988 -0.07530907 0 0 Z " fill="#FDF2CF" transform="translate(541,984)"/>
<path d="M0 0 C0.33 0 0.66 0 1 0 C1.96220563 19.62899495 1.96220563 19.62899495 -4 28 C-4.680625 28.969375 -5.36125 29.93875 -6.0625 30.9375 C-7.93060074 32.92612337 -9.69519748 34.54029174 -12 36 C-12.66 36 -13.32 36 -14 36 C-14 36.66 -14 37.32 -14 38 C-15.60149886 38.67305018 -17.20631029 39.33822227 -18.8125 40 C-19.70582031 40.37125 -20.59914063 40.7425 -21.51953125 41.125 C-24 42 -24 42 -27 42 C-27 41.34 -27 40.68 -27 40 C-33.27 40 -39.54 40 -46 40 C-46 39.67 -46 39.34 -46 39 C-45.39639648 39.00112793 -44.79279297 39.00225586 -44.17089844 39.00341797 C-25.94641736 39.07963193 -25.94641736 39.07963193 -10.31640625 30.55078125 C-6.015395 25.89241595 -2.78657776 19.29262207 -2 13 C-1.67 13 -1.34 13 -1 13 C-0.505 6.565 -0.505 6.565 0 0 Z " fill="#FDF0C7" transform="translate(839,933)"/>
<path d="M0 0 C1.23024399 0.0028299 2.46048798 0.00565979 3.72801208 0.00857544 C7.62997455 0.01970703 11.53170149 0.04479892 15.43359375 0.0703125 C18.09049143 0.08148716 20.7473869 0.0894756 23.40429688 0.09765625 C29.89330856 0.11962338 36.38218432 0.15303073 42.87109375 0.1953125 C42.87109375 0.8553125 42.87109375 1.5153125 42.87109375 2.1953125 C41.61264648 2.22036865 40.35419922 2.2454248 39.05761719 2.27124023 C34.28623136 2.36704139 29.51493448 2.4668041 24.74365234 2.56762695 C22.6977754 2.61033603 20.65187717 2.65203987 18.60595703 2.69262695 C5.01148911 2.96318025 -8.5528908 3.4322468 -22.12890625 4.1953125 C-22.12890625 3.5353125 -22.12890625 2.8753125 -22.12890625 2.1953125 C-14.65038705 0.18760972 -7.71985571 -0.06761994 0 0 Z " fill="#FEDFA7" transform="translate(660.12890625,543.8046875)"/>
<path d="M0 0 C0.67634491 -0.00249756 1.35268982 -0.00499512 2.04953003 -0.00756836 C11.25450628 -0.03559088 20.33017958 0.34424919 29.5 1.125 C29.5 1.455 29.5 1.785 29.5 2.125 C22.5089756 3.4377706 15.53030473 3.27427855 8.4375 3.25 C7.41910034 3.24867065 7.41910034 3.24867065 6.38012695 3.24731445 C-11.58625414 3.22022213 -29.5434614 2.67805198 -47.5 2.125 C-47.5 1.795 -47.5 1.465 -47.5 1.125 C-31.66578959 0.47325801 -15.84795694 0.0201212 0 0 Z " fill="#FDF7E2" transform="translate(650.5,966.875)"/>
<path d="M0 0 C0.86842026 -0.00131927 1.73684052 -0.00263855 2.63157654 -0.0039978 C5.45884753 -0.0059173 8.28602032 0.0004205 11.11328125 0.0078125 C12.0656366 0.00869873 13.01799194 0.00958496 13.99920654 0.01049805 C28.16509887 0.02608176 42.28306554 0.26249153 56.42578125 1.1328125 C56.42578125 1.4628125 56.42578125 1.7928125 56.42578125 2.1328125 C41.11786052 2.76289221 25.81325157 3.24594538 10.4916687 3.31005859 C9.03504456 3.31687596 7.57843227 3.32711117 6.12185669 3.34082031 C4.07461051 3.35865894 2.02778345 3.36297817 -0.01953125 3.36328125 C-1.77547607 3.36944458 -1.77547607 3.36944458 -3.56689453 3.37573242 C-6.4706286 3.14118011 -8.12498618 2.65070502 -10.57421875 1.1328125 C-7.28013982 -0.51422696 -3.62011057 -0.00859609 0 0 Z " fill="#FEF8E1" transform="translate(219.57421875,972.8671875)"/>
<path d="M0 0 C1.485 0.99 1.485 0.99 3 2 C3 3.32 3 4.64 3 6 C6.63 6.33 10.26 6.66 14 7 C14 7.66 14 8.32 14 9 C14.70125 9.226875 15.4025 9.45375 16.125 9.6875 C21.94386072 12.34393642 26.06229186 16.34219173 29 22 C29.5844873 24.99611135 29.86455819 27.95255929 30 31 C29.34 31 28.68 31 28 31 C27.79246094 30.35933594 27.58492187 29.71867188 27.37109375 29.05859375 C24.75155916 21.70416819 21.62320105 16.43795811 14.5703125 12.71875 C9.75900164 10.67138368 5.20118547 9.452277 0 9 C0 6.03 0 3.06 0 0 Z " fill="#FCECC2" transform="translate(809,586)"/>
<path d="M0 0 C0.495 1.485 0.495 1.485 1 3 C-3.22409232 4.04880306 -7.09285372 4.04923478 -11.43359375 3.9140625 C-12.14798111 3.89282318 -12.86236847 3.87158386 -13.59840393 3.84970093 C-15.11052857 3.80356263 -16.62257064 3.75464499 -18.13452148 3.703125 C-20.3987745 3.6263137 -22.66315128 3.55846557 -24.92773438 3.4921875 C-33.97337602 3.21358575 -42.97774367 2.7261047 -52 2 C-52 1.67 -52 1.34 -52 1 C-34.66358184 0.39261151 -17.35003107 -0.18768062 0 0 Z " fill="#FAE5B6" transform="translate(436,965)"/>
<path d="M0 0 C1.51219116 -0.00773438 1.51219116 -0.00773438 3.05493164 -0.015625 C10.29880521 0.05337014 10.29880521 0.05337014 13.6875 2.3125 C9.31389779 2.74594081 4.93972278 3.17290642 0.56494141 3.59423828 C-0.91895009 3.73802746 -2.40268017 3.8834939 -3.88623047 4.03076172 C-12.04704501 4.83968939 -20.09967681 5.50688635 -28.3125 5.3125 C-28.3125 4.6525 -28.3125 3.9925 -28.3125 3.3125 C-18.81569831 0.99687927 -9.77416954 0.01228586 0 0 Z " fill="#FEE9BE" transform="translate(324.3125,542.6875)"/>
<path d="M0 0 C1.73236948 2.59855422 3.03530268 5.06760879 4.375 7.875 C8.54927979 16.1873664 13.29661345 20.6269033 22.140625 23.7578125 C23.74693699 24.22142287 25.3721131 24.61900519 27 25 C25.328125 26.61328125 25.328125 26.61328125 23 28 C20.421875 27.41796875 20.421875 27.41796875 17.75 26.1875 C16.85796875 25.78917969 15.9659375 25.39085937 15.046875 24.98046875 C14.37140625 24.65691406 13.6959375 24.33335937 13 24 C13 23.34 13 22.68 13 22 C12.236875 21.7525 11.47375 21.505 10.6875 21.25 C7.73919055 19.87869328 6.64165468 18.7648921 5 16 C5 15.34 5 14.68 5 14 C4.34 14 3.68 14 3 14 C-1.69097481 5.56043372 -1.69097481 5.56043372 -1 1 C-0.67 0.67 -0.34 0.34 0 0 Z " fill="#FCEAC1" transform="translate(186,947)"/>
<path d="M0 0 C0 0.33 0 0.66 0 1 C-11.71652402 2.30312879 -23.32932712 3.19464943 -35.125 3.1875 C-36.63211548 3.1884668 -36.63211548 3.1884668 -38.16967773 3.18945312 C-45.15057946 3.13883771 -52.05224738 2.66772805 -59 2 C-59 1.67 -59 1.34 -59 1 C-39.31596585 0.13060063 -19.69932903 -0.1301806 0 0 Z " fill="#FAE8BA" transform="translate(365,968)"/>
<path d="M0 0 C0 0.66 0 1.32 0 2 C-0.845625 2.21914063 -1.69125 2.43828125 -2.5625 2.6640625 C-11.87890074 5.26841998 -18.70248471 7.98117945 -23.9375 16.375 C-24.31777344 17.06335938 -24.69804687 17.75171875 -25.08984375 18.4609375 C-25.39019531 18.96882812 -25.69054687 19.47671875 -26 20 C-26.33 20 -26.66 20 -27 20 C-26.58207301 14.67143091 -25.60384816 11.94170892 -22 8 C-21.67 7.34 -21.34 6.68 -21 6 C-14.14403528 2.11394657 -7.95034535 -0.93533475 0 0 Z " fill="#FFE8B8" transform="translate(243,558)"/>
<path d="M0 0 C3.2073796 -0.2046785 6.41307177 -0.32805321 9.625 -0.4375 C10.98044922 -0.52547852 10.98044922 -0.52547852 12.36328125 -0.61523438 C19.01813726 -0.78524894 19.01813726 -0.78524894 21.98730469 1.58935547 C23.47837233 3.32893438 24.78632623 5.05880978 26 7 C25.01 7.33 24.02 7.66 23 8 C21.5 6.625 21.5 6.625 20 5 C20 4.34 20 3.68 20 3 C13.73 3 7.46 3 1 3 C0.67 2.01 0.34 1.02 0 0 Z " fill="#FDF3D4" transform="translate(436,965)"/>
<path d="M0 0 C0.72316406 0.09667969 1.44632812 0.19335938 2.19140625 0.29296875 C3.79599049 0.51663807 5.39834028 0.75626917 7 1 C7.33 2.32 7.66 3.64 8 5 C-0.73390265 4.39214597 -9.3459967 3.31858334 -18 2 C-18 1.34 -18 0.68 -18 0 C-11.75408595 -1.04098567 -6.26123895 -0.84227363 0 0 Z " fill="#FEE9BD" transform="translate(397,545)"/>
<path d="M0 0 C0.495 1.485 0.495 1.485 1 3 C-11.34853548 3.2170641 -23.66798292 2.56691997 -36 2 C-36 1.67 -36 1.34 -36 1 C-23.98785879 -0.03330247 -12.05023529 -0.11317227 0 0 Z " fill="#FEE7BD" transform="translate(376,543)"/>
<path d="M0 0 C4.05606165 0.46800711 7.46588679 0.87953208 11 3 C11 3.66 11 4.32 11 5 C12.65 5.33 14.3 5.66 16 6 C16 6.66 16 7.32 16 8 C17.1446875 8.1546875 17.1446875 8.1546875 18.3125 8.3125 C21.18416484 9.04711194 22.23042094 9.6716065 24 12 C24 12.66 24 13.32 24 14 C20.97886299 13.37191375 18.65266576 12.37993011 15.99609375 10.8203125 C15.25552734 10.38589844 14.51496094 9.95148437 13.75195312 9.50390625 C12.98818359 9.04886719 12.22441406 8.59382812 11.4375 8.125 C10.28604492 7.45404297 10.28604492 7.45404297 9.11132812 6.76953125 C5.69142604 4.74800238 2.7280798 2.92131658 0 0 Z " fill="#FEE2AE" transform="translate(475,571)"/>
<path d="M0 0 C7.06614733 0.65731603 13.58087584 3.11794425 20 6 C20 6.66 20 7.32 20 8 C20.99 8.33 21.98 8.66 23 9 C16.91121808 8.45339344 11.71354433 7.07141474 6 4.9375 C4.83791016 4.51500977 4.83791016 4.51500977 3.65234375 4.08398438 C1.76549033 3.39679702 -0.11766151 2.69945987 -2 2 C-1.34 1.34 -0.68 0.68 0 0 Z " fill="#FEE8B2" transform="translate(436,555)"/>
<path d="M0 0 C6.61035485 0.55820774 12.3537137 1.23580913 18 5 C18 5.66 18 6.32 18 7 C11.64549677 5.75297849 5.31672565 4.42635741 -1 3 C-0.67 2.01 -0.34 1.02 0 0 Z " fill="#FEE7B1" transform="translate(764,553)"/>
<path d="M0 0 C1.32 0 2.64 0 4 0 C7.51916319 3.60499644 10.21517268 7.24046047 12 12 C11.6875 15.375 11.6875 15.375 11 18 C8.07134772 16.53567386 8.02314974 14.28123657 6.99609375 11.34375 C5.23955995 7.21072929 2.60317683 3.63939284 0 0 Z " fill="#FEE8B7" transform="translate(798,565)"/>
<path d="M0 0 C-0.12109375 1.703125 -0.12109375 1.703125 -1 4 C-2.99515901 5.72894698 -4.91429664 7.24257501 -7.0625 8.75 C-7.63033203 9.16121094 -8.19816406 9.57242188 -8.78320312 9.99609375 C-10.18194657 11.00695036 -11.59009375 12.00477206 -13 13 C-13.99 12.34 -14.98 11.68 -16 11 C-15 9 -15 9 -12 8 C-10.97803008 7.02246356 -9.98020375 6.0194119 -9 5 C-2.6 0 -2.6 0 0 0 Z " fill="#FEE7C0" transform="translate(534,577)"/>
<path d="M0 0 C0.556875 0.37125 1.11375 0.7425 1.6875 1.125 C0.25320999 1.79854499 -1.18507057 2.46359701 -2.625 3.125 C-3.42550781 3.49625 -4.22601562 3.8675 -5.05078125 4.25 C-7.3125 5.125 -7.3125 5.125 -10.3125 5.125 C-10.3125 4.465 -10.3125 3.805 -10.3125 3.125 C-16.5825 3.125 -22.8525 3.125 -29.3125 3.125 C-29.3125 2.795 -29.3125 2.465 -29.3125 2.125 C-28.67223877 2.10518066 -28.03197754 2.08536133 -27.37231445 2.06494141 C-24.4561472 1.96936399 -21.54066428 1.85981786 -18.625 1.75 C-17.61759766 1.7190625 -16.61019531 1.688125 -15.57226562 1.65625 C-14.10756836 1.59824219 -14.10756836 1.59824219 -12.61328125 1.5390625 C-11.71778564 1.5076416 -10.82229004 1.4762207 -9.8996582 1.44384766 C-7.23654893 1.22807349 -7.23654893 1.22807349 -4.62573242 0.04443359 C-2.3125 -0.875 -2.3125 -0.875 0 0 Z " fill="#F5DDA8" transform="translate(822.3125,969.875)"/>
<path d="M0 0 C-6.74066401 3.82882586 -15.37041479 4.34679933 -23 4 C-17.30547301 -1.69452699 -7.38950506 -1.35474259 0 0 Z " fill="#FEE6AF" transform="translate(295,548)"/>
<path d="M0 0 C1.98 0 3.96 0 6 0 C5.67 0.99 5.34 1.98 5 3 C2.41796875 4.16796875 2.41796875 4.16796875 -0.8125 5.1875 C-2.39998047 5.70376953 -2.39998047 5.70376953 -4.01953125 6.23046875 C-7 7 -7 7 -11 7 C-11 6.34 -11 5.68 -11 5 C-7.14243493 2.84694043 -4.44870215 1.60746746 0 2 C0 1.34 0 0.68 0 0 Z " fill="#FFE8B0" transform="translate(571,559)"/>
<path d="M0 0 C0.66 0 1.32 0 2 0 C1.67 5.28 1.34 10.56 1 16 C-0.32 15.34 -1.64 14.68 -3 14 C-2.69249629 11.85344499 -2.3788634 9.70776715 -2.0625 7.5625 C-1.88847656 6.36753906 -1.71445313 5.17257812 -1.53515625 3.94140625 C-1 1 -1 1 0 0 Z " fill="#FEE8BB" transform="translate(214,579)"/>
<path d="M0 0 C2.66673742 -0.02727345 5.33318869 -0.04696948 8 -0.0625 C8.74378906 -0.07087891 9.48757813 -0.07925781 10.25390625 -0.08789062 C15.26148844 -0.10966272 20.04279032 0.28458451 25 1 C23 3 23 3 19.99609375 3.23046875 C18.82175781 3.21628906 17.64742188 3.20210937 16.4375 3.1875 C14.67212891 3.17783203 14.67212891 3.17783203 12.87109375 3.16796875 C10 3 10 3 9 2 C7.48530552 1.76807135 5.96245438 1.58784762 4.4375 1.4375 C3.61121094 1.35371094 2.78492188 1.26992188 1.93359375 1.18359375 C1.29550781 1.12300781 0.65742188 1.06242188 0 1 C0 0.67 0 0.34 0 0 Z " fill="#FCECC9" transform="translate(268,971)"/>
<path d="M0 0 C0 0.66 0 1.32 0 2 C1.98 2 3.96 2 6 2 C6 2.33 6 2.66 6 3 C-0.6 3.33 -7.2 3.66 -14 4 C-14 3.34 -14 2.68 -14 2 C-4.58997722 -0.29612756 -4.58997722 -0.29612756 0 0 Z " fill="#FFE7B3" transform="translate(652,544)"/>
<path d="M0 0 C2.12109375 0.3671875 2.12109375 0.3671875 4 1 C-3.70252158 6.94815116 -11.90627019 12.45303994 -22 12 C-18.63173157 10.19645285 -15.15929871 8.96405168 -11.5625 7.6875 C-6.20972653 5.72906235 -6.20972653 5.72906235 -1.9375 2.125 C-1.298125 1.42375 -0.65875 0.7225 0 0 Z " fill="#C07727" transform="translate(557,972)"/>
<path d="M0 0 C1.46373047 0.02707031 1.46373047 0.02707031 2.95703125 0.0546875 C3.69308594 0.07789063 4.42914062 0.10109375 5.1875 0.125 C4.8575 0.785 4.5275 1.445 4.1875 2.125 C2.078125 2.7578125 2.078125 2.7578125 -0.5625 3.25 C-1.42359375 3.41757812 -2.2846875 3.58515625 -3.171875 3.7578125 C-5.75783821 4.1173991 -8.20563809 4.19064041 -10.8125 4.125 C-10.8125 3.465 -10.8125 2.805 -10.8125 2.125 C-7.04027911 0.37336544 -4.145861 -0.09990027 0 0 Z " fill="#FEE5B1" transform="translate(615.8125,548.875)"/>
<path d="M0 0 C2.25 -0.25 2.25 -0.25 5 0 C6.3743291 1.29103643 7.70896357 2.6256709 9 4 C11.1381966 4.7872678 11.1381966 4.7872678 13 5 C13 5.66 13 6.32 13 7 C7.81960013 7.63175608 5.33121642 6.25817319 1.3203125 3.2890625 C0.88460938 2.86367188 0.44890625 2.43828125 0 2 C0 1.34 0 0.68 0 0 Z " fill="#FEE6B9" transform="translate(500,586)"/>
<path d="M0 0 C5.67177385 -0.45374191 8.5975268 0.34916857 13 4 C13 4.66 13 5.32 13 6 C11.39566191 5.52140759 9.79153584 5.04210442 8.1875 4.5625 C7.29417969 4.29566406 6.40085937 4.02882813 5.48046875 3.75390625 C3.64526945 3.19612127 1.81966274 2.60655425 0 2 C0 1.34 0 0.68 0 0 Z " fill="#FEE4AF" transform="translate(783,558)"/>
<path d="M0 0 C4.5067218 -0.17673419 7.96625544 -0.13551182 12 2 C12.33 2.66 12.66 3.32 13 4 C11.39482903 3.91266424 9.79078338 3.80447776 8.1875 3.6875 C6.84751953 3.60048828 6.84751953 3.60048828 5.48046875 3.51171875 C2.69396 2.93686419 1.75864246 2.1793144 0 0 Z " fill="#FEE4AF" transform="translate(412,550)"/>
<path d="M0 0 C0.66 0.99 1.32 1.98 2 3 C1.3203125 5.26171875 1.3203125 5.26171875 0.125 7.6875 C-0.45894531 8.89986328 -0.45894531 8.89986328 -1.0546875 10.13671875 C-1.52261719 11.05904297 -1.52261719 11.05904297 -2 12 C-2.66 12 -3.32 12 -4 12 C-3.28571429 3.42857143 -3.28571429 3.42857143 0 0 Z " fill="#FCEBBE" transform="translate(189,605)"/>
<path d="M0 0 C0.99 0.33 1.98 0.66 3 1 C1.85821872 2.66944521 0.71147095 4.3354948 -0.4375 6 C-1.07558594 6.928125 -1.71367187 7.85625 -2.37109375 8.8125 C-2.90863281 9.534375 -3.44617188 10.25625 -4 11 C-4.33 11 -4.66 11 -5 11 C-4.50769231 4.6 -4.50769231 4.6 -1.9375 1.5625 C-0.9784375 0.7890625 -0.9784375 0.7890625 0 0 Z " fill="#FEE3AC" transform="translate(221,567)"/>
<path d="M0 0 C0.33 0.66 0.66 1.32 1 2 C-3.17737474 3.59138085 -6.53160785 4.21278058 -11 4 C-11 3.34 -11 2.68 -11 2 C-7.17010894 0.19769832 -4.21878192 -0.19622241 0 0 Z " fill="#FFE6A8" transform="translate(603,552)"/>
<path d="M0 0 C0 0.99 0 1.98 0 3 C-3.3 3 -6.6 3 -10 3 C-10 2.34 -10 1.68 -10 1 C-6.52674819 -0.1577506 -3.63932552 -0.06866652 0 0 Z " fill="#FEE7B5" transform="translate(306,545)"/>
<path d="M0 0 C0 0.99 0 1.98 0 3 C-5.37305699 3.96891192 -5.37305699 3.96891192 -8 4 C-10 2.5625 -10 2.5625 -11 1 C-7.27569643 0.30710631 -3.78916254 -0.11144596 0 0 Z " fill="#FFEDC1" transform="translate(628,547)"/>
<path d="M0 0 C3.375 0.75 3.375 0.75 7 2 C7.66 3.32 8.32 4.64 9 6 C6.03 5.01 3.06 4.02 0 3 C0 2.01 0 1.02 0 0 Z " fill="#FEE2AC" transform="translate(465,565)"/>
<path d="M0 0 C0 0.66 0 1.32 0 2 C-3.13498292 3.85776765 -5.37471432 4.20140476 -9 4 C-8.67 3.01 -8.34 2.02 -8 1 C-5.29120665 -0.35439668 -2.99066732 -0.06501451 0 0 Z " fill="#FEE6AE" transform="translate(591,555)"/>
<path d="M0 0 C0.33 0.66 0.66 1.32 1 2 C-0.76227632 5.61730402 -2.64326421 7.80075931 -6 10 C-6.66 9.67 -7.32 9.34 -8 9 C-5.36 6.03 -2.72 3.06 0 0 Z " fill="#C17929" transform="translate(806,927)"/>
<path d="M0 0 C0 0.33 0 0.66 0 1 C-4.29 1 -8.58 1 -13 1 C-7.93204226 -2.37863849 -5.70273745 -2.20333038 0 0 Z " fill="#FFE2A2" transform="translate(718,546)"/>
<path d="M0 0 C0.99 0 1.98 0 3 0 C2.125 4.75 2.125 4.75 1 7 C0.01 6.67 -0.98 6.34 -2 6 C-1.34 4.02 -0.68 2.04 0 0 Z " fill="#FBE6BD" transform="translate(835,953)"/>
<path d="M0 0 C0.598125 0.350625 1.19625 0.70125 1.8125 1.0625 C1.1525 1.0625 0.4925 1.0625 -0.1875 1.0625 C-0.5175 2.0525 -0.8475 3.0425 -1.1875 4.0625 C-3.6625 3.0725 -3.6625 3.0725 -6.1875 2.0625 C-4.66896708 -0.97456585 -3.05066334 -1.30742714 0 0 Z " fill="#C68234" transform="translate(207.1875,596.9375)"/>
<path d="M0 0 C1.485 0.99 1.485 0.99 3 2 C3.1875 4.625 3.1875 4.625 3 7 C2.01 7 1.02 7 0 7 C0 4.69 0 2.38 0 0 Z " fill="#FEE6BA" transform="translate(809,586)"/>
<path d="M0 0 C2.97 0 5.94 0 9 0 C5.09567131 1.95216435 2.27786748 2.50639991 -2 3 C-1.34 2.67 -0.68 2.34 0 2 C0 1.34 0 0.68 0 0 Z " fill="#FEEEC3" transform="translate(703,544)"/>
<path d="M0 0 C3.3 0.33 6.6 0.66 10 1 C10 1.33 10 1.66 10 2 C5.545 2.495 5.545 2.495 1 3 C0.67 2.01 0.34 1.02 0 0 Z " fill="#FDF7DC" transform="translate(489,985)"/>
<path d="M0 0 C2 3 2 3 1.625 5.6875 C1.41875 6.450625 1.2125 7.21375 1 8 C-1 6 -1 6 -1.1875 3.4375 C-1 1 -1 1 0 0 Z " fill="#FCEDC8" transform="translate(186,947)"/>
<path d="M0 0 C3.465 1.485 3.465 1.485 7 3 C7 3.66 7 4.32 7 5 C4.03 4.505 4.03 4.505 1 4 C0.67 2.68 0.34 1.36 0 0 Z " fill="#FEEDC0" transform="translate(456,561)"/>
<path d="M0 0 C1.32 0 2.64 0 4 0 C4 0.66 4 1.32 4 2 C5.98 2 7.96 2 10 2 C10 2.33 10 2.66 10 3 C7.03 3 4.06 3 1 3 C0.67 2.01 0.34 1.02 0 0 Z " fill="#FEE9C2" transform="translate(648,544)"/>
<path d="" fill="#FFFFFF" transform="translate(0,0)"/>
<path d="M0 0 C2 1 2 1 2 1 Z " fill="#FFFFFF" transform="translate(646,974)"/>
<path d="M0 0 C2 1 2 1 2 1 Z " fill="#FFFFFF" transform="translate(384,974)"/>
<path d="M0 0 C2 1 2 1 2 1 Z " fill="#FFFFFF" transform="translate(835,965)"/>
<path d="M0 0 C2 1 2 1 2 1 Z " fill="#FFFFFF" transform="translate(836,602)"/>
<path d="M0 0 C2 1 2 1 2 1 Z " fill="#FFFFFF" transform="translate(516,585)"/>
<path d="M0 0 C2 1 2 1 2 1 Z " fill="#FFFFFF" transform="translate(506,585)"/>
<path d="M0 0 C2 1 2 1 2 1 Z " fill="#FFFFFF" transform="translate(522,581)"/>
<path d="M0 0 C2 1 2 1 2 1 Z " fill="#FFFFFF" transform="translate(452,554)"/>
<path d="M0 0 C2 1 2 1 2 1 Z " fill="#FFFFFF" transform="translate(266,546)"/>
<path d="" fill="#FFFFFF" transform="translate(0,0)"/>
<path d="" fill="#FFFFFF" transform="translate(0,0)"/>
<path d="" fill="#FFFFFF" transform="translate(0,0)"/>
<path d="" fill="#FFFFFF" transform="translate(0,0)"/>
<path d="" fill="#FFFFFF" transform="translate(0,0)"/>
<path d="" fill="#FFFFFF" transform="translate(0,0)"/>
<path d="" fill="#FFFFFF" transform="translate(0,0)"/>
<path d="" fill="#FFFFFF" transform="translate(0,0)"/>
<path d="" fill="#FFFFFF" transform="translate(0,0)"/>
<path d="" fill="#FFFFFF" transform="translate(0,0)"/>
<path d="" fill="#FFFFFF" transform="translate(0,0)"/>
<path d="" fill="#FFFFFF" transform="translate(0,0)"/>
<path d="" fill="#FFFFFF" transform="translate(0,0)"/>
<path d="" fill="#FFFFFF" transform="translate(0,0)"/>
<path d="" fill="#FFFFFF" transform="translate(0,0)"/>
<path d="" fill="#FFFFFF" transform="translate(0,0)"/>
<path d="" fill="#FFFFFF" transform="translate(0,0)"/>
<path d="" fill="#FFFFFF" transform="translate(0,0)"/>
<path d="" fill="#FFFFFF" transform="translate(0,0)"/>
<path d="" fill="#FFFFFF" transform="translate(0,0)"/>
<path d="" fill="#FFFFFF" transform="translate(0,0)"/>
<path d="" fill="#FFFFFF" transform="translate(0,0)"/>
<path d="" fill="#FFFFFF" transform="translate(0,0)"/>
<path d="" fill="#FFFFFF" transform="translate(0,0)"/>
<path d="" fill="#FFFFFF" transform="translate(0,0)"/>
<path d="" fill="#FFFFFF" transform="translate(0,0)"/>
<path d="" fill="#FFFFFF" transform="translate(0,0)"/>
<path d="" fill="#FFFFFF" transform="translate(0,0)"/>
<path d="" fill="#FFFFFF" transform="translate(0,0)"/>
<path d="" fill="#FFFFFF" transform="translate(0,0)"/>
<path d="" fill="#FFFFFF" transform="translate(0,0)"/>
<path d="" fill="#FFFFFF" transform="translate(0,0)"/>
<path d="" fill="#FFFFFF" transform="translate(0,0)"/>
<path d="" fill="#FFFFFF" transform="translate(0,0)"/>
<path d="" fill="#FFFFFF" transform="translate(0,0)"/>
<path d="" fill="#FFFFFF" transform="translate(0,0)"/>
<path d="" fill="#FFFFFF" transform="translate(0,0)"/>
<path d="" fill="#FFFFFF" transform="translate(0,0)"/>
<path d="" fill="#FFFFFF" transform="translate(0,0)"/>
<path d="" fill="#FFFFFF" transform="translate(0,0)"/>
<path d="" fill="#FFFFFF" transform="translate(0,0)"/>
<path d="" fill="#FFFFFF" transform="translate(0,0)"/>
<path d="" fill="#FFFFFF" transform="translate(0,0)"/>
<path d="" fill="#FFFFFF" transform="translate(0,0)"/>
<path d="" fill="#FFFFFF" transform="translate(0,0)"/>
<path d="" fill="#FFFFFF" transform="translate(0,0)"/>
<path d="" fill="#FFFFFF" transform="translate(0,0)"/>
<path d="" fill="#FFFFFF" transform="translate(0,0)"/>
<path d="" fill="#FFFFFF" transform="translate(0,0)"/>
<path d="" fill="#FFFFFF" transform="translate(0,0)"/>
<path d="" fill="#FFFFFF" transform="translate(0,0)"/>
<path d="" fill="#FFFFFF" transform="translate(0,0)"/>
<path d="" fill="#FFFFFF" transform="translate(0,0)"/>
<path d="" fill="#FFFFFF" transform="translate(0,0)"/>
<path d="" fill="#FFFFFF" transform="translate(0,0)"/>
<path d="" fill="#FFFFFF" transform="translate(0,0)"/>
<path d="" fill="#FFFFFF" transform="translate(0,0)"/>
<path d="" fill="#FFFFFF" transform="translate(0,0)"/>
<path d="" fill="#FFFFFF" transform="translate(0,0)"/>
<path d="" fill="#FFFFFF" transform="translate(0,0)"/>
<path d="" fill="#FFFFFF" transform="translate(0,0)"/>
<path d="" fill="#FFFFFF" transform="translate(0,0)"/>
<path d="" fill="#FFFFFF" transform="translate(0,0)"/>
<path d="" fill="#FFFFFF" transform="translate(0,0)"/>
<path d="" fill="#FFFFFF" transform="translate(0,0)"/>
<path d="" fill="#FFFFFF" transform="translate(0,0)"/>
<path d="" fill="#FFFFFF" transform="translate(0,0)"/>
<path d="" fill="#FFFFFF" transform="translate(0,0)"/>
<path d="" fill="#FFFFFF" transform="translate(0,0)"/>
<path d="" fill="#FFFFFF" transform="translate(0,0)"/>
<path d="" fill="#FFFFFF" transform="translate(0,0)"/>
<path d="" fill="#FFFFFF" transform="translate(0,0)"/>
<path d="" fill="#FFFFFF" transform="translate(0,0)"/>
<path d="" fill="#FFFFFF" transform="translate(0,0)"/>
<path d="" fill="#FFFFFF" transform="translate(0,0)"/>
<path d="" fill="#FFFFFF" transform="translate(0,0)"/>
<path d="" fill="#FFFFFF" transform="translate(0,0)"/>
<path d="" fill="#FFFFFF" transform="translate(0,0)"/>
<path d="" fill="#FFFFFF" transform="translate(0,0)"/>
<path d="" fill="#FFFFFF" transform="translate(0,0)"/>
<path d="" fill="#FFFFFF" transform="translate(0,0)"/>
<path d="" fill="#FFFFFF" transform="translate(0,0)"/>
<path d="" fill="#FFFFFF" transform="translate(0,0)"/>
<path d="" fill="#FFFFFF" transform="translate(0,0)"/>
<path d="" fill="#FFFFFF" transform="translate(0,0)"/>
<path d="" fill="#FFFFFF" transform="translate(0,0)"/>
</svg>
