<?xml version="1.0" encoding="UTF-8"?>
<svg version="1.1" xmlns="http://www.w3.org/2000/svg" width="1024" height="1536">
<path d="M0 0 C0.87541443 0.00086609 1.75082886 0.00173218 2.652771 0.00262451 C18.76428969 0.0437783 34.8034272 0.82334762 50.75 3.25 C50.75 3.91 50.75 4.57 50.75 5.25 C51.36101562 5.25257813 51.97203125 5.25515625 52.6015625 5.2578125 C78.4186324 6.34867461 104.65410269 18.6671919 126.75 31.25 C126.75 31.91 126.75 32.57 126.75 33.25 C127.471875 33.3325 128.19375 33.415 128.9375 33.5 C132.34529213 34.40874457 134.0240755 36.03291474 136.75 38.25 C138.40378778 39.29156827 140.0711437 40.31184022 141.75 41.3125 C148.64921276 45.64888272 154.66377116 50.86331578 160.75 56.25 C161.72066406 57.10851562 162.69132812 57.96703125 163.69140625 58.8515625 C170.2222 64.6884 170.2222 64.6884 172.3359375 66.9375 C173.83124172 68.5068639 173.83124172 68.5068639 176.75 69.25 C178.1226682 71.22321053 179.45427617 73.22543152 180.75 75.25 C181.61625 76.11625 181.61625 76.11625 182.5 77 C183.75 78.25 183.75 78.25 183.75 80.25 C184.925625 80.62125 184.925625 80.62125 186.125 81 C189.2809234 82.50282066 189.25248599 83.22344536 190.75 86.25 C192.19620713 88.02733479 193.68066332 89.7737679 195.1875 91.5 C214.75 114.37067727 214.75 114.37067727 214.75 121.25 C215.41 121.58 216.07 121.91 216.75 122.25 C218.75 125.25 218.75 125.25 219.75 128.875 C220.08 129.98875 220.41 131.1025 220.75 132.25 C221.41 132.58 222.07 132.91 222.75 133.25 C223.49104273 134.90050426 224.22297926 136.55596361 224.8984375 138.234375 C225.74834559 140.24608406 226.72389765 142.13562077 227.75 144.0625 C229.66519922 147.82760756 230.82732384 151.62266192 231.96875 155.6796875 C232.75874059 158.27875653 233.7116656 160.74069188 234.75 163.25 C236.77034093 168.16205028 238.30880529 173.14246929 239.75 178.25 C240.07613281 179.3225 240.40226562 180.395 240.73828125 181.5 C241.86195263 185.66495957 242.61541011 189.80988283 243.3125 194.0625 C244.02277794 199.30735251 244.02277794 199.30735251 245.75 204.25 C247.30087019 215.2492859 246.902985 226.53203939 246.88037109 237.609375 C246.87496429 240.77088104 246.88036839 243.93224801 246.88671875 247.09375 C246.88605871 249.11458365 246.8847791 251.1354172 246.8828125 253.15625 C246.88483673 254.09585571 246.88686096 255.03546143 246.88894653 256.00354004 C246.87379683 260.22629043 246.77808657 264.12960328 245.75 268.25 C245.53507245 269.60905802 245.33043303 270.96978776 245.13671875 272.33203125 C243.14862899 285.87230155 240.69795408 299.43030078 235.75 312.25 C235.09 312.58 234.43 312.91 233.75 313.25 C232.9057371 315.62164551 232.9057371 315.62164551 232.25 318.4375 C231.99347656 319.42878906 231.73695313 320.42007812 231.47265625 321.44140625 C231.11494141 322.83166016 231.11494141 322.83166016 230.75 324.25 C229.6875 327.875 229.6875 327.875 228.75 330.25 C228.09 330.58 227.43 330.91 226.75 331.25 C226.06384516 333.2433981 225.40129507 335.2449416 224.75 337.25 C223.62606705 339.58050803 222.47923672 341.85236966 221.25 344.125 C220.90324219 344.76920898 220.55648438 345.41341797 220.19921875 346.07714844 C214.00178905 357.42632844 207.2310196 369.43862438 198.75 379.25 C198.09 379.25 197.43 379.25 196.75 379.25 C196.75 380.57 196.75 381.89 196.75 383.25 C195.125 385.0625 195.125 385.0625 192.75 387.25 C189.95144526 390.30429734 187.31004768 393.30911989 185.1875 396.875 C183.75 399.25 183.75 399.25 181.49609375 401.44140625 C178.39774878 404.61026832 175.90697037 407.9375617 173.375 411.5625 C172.86606201 412.28816162 172.35712402 413.01382324 171.83276367 413.76147461 C161.69605646 428.40101708 152.07332868 443.63273858 143.73974609 459.37988281 C143.07461085 460.63665044 142.40028003 461.88859032 141.71728516 463.13574219 C128.27555107 487.90180639 126.05626013 515.69579772 123.75 543.25 C124.41 543.58 125.07 543.91 125.75 544.25 C125.09 544.58 124.43 544.91 123.75 545.25 C123.04981024 547.12458445 123.04981024 547.12458445 122.56640625 549.40625 C122.36080078 550.26476562 122.15519531 551.12328125 121.94335938 552.0078125 C121.73517578 552.91273438 121.52699219 553.81765625 121.3125 554.75 C119.91261688 560.73814355 118.40995432 566.56959614 116.31616211 572.35742188 C115.60670027 574.39978405 115.60670027 574.39978405 115.75 577.25 C115.09 577.25 114.43 577.25 113.75 577.25 C113.55664062 577.86488281 113.36328125 578.47976563 113.1640625 579.11328125 C112.77347656 580.32564453 112.77347656 580.32564453 112.375 581.5625 C112.11976563 582.36300781 111.86453125 583.16351562 111.6015625 583.98828125 C110.75 586.25 110.75 586.25 108.75 589.25 C108.75 590.24 108.75 591.23 108.75 592.25 C109.6471875 593.1471875 109.6471875 593.1471875 110.5625 594.0625 C114.2829111 597.7829111 115.75 601.00068723 115.75 606.25 C116.41 606.58 117.07 606.91 117.75 607.25 C117.07700359 617.4273538 115.78640501 625.3664938 108.75 633.25 C102.67778993 638.25 102.67778993 638.25 98.75 638.25 C98.83754551 640.00091019 98.94573373 641.75079551 99.0625 643.5 C99.12050781 644.47453125 99.17851563 645.4490625 99.23828125 646.453125 C99.80778303 649.56582174 100.88607296 650.76640328 102.75 653.25 C103.77051496 659.78329677 103.01512959 665.53602321 99.75 671.25 C98.72712891 672.12785156 98.72712891 672.12785156 97.68359375 673.0234375 C95.08308728 676.0179601 95.18766005 678.01437976 95.0625 681.9375 C94.89732949 686.12326847 94.65434413 690.12463232 93.9375 694.25 C93.50619131 697.75928434 93.77148079 698.29073943 95.5625 701.6875 C97.65900025 704.21146857 97.65900025 704.21146857 99.75 706.25 C99.42 706.58 99.09 706.91 98.75 707.25 C98.8428125 708.7040625 98.8428125 708.7040625 98.9375 710.1875 C99.00101443 715.31099703 97.16306407 719.7909075 94.75 724.25 C92.25 726.625 92.25 726.625 89.75 728.25 C86.22861204 731.26833253 84.969794 733.77742201 83.75 738.25 C83.09 738.25 82.43 738.25 81.75 738.25 C81.09 740.56 80.43 742.87 79.75 745.25 C79.09 745.25 78.43 745.25 77.75 745.25 C77.440625 745.86875 77.13125 746.4875 76.8125 747.125 C76.125 748.5 75.4375 749.875 74.75 751.25 C74.09 751.25 73.43 751.25 72.75 751.25 C72.52570313 751.9615625 72.30140625 752.673125 72.0703125 753.40625 C68.58437934 760.91441374 60.51752109 767.27098511 53.40234375 771.2578125 C51.17794908 772.59350102 49.5403093 774.39083265 47.75 776.25 C47.09 776.25 46.43 776.25 45.75 776.25 C45.54375 776.930625 45.3375 777.61125 45.125 778.3125 C43.33038906 782.14644155 40.93575938 785.43712848 37.75 788.25 C36.76 788.25 35.77 788.25 34.75 788.25 C34.42 789.24 34.09 790.23 33.75 791.25 C31.59226075 792.58080346 29.52072822 793.71261602 27.25 794.8125 C26.36828125 795.26786133 26.36828125 795.26786133 25.46875 795.73242188 C10.69010261 803.04211924 -8.32703939 802.00621582 -23.81640625 797.51953125 C-31.19675797 794.79073226 -36.95894314 791.02206203 -42.25 785.25 C-43.24 784.59 -44.23 783.93 -45.25 783.25 C-45.25 782.26 -45.25 781.27 -45.25 780.25 C-45.91 779.92 -46.57 779.59 -47.25 779.25 C-47.4975 778.63125 -47.745 778.0125 -48 777.375 C-49.78236371 774.34498169 -52.09453459 773.76929816 -55.25 772.25 C-57.35445739 770.7740951 -59.38661988 769.22693962 -61.41796875 767.65234375 C-62.98220415 766.45498659 -64.61094612 765.34270259 -66.25 764.25 C-66.25 763.59 -66.25 762.93 -66.25 762.25 C-66.8275 762.00765625 -67.405 761.7653125 -68 761.515625 C-70.6644231 760.01688701 -72.24493514 758.30269167 -74.25 756 C-74.94867188 755.20207031 -75.64734375 754.40414062 -76.3671875 753.58203125 C-77.92049983 751.65811535 -79.15990407 749.82668149 -80.375 747.6875 C-80.99375 746.883125 -81.6125 746.07875 -82.25 745.25 C-85.41926564 744.74830585 -85.41926564 744.74830585 -88.25 745.25 C-88.25 744.59 -88.25 743.93 -88.25 743.25 C-89.1575 743.188125 -90.065 743.12625 -91 743.0625 C-95.18155986 742.01711003 -96.03459873 740.91687107 -98.25 737.25 C-101.22807574 730.90005337 -101.4490628 726.1173597 -100.25 719.25 C-99.59 719.25 -98.93 719.25 -98.25 719.25 C-98.25 717.93 -98.25 716.61 -98.25 715.25 C-97.26 714.92 -96.27 714.59 -95.25 714.25 C-92.67118673 709.09237346 -94.11220302 701.60393063 -95.41796875 696.18359375 C-96.77715127 693.02493015 -99.35015476 691.90705442 -102.25 690.25 C-105.48515234 686.20605958 -106.9348011 681.38208461 -107.25 676.25 C-105.8403804 667.63011376 -105.8403804 667.63011376 -102.625 664.83984375 C-100.96409406 663.24828492 -100.96409406 663.24828492 -101.10546875 660.46484375 C-101.451104 657.05322048 -101.81042093 653.65095384 -102.25 650.25 C-102.37632812 649.25742188 -102.50265625 648.26484375 -102.6328125 647.2421875 C-103.16306306 643.66818844 -103.16306306 643.66818844 -104.25 640.25 C-106.23803975 638.94501277 -106.23803975 638.94501277 -108.25 638.25 C-108.25 637.59 -108.25 636.93 -108.25 636.25 C-108.85457031 636.01023437 -109.45914063 635.77046875 -110.08203125 635.5234375 C-112.72481545 633.9710994 -113.51937489 632.56809563 -114.9375 629.875 C-115.35386719 629.10414063 -115.77023437 628.33328125 -116.19921875 627.5390625 C-119.61924588 620.08874318 -119.36728409 610.06525153 -117.53125 602.15234375 C-115.6544869 597.13502949 -113.33947737 593.80138824 -109.25 590.25 C-108.59 589.26 -107.93 588.27 -107.25 587.25 C-107.91 586.92 -108.57 586.59 -109.25 586.25 C-109.91666667 584.58333333 -110.58333333 582.91666667 -111.25 581.25 C-111.91 580.92 -112.57 580.59 -113.25 580.25 C-121.65292335 564.520851 -125.31045473 548.21038524 -126.0390625 530.515625 C-126.11150063 527.24146648 -126.11150063 527.24146648 -127.25 524.25 C-127.52494424 520.57098418 -127.69561736 516.89203553 -127.87109375 513.20703125 C-128.27060613 509.03480399 -129.16092527 505.27852884 -130.25 501.25 C-130.53359375 500.0228125 -130.8171875 498.795625 -131.109375 497.53125 C-135.53011092 478.76251155 -142.98648479 461.72886809 -153.08203125 445.26171875 C-154.25 443.25 -154.25 443.25 -154.25 441.25 C-154.91 441.25 -155.57 441.25 -156.25 441.25 C-156.57871094 440.61835937 -156.90742188 439.98671875 -157.24609375 439.3359375 C-160.62237607 432.98596478 -164.29548746 426.92494849 -168.26538086 420.93505859 C-169.94715036 418.37876895 -171.27688402 416.16934795 -172.25 413.25 C-172.91 413.25 -173.57 413.25 -174.25 413.25 C-175.62915676 411.59501189 -176.92650388 409.87169626 -178.1875 408.125 C-179.00114134 407.01325086 -179.81630871 405.90261732 -180.6328125 404.79296875 C-181.06110352 404.20950684 -181.48939453 403.62604492 -181.93066406 403.02490234 C-184.08901408 400.12127455 -186.3222273 397.27813354 -188.5625 394.4375 C-189.01560547 393.86177246 -189.46871094 393.28604492 -189.93554688 392.69287109 C-192.43269281 389.52790405 -194.94761787 386.37789564 -197.4765625 383.23828125 C-198.01240967 382.57223877 -198.54825684 381.90619629 -199.1003418 381.2199707 C-200.1280279 379.94441322 -201.15799476 378.67068853 -202.19067383 377.39916992 C-205.09127247 373.80151668 -207.69205636 370.10374404 -210.25 366.25 C-210.930625 365.610625 -211.61125 364.97125 -212.3125 364.3125 C-214.38613879 362.10507806 -215.2246849 360.00831594 -216.36889648 357.24047852 C-217.91256602 353.75321398 -219.84683474 350.48820411 -221.75 347.1875 C-229.25 334.10581683 -229.25 334.10581683 -229.25 331.25 C-229.91 330.92 -230.57 330.59 -231.25 330.25 C-231.99609375 328.4296875 -231.99609375 328.4296875 -232.6875 326.125 C-233.61928624 323.14990586 -234.60812855 320.2864158 -235.875 317.4375 C-236.94815134 314.94974007 -237.60252525 312.83989899 -238.25 310.25 C-238.91128906 308.89261719 -238.91128906 308.89261719 -239.5859375 307.5078125 C-242.11709881 301.65620302 -243.11476707 295.3438379 -244.375 289.125 C-244.63925781 287.88234375 -244.90351563 286.6396875 -245.17578125 285.359375 C-246.66495049 278.11762816 -247.64984105 271.05421686 -248.03466797 263.66845703 C-247.9847581 261.30137191 -247.9847581 261.30137191 -249.25 260.25 C-249.25 257.91666667 -249.25 255.58333333 -249.25 253.25 C-249.49339111 252.31716187 -249.49339111 252.31716187 -249.74169922 251.36547852 C-250.36620972 248.76635098 -250.37968985 246.38760757 -250.3828125 243.71484375 C-250.38410156 242.65845703 -250.38539063 241.60207031 -250.38671875 240.51367188 C-250.38285156 239.41603516 -250.37898438 238.31839844 -250.375 237.1875 C-250.37886719 236.08599609 -250.38273437 234.98449219 -250.38671875 233.84960938 C-250.38542969 232.79451172 -250.38414062 231.73941406 -250.3828125 230.65234375 C-250.38168457 229.68804443 -250.38055664 228.72374512 -250.37939453 227.73022461 C-250.25 225.25 -250.25 225.25 -249.25 222.25 C-249.20711723 220.89651249 -249.20951966 219.54106149 -249.25 218.1875 C-249.25 214.25 -249.25 214.25 -248.25 212.25 C-248.14088773 210.68908834 -248.06390602 209.12591508 -248 207.5625 C-247.51596914 201.12176675 -246.2509803 194.93056611 -244.875 188.625 C-244.66584961 187.65989502 -244.45669922 186.69479004 -244.24121094 185.70043945 C-242.84710723 179.45730251 -241.16817299 173.35126561 -239.25 167.25 C-239.00918701 166.46939209 -238.76837402 165.68878418 -238.52026367 164.88452148 C-236.91262992 159.7222106 -234.78473155 154.89585332 -232.5 150 C-231.34671101 147.46276422 -230.31271611 144.91306188 -229.3125 142.3125 C-226.10453136 134.16919499 -222.22121821 126.44969533 -217.25 119.25 C-216.79625 118.30125 -216.3425 117.3525 -215.875 116.375 C-214.54502852 113.81736254 -213.24562828 111.81502545 -211.51171875 109.546875 C-209.43951136 106.81867665 -207.38239339 104.0823444 -205.35546875 101.3203125 C-198.84504117 92.49692638 -192.19138553 84.09860944 -184.375 76.375 C-181.28068236 73.28068236 -179.09088199 70.2149766 -177.25 66.25 C-176.59 66.25 -175.93 66.25 -175.25 66.25 C-174.92 65.59 -174.59 64.93 -174.25 64.25 C-172.58408249 63.24875246 -170.91730503 62.24893529 -169.25 61.25 C-167.82469207 59.99093258 -166.4307266 58.6958745 -165.0625 57.375 C-155.96089493 49.01470213 -145.55842362 42.03587058 -135.25 35.25 C-134.26 34.59 -133.27 33.93 -132.25 33.25 C-131.26 33.25 -130.27 33.25 -129.25 33.25 C-128.92 32.26 -128.59 31.27 -128.25 30.25 C-126.60067047 29.47752921 -124.94285332 28.71802939 -123.24707031 28.05371094 C-121.273732 27.25955082 -119.41275861 26.35868103 -117.5234375 25.3828125 C-101.77269951 17.26861351 -84.87587243 10.10537167 -67.19140625 7.70703125 C-66.55074219 7.55621094 -65.91007813 7.40539062 -65.25 7.25 C-64.92 6.59 -64.59 5.93 -64.25 5.25 C-62.27 5.58 -60.29 5.91 -58.25 6.25 C-57.92 5.59 -57.59 4.93 -57.25 4.25 C-56.26 4.58 -55.27 4.91 -54.25 5.25 C-52.61683359 4.796107 -50.98538792 4.33452281 -49.36621094 3.83300781 C-33.58062925 -0.51585802 -16.24264108 -0.03029867 0 0 Z " fill="#FED371" transform="translate(513.25,398.75)"/>
<path d="M0 0 C0.77802939 -0.00297112 1.55605878 -0.00594224 2.35766482 -0.0090034 C4.95523077 -0.01764971 7.55275041 -0.01919519 10.15032959 -0.02069092 C12.01673988 -0.02532195 13.88314924 -0.03034699 15.7495575 -0.03573608 C20.81376136 -0.04883405 25.87795199 -0.05529989 30.94217014 -0.05974674 C34.10855092 -0.06268149 37.2749281 -0.06678705 40.44130707 -0.07125092 C50.35543019 -0.0849186 60.26954507 -0.09458899 70.18367696 -0.09845281 C81.61479133 -0.10293278 93.04578609 -0.120481 104.4768641 -0.1494534 C113.32208126 -0.17109115 122.16726482 -0.1811582 131.01250815 -0.18249393 C136.29116402 -0.18354039 141.56970734 -0.18941459 146.84833527 -0.20731354 C151.81584095 -0.22383053 156.78314988 -0.22593211 161.75067329 -0.21717453 C163.5686731 -0.21640612 165.38668365 -0.22072094 167.2046566 -0.23063278 C190.35302172 -0.34938927 190.35302172 -0.34938927 198.69232178 7.59747314 C203.92107822 13.35056171 204.53179819 19.71148475 204.43060303 27.23028564 C203.51937713 35.12404485 199.15291222 40.97298347 193.09857178 45.86700439 C190.47897317 47.53170059 188.18321956 48.06322804 185.09466553 48.14044189 C185.42466553 48.80044189 185.75466553 49.46044189 186.09466553 50.14044189 C186.24845385 51.90900765 186.36893489 53.68056241 186.46966553 55.45294189 C186.82585015 59.95488196 187.76535171 62.29201038 190.09466553 66.14044189 C190.91837791 71.84224319 190.2522121 76.22870278 187.09466553 81.14044189 C186.33367554 81.78565796 186.33367554 81.78565796 185.55731201 82.44390869 C182.33838262 86.1775659 182.69849701 92.22462944 182.15716553 96.95294189 C181.99409912 98.12921143 181.83103271 99.30548096 181.6630249 100.51739502 C180.73668279 107.30594226 180.73668279 107.30594226 182.99700928 113.56231689 C184.03534912 114.83848877 184.03534912 114.83848877 185.09466553 116.14044189 C186.04043931 121.8081304 186.12060113 128.04153939 183.46966553 133.26544189 C181.09466553 136.14044189 181.09466553 136.14044189 178.18450928 137.35528564 C174.19041 139.66287524 173.03015725 142.50625549 171.28216553 146.57794189 C164.21108196 161.74002614 153.70880667 175.14906675 138.52825928 182.62091064 C135.0783281 184.77504102 133.50700203 187.4596627 131.46575928 190.90606689 C126.07005555 199.69906556 116.65141674 204.85441182 107.09466553 208.14044189 C90.78548338 211.23185431 71.94761721 210.42667919 57.49310303 201.80059814 C52.18887095 198.129102 48.61889796 194.10610771 45.34466553 188.57794189 C42.3671376 183.89109238 38.97663947 182.26074827 34.09466553 179.83966064 C25.64864143 175.05577981 19.4967231 168.13827235 14.40716553 160.01544189 C11.83169005 155.73766778 11.83169005 155.73766778 7.75091553 153.27325439 C5.42610393 153.10500461 5.42610393 153.10500461 3.17279053 153.22247314 C-0.64312602 153.07184486 -2.35098634 150.81939237 -4.90533447 148.14044189 C-7.81656185 143.47450212 -7.42727296 138.46263281 -6.90533447 133.14044189 C-5.65375304 130.27968433 -4.70844142 128.77325146 -2.28424072 126.86309814 C-0.65345496 125.17363546 -0.65345496 125.17363546 -0.79595947 122.57403564 C-0.91455322 121.58532471 -1.03314697 120.59661377 -1.15533447 119.57794189 C-1.27263916 118.51962158 -1.38994385 117.46130127 -1.51080322 116.37091064 C-1.64099854 115.30485596 -1.77119385 114.23880127 -1.90533447 113.14044189 C-2.09671424 111.22415874 -2.28460433 109.30752146 -2.46783447 107.39044189 C-2.61263046 105.97366883 -2.75804191 104.55695759 -2.90533447 103.14044189 C-4.01908447 102.76919189 -4.01908447 102.76919189 -5.15533447 102.39044189 C-8.15374446 101.02752826 -9.78492992 99.63949012 -11.90533447 97.14044189 C-13.55768501 92.18339029 -14.13364772 86.02697803 -12.04595947 81.12091064 C-10.82536294 79.3032832 -9.45446982 77.68957724 -7.90533447 76.14044189 C-7.99219786 71.45650087 -8.46691465 66.80277746 -8.90533447 62.14044189 C-8.99427979 60.99962158 -9.0832251 59.85880127 -9.17486572 58.68341064 C-9.57394222 53.1824248 -9.57394222 53.1824248 -12.41705322 48.75372314 C-14.20695559 47.80251143 -14.20695559 47.80251143 -16.09283447 47.05059814 C-20.25669165 44.95969573 -22.32661295 40.55689318 -24.02252197 36.40606689 C-25.03776381 32.65057054 -25.24935003 29.12678316 -25.21783447 25.26544189 C-25.21291992 24.55726318 -25.20800537 23.84908447 -25.20294189 23.1194458 C-25.01273925 14.65103887 -22.71783493 9.24356738 -16.90533447 3.14044189 C-11.70832446 -0.32423145 -6.08015942 -0.00732863 0 0 Z " fill="#C97E2F" transform="translate(422.90533447265625,986.8595581054688)"/>
<path d="M0 0 C0.77802939 -0.00297112 1.55605878 -0.00594224 2.35766482 -0.0090034 C4.95523077 -0.01764971 7.55275041 -0.01919519 10.15032959 -0.02069092 C12.01673988 -0.02532195 13.88314924 -0.03034699 15.7495575 -0.03573608 C20.81376136 -0.04883405 25.87795199 -0.05529989 30.94217014 -0.05974674 C34.10855092 -0.06268149 37.2749281 -0.06678705 40.44130707 -0.07125092 C50.35543019 -0.0849186 60.26954507 -0.09458899 70.18367696 -0.09845281 C81.61479133 -0.10293278 93.04578609 -0.120481 104.4768641 -0.1494534 C113.32208126 -0.17109115 122.16726482 -0.1811582 131.01250815 -0.18249393 C136.29116402 -0.18354039 141.56970734 -0.18941459 146.84833527 -0.20731354 C151.81584095 -0.22383053 156.78314988 -0.22593211 161.75067329 -0.21717453 C163.5686731 -0.21640612 165.38668365 -0.22072094 167.2046566 -0.23063278 C190.35302172 -0.34938927 190.35302172 -0.34938927 198.69232178 7.59747314 C203.92107822 13.35056171 204.53179819 19.71148475 204.43060303 27.23028564 C203.50398368 35.25739511 199.07672703 40.799103 193.05950928 45.86309814 C190.99949295 47.20231353 189.52467149 47.82263427 187.09466553 48.14044189 C186.10466553 47.81044189 185.11466553 47.48044189 184.09466553 47.14044189 C184.09466553 47.80044189 184.09466553 48.46044189 184.09466553 49.14044189 C158.79088175 49.36448063 133.4870058 49.56541621 108.18282223 49.73884201 C96.43367549 49.81990524 84.68467664 49.90853051 72.93572998 50.01495361 C62.69546728 50.10769173 52.45521086 50.18624597 42.21471125 50.24776292 C36.79231496 50.28083196 31.37018118 50.32100635 25.94798088 50.3781662 C20.84355969 50.43175199 15.73936022 50.46635929 10.63470078 50.48647118 C8.7621829 50.49718342 6.88968969 50.51480435 5.01730919 50.53988838 C2.45771223 50.57313938 -0.10081355 50.58137158 -2.66059875 50.58349609 C-3.39894378 50.59903841 -4.13728881 50.61458072 -4.89800793 50.63059402 C-10.96607362 50.59137042 -15.30408114 48.74764775 -19.61236572 44.42950439 C-19.97717041 43.88036377 -20.3419751 43.33122314 -20.71783447 42.76544189 C-21.28437744 41.94946533 -21.28437744 41.94946533 -21.86236572 41.11700439 C-24.59393341 35.94032556 -25.26505005 31.05037669 -25.21783447 25.26544189 C-25.21291992 24.55726318 -25.20800537 23.84908447 -25.20294189 23.1194458 C-25.01273925 14.65103887 -22.71783493 9.24356738 -16.90533447 3.14044189 C-11.70832446 -0.32423145 -6.08015942 -0.00732863 0 0 Z " fill="#C97F2F" transform="translate(422.90533447265625,986.8595581054688)"/>
<path d="M0 0 C-4.20490598 16.25896979 -16.81195428 31.02683376 -30 41 C-31.37563117 41.68781558 -32.7714964 42.33717908 -34.1875 42.9375 C-38.47683354 44.85328929 -40.1210908 47.7770465 -42.5234375 51.6953125 C-48.14319845 60.46689705 -57.299591 65.66457408 -67 69 C-83.30918215 72.09141241 -102.14704831 71.2862373 -116.6015625 62.66015625 C-121.90579458 58.9886601 -125.47576756 54.96566581 -128.75 49.4375 C-131.72752793 44.75065049 -135.11802605 43.12030637 -140 40.69921875 C-150.36545302 34.82816138 -158.07617199 25.15727076 -164 15 C-164 14.34 -164 13.68 -164 13 C-144.4275161 9.85794304 -124.73192019 8.54358301 -104.97821045 7.12921143 C-100.56389023 6.81174423 -96.150135 6.48662204 -91.73632812 6.16210938 C-84.93497304 5.66300546 -78.13339847 5.16704232 -71.33154297 4.67480469 C-70.53404821 4.61709019 -69.73655346 4.55937569 -68.9148922 4.49991226 C-65.20608515 4.23162694 -61.49725109 3.96371949 -57.78839111 3.69616699 C-54.0762607 3.4279005 -50.36428684 3.15756278 -46.65234375 2.88671875 C-45.08810417 2.77468361 -45.08810417 2.77468361 -43.49226379 2.66038513 C-37.06257432 2.1895117 -30.65829116 1.57754852 -24.25 0.875 C-16.1285113 0.01110517 -8.16666708 -0.22272728 0 0 Z " fill="#B36A24" transform="translate(597,1126)"/>
<path d="M0 0 C0.87541443 0.00086609 1.75082886 0.00173218 2.652771 0.00262451 C18.76428969 0.0437783 34.8034272 0.82334762 50.75 3.25 C50.75 3.91 50.75 4.57 50.75 5.25 C51.36101562 5.25257813 51.97203125 5.25515625 52.6015625 5.2578125 C78.4186324 6.34867461 104.65410269 18.6671919 126.75 31.25 C126.75 31.91 126.75 32.57 126.75 33.25 C127.471875 33.3325 128.19375 33.415 128.9375 33.5 C132.34529213 34.40874457 134.0240755 36.03291474 136.75 38.25 C138.40378778 39.29156827 140.0711437 40.31184022 141.75 41.3125 C148.64921276 45.64888272 154.66377116 50.86331578 160.75 56.25 C161.72066406 57.10851562 162.69132812 57.96703125 163.69140625 58.8515625 C170.2222 64.6884 170.2222 64.6884 172.3359375 66.9375 C173.83124172 68.5068639 173.83124172 68.5068639 176.75 69.25 C178.1226682 71.22321053 179.45427617 73.22543152 180.75 75.25 C181.61625 76.11625 181.61625 76.11625 182.5 77 C183.75 78.25 183.75 78.25 183.75 80.25 C184.925625 80.62125 184.925625 80.62125 186.125 81 C189.2809234 82.50282066 189.25248599 83.22344536 190.75 86.25 C192.19620713 88.02733479 193.68066332 89.7737679 195.1875 91.5 C214.75 114.37067727 214.75 114.37067727 214.75 121.25 C215.41 121.58 216.07 121.91 216.75 122.25 C218.75 125.25 218.75 125.25 219.75 128.875 C220.08 129.98875 220.41 131.1025 220.75 132.25 C221.41 132.58 222.07 132.91 222.75 133.25 C223.49104273 134.90050426 224.22297926 136.55596361 224.8984375 138.234375 C225.74834559 140.24608406 226.72389765 142.13562077 227.75 144.0625 C229.66519922 147.82760756 230.82732384 151.62266192 231.96875 155.6796875 C232.75874059 158.27875653 233.7116656 160.74069188 234.75 163.25 C236.77034093 168.16205028 238.30880529 173.14246929 239.75 178.25 C240.07613281 179.3225 240.40226562 180.395 240.73828125 181.5 C241.86195263 185.66495957 242.61541011 189.80988283 243.3125 194.0625 C244.02277794 199.30735251 244.02277794 199.30735251 245.75 204.25 C247.30087019 215.2492859 246.902985 226.53203939 246.88037109 237.609375 C246.87496429 240.77088104 246.88036839 243.93224801 246.88671875 247.09375 C246.88605871 249.11458365 246.8847791 251.1354172 246.8828125 253.15625 C246.88483673 254.09585571 246.88686096 255.03546143 246.88894653 256.00354004 C246.87379683 260.22629043 246.77808657 264.12960328 245.75 268.25 C245.53507245 269.60905802 245.33043303 270.96978776 245.13671875 272.33203125 C243.14862899 285.87230155 240.69795408 299.43030078 235.75 312.25 C235.09 312.58 234.43 312.91 233.75 313.25 C232.9057371 315.62164551 232.9057371 315.62164551 232.25 318.4375 C231.99347656 319.42878906 231.73695313 320.42007812 231.47265625 321.44140625 C231.11494141 322.83166016 231.11494141 322.83166016 230.75 324.25 C229.6875 327.875 229.6875 327.875 228.75 330.25 C228.09 330.58 227.43 330.91 226.75 331.25 C226.06384516 333.2433981 225.40129507 335.2449416 224.75 337.25 C223.62606705 339.58050803 222.47923672 341.85236966 221.25 344.125 C220.90324219 344.76920898 220.55648438 345.41341797 220.19921875 346.07714844 C214.00178905 357.42632844 207.2310196 369.43862438 198.75 379.25 C198.09 379.25 197.43 379.25 196.75 379.25 C196.75 380.57 196.75 381.89 196.75 383.25 C195.125 385.0625 195.125 385.0625 192.75 387.25 C189.95144526 390.30429734 187.31004768 393.30911989 185.1875 396.875 C183.75 399.25 183.75 399.25 181.49609375 401.44140625 C178.39774878 404.61026832 175.90697037 407.9375617 173.375 411.5625 C172.86606201 412.28816162 172.35712402 413.01382324 171.83276367 413.76147461 C161.69605646 428.40101708 152.07332868 443.63273858 143.73974609 459.37988281 C143.07461085 460.63665044 142.40028003 461.88859032 141.71728516 463.13574219 C128.27555107 487.90180639 126.05626013 515.69579772 123.75 543.25 C124.41 543.58 125.07 543.91 125.75 544.25 C125.09 544.58 124.43 544.91 123.75 545.25 C123.04981024 547.12458445 123.04981024 547.12458445 122.56640625 549.40625 C122.36080078 550.26476562 122.15519531 551.12328125 121.94335938 552.0078125 C121.73517578 552.91273438 121.52699219 553.81765625 121.3125 554.75 C119.91261688 560.73814355 118.40995432 566.56959614 116.31616211 572.35742188 C115.60670027 574.39978405 115.60670027 574.39978405 115.75 577.25 C115.09 577.25 114.43 577.25 113.75 577.25 C113.55664062 577.86488281 113.36328125 578.47976563 113.1640625 579.11328125 C112.77347656 580.32564453 112.77347656 580.32564453 112.375 581.5625 C112.11976563 582.36300781 111.86453125 583.16351562 111.6015625 583.98828125 C110.75 586.25 110.75 586.25 108.75 589.25 C108.75 590.24 108.75 591.23 108.75 592.25 C109.6471875 593.1471875 109.6471875 593.1471875 110.5625 594.0625 C114.2829111 597.7829111 115.75 601.00068723 115.75 606.25 C116.41 606.58 117.07 606.91 117.75 607.25 C117.07700359 617.4273538 115.78640501 625.3664938 108.75 633.25 C102.67778993 638.25 102.67778993 638.25 98.75 638.25 C98.83754551 640.00091019 98.94573373 641.75079551 99.0625 643.5 C99.12050781 644.47453125 99.17851563 645.4490625 99.23828125 646.453125 C99.80778303 649.56582174 100.88607296 650.76640328 102.75 653.25 C103.77051496 659.78329677 103.01512959 665.53602321 99.75 671.25 C98.72712891 672.12785156 98.72712891 672.12785156 97.68359375 673.0234375 C95.08308728 676.0179601 95.18766005 678.01437976 95.0625 681.9375 C94.89732949 686.12326847 94.65434413 690.12463232 93.9375 694.25 C93.50619131 697.75928434 93.77148079 698.29073943 95.5625 701.6875 C97.65900025 704.21146857 97.65900025 704.21146857 99.75 706.25 C99.42 706.58 99.09 706.91 98.75 707.25 C98.8428125 708.7040625 98.8428125 708.7040625 98.9375 710.1875 C99.00101443 715.31099703 97.16306407 719.7909075 94.75 724.25 C92.25 726.625 92.25 726.625 89.75 728.25 C86.22861204 731.26833253 84.969794 733.77742201 83.75 738.25 C83.09 738.25 82.43 738.25 81.75 738.25 C81.09 740.56 80.43 742.87 79.75 745.25 C79.09 745.25 78.43 745.25 77.75 745.25 C77.440625 745.86875 77.13125 746.4875 76.8125 747.125 C76.125 748.5 75.4375 749.875 74.75 751.25 C74.09 751.25 73.43 751.25 72.75 751.25 C72.52570313 751.9615625 72.30140625 752.673125 72.0703125 753.40625 C68.58437934 760.91441374 60.51752109 767.27098511 53.40234375 771.2578125 C51.17794908 772.59350102 49.5403093 774.39083265 47.75 776.25 C47.09 776.25 46.43 776.25 45.75 776.25 C45.54375 776.930625 45.3375 777.61125 45.125 778.3125 C43.33038906 782.14644155 40.93575938 785.43712848 37.75 788.25 C36.76 788.25 35.77 788.25 34.75 788.25 C34.42 789.24 34.09 790.23 33.75 791.25 C31.59226075 792.58080346 29.52072822 793.71261602 27.25 794.8125 C26.36828125 795.26786133 26.36828125 795.26786133 25.46875 795.73242188 C10.69010261 803.04211924 -8.32703939 802.00621582 -23.81640625 797.51953125 C-31.19675797 794.79073226 -36.95894314 791.02206203 -42.25 785.25 C-43.24 784.59 -44.23 783.93 -45.25 783.25 C-45.25 782.26 -45.25 781.27 -45.25 780.25 C-45.91 779.92 -46.57 779.59 -47.25 779.25 C-47.4975 778.63125 -47.745 778.0125 -48 777.375 C-49.78236371 774.34498169 -52.09453459 773.76929816 -55.25 772.25 C-57.35445739 770.7740951 -59.38661988 769.22693962 -61.41796875 767.65234375 C-62.98220415 766.45498659 -64.61094612 765.34270259 -66.25 764.25 C-66.25 763.59 -66.25 762.93 -66.25 762.25 C-66.8275 762.00765625 -67.405 761.7653125 -68 761.515625 C-70.6644231 760.01688701 -72.24493514 758.30269167 -74.25 756 C-74.94867188 755.20207031 -75.64734375 754.40414062 -76.3671875 753.58203125 C-77.92049983 751.65811535 -79.15990407 749.82668149 -80.375 747.6875 C-80.99375 746.883125 -81.6125 746.07875 -82.25 745.25 C-85.41926564 744.74830585 -85.41926564 744.74830585 -88.25 745.25 C-88.25 744.59 -88.25 743.93 -88.25 743.25 C-89.1575 743.188125 -90.065 743.12625 -91 743.0625 C-95.18155986 742.01711003 -96.03459873 740.91687107 -98.25 737.25 C-101.22807574 730.90005337 -101.4490628 726.1173597 -100.25 719.25 C-99.59 719.25 -98.93 719.25 -98.25 719.25 C-98.25 717.93 -98.25 716.61 -98.25 715.25 C-97.26 714.92 -96.27 714.59 -95.25 714.25 C-92.67118673 709.09237346 -94.11220302 701.60393063 -95.41796875 696.18359375 C-96.77715127 693.02493015 -99.35015476 691.90705442 -102.25 690.25 C-105.48515234 686.20605958 -106.9348011 681.38208461 -107.25 676.25 C-105.8403804 667.63011376 -105.8403804 667.63011376 -102.625 664.83984375 C-100.96409406 663.24828492 -100.96409406 663.24828492 -101.10546875 660.46484375 C-101.451104 657.05322048 -101.81042093 653.65095384 -102.25 650.25 C-102.37632812 649.25742188 -102.50265625 648.26484375 -102.6328125 647.2421875 C-103.16306306 643.66818844 -103.16306306 643.66818844 -104.25 640.25 C-106.23803975 638.94501277 -106.23803975 638.94501277 -108.25 638.25 C-108.25 637.59 -108.25 636.93 -108.25 636.25 C-108.85457031 636.01023437 -109.45914063 635.77046875 -110.08203125 635.5234375 C-112.72481545 633.9710994 -113.51937489 632.56809563 -114.9375 629.875 C-115.35386719 629.10414063 -115.77023437 628.33328125 -116.19921875 627.5390625 C-119.61924588 620.08874318 -119.36728409 610.06525153 -117.53125 602.15234375 C-115.6544869 597.13502949 -113.33947737 593.80138824 -109.25 590.25 C-108.59 589.26 -107.93 588.27 -107.25 587.25 C-107.91 586.92 -108.57 586.59 -109.25 586.25 C-109.91666667 584.58333333 -110.58333333 582.91666667 -111.25 581.25 C-111.91 580.92 -112.57 580.59 -113.25 580.25 C-121.65292335 564.520851 -125.31045473 548.21038524 -126.0390625 530.515625 C-126.11150063 527.24146648 -126.11150063 527.24146648 -127.25 524.25 C-127.52494424 520.57098418 -127.69561736 516.89203553 -127.87109375 513.20703125 C-128.27060613 509.03480399 -129.16092527 505.27852884 -130.25 501.25 C-130.53359375 500.0228125 -130.8171875 498.795625 -131.109375 497.53125 C-135.53011092 478.76251155 -142.98648479 461.72886809 -153.08203125 445.26171875 C-154.25 443.25 -154.25 443.25 -154.25 441.25 C-154.91 441.25 -155.57 441.25 -156.25 441.25 C-156.57871094 440.61835937 -156.90742188 439.98671875 -157.24609375 439.3359375 C-160.62237607 432.98596478 -164.29548746 426.92494849 -168.26538086 420.93505859 C-169.94715036 418.37876895 -171.27688402 416.16934795 -172.25 413.25 C-172.91 413.25 -173.57 413.25 -174.25 413.25 C-175.62915676 411.59501189 -176.92650388 409.87169626 -178.1875 408.125 C-179.00114134 407.01325086 -179.81630871 405.90261732 -180.6328125 404.79296875 C-181.06110352 404.20950684 -181.48939453 403.62604492 -181.93066406 403.02490234 C-184.08901408 400.12127455 -186.3222273 397.27813354 -188.5625 394.4375 C-189.01560547 393.86177246 -189.46871094 393.28604492 -189.93554688 392.69287109 C-192.43269281 389.52790405 -194.94761787 386.37789564 -197.4765625 383.23828125 C-198.01240967 382.57223877 -198.54825684 381.90619629 -199.1003418 381.2199707 C-200.1280279 379.94441322 -201.15799476 378.67068853 -202.19067383 377.39916992 C-205.09127247 373.80151668 -207.69205636 370.10374404 -210.25 366.25 C-210.930625 365.610625 -211.61125 364.97125 -212.3125 364.3125 C-214.38613879 362.10507806 -215.2246849 360.00831594 -216.36889648 357.24047852 C-217.91256602 353.75321398 -219.84683474 350.48820411 -221.75 347.1875 C-229.25 334.10581683 -229.25 334.10581683 -229.25 331.25 C-229.91 330.92 -230.57 330.59 -231.25 330.25 C-231.99609375 328.4296875 -231.99609375 328.4296875 -232.6875 326.125 C-233.61928624 323.14990586 -234.60812855 320.2864158 -235.875 317.4375 C-236.94815134 314.94974007 -237.60252525 312.83989899 -238.25 310.25 C-238.91128906 308.89261719 -238.91128906 308.89261719 -239.5859375 307.5078125 C-242.11709881 301.65620302 -243.11476707 295.3438379 -244.375 289.125 C-244.63925781 287.88234375 -244.90351563 286.6396875 -245.17578125 285.359375 C-246.66495049 278.11762816 -247.64984105 271.05421686 -248.03466797 263.66845703 C-247.9847581 261.30137191 -247.9847581 261.30137191 -249.25 260.25 C-249.25 257.91666667 -249.25 255.58333333 -249.25 253.25 C-249.49339111 252.31716187 -249.49339111 252.31716187 -249.74169922 251.36547852 C-250.36620972 248.76635098 -250.37968985 246.38760757 -250.3828125 243.71484375 C-250.38410156 242.65845703 -250.38539063 241.60207031 -250.38671875 240.51367188 C-250.38285156 239.41603516 -250.37898438 238.31839844 -250.375 237.1875 C-250.37886719 236.08599609 -250.38273437 234.98449219 -250.38671875 233.84960938 C-250.38542969 232.79451172 -250.38414062 231.73941406 -250.3828125 230.65234375 C-250.38168457 229.68804443 -250.38055664 228.72374512 -250.37939453 227.73022461 C-250.25 225.25 -250.25 225.25 -249.25 222.25 C-249.20711723 220.89651249 -249.20951966 219.54106149 -249.25 218.1875 C-249.25 214.25 -249.25 214.25 -248.25 212.25 C-248.14088773 210.68908834 -248.06390602 209.12591508 -248 207.5625 C-247.51596914 201.12176675 -246.2509803 194.93056611 -244.875 188.625 C-244.66584961 187.65989502 -244.45669922 186.69479004 -244.24121094 185.70043945 C-242.84710723 179.45730251 -241.16817299 173.35126561 -239.25 167.25 C-239.00918701 166.46939209 -238.76837402 165.68878418 -238.52026367 164.88452148 C-236.91262992 159.7222106 -234.78473155 154.89585332 -232.5 150 C-231.34671101 147.46276422 -230.31271611 144.91306188 -229.3125 142.3125 C-226.10453136 134.16919499 -222.22121821 126.44969533 -217.25 119.25 C-216.79625 118.30125 -216.3425 117.3525 -215.875 116.375 C-214.54502852 113.81736254 -213.24562828 111.81502545 -211.51171875 109.546875 C-209.43951136 106.81867665 -207.38239339 104.0823444 -205.35546875 101.3203125 C-198.84504117 92.49692638 -192.19138553 84.09860944 -184.375 76.375 C-181.28068236 73.28068236 -179.09088199 70.2149766 -177.25 66.25 C-176.59 66.25 -175.93 66.25 -175.25 66.25 C-174.92 65.59 -174.59 64.93 -174.25 64.25 C-172.58408249 63.24875246 -170.91730503 62.24893529 -169.25 61.25 C-167.82469207 59.99093258 -166.4307266 58.6958745 -165.0625 57.375 C-155.96089493 49.01470213 -145.55842362 42.03587058 -135.25 35.25 C-134.26 34.59 -133.27 33.93 -132.25 33.25 C-131.26 33.25 -130.27 33.25 -129.25 33.25 C-128.92 32.26 -128.59 31.27 -128.25 30.25 C-126.60067047 29.47752921 -124.94285332 28.71802939 -123.24707031 28.05371094 C-121.273732 27.25955082 -119.41275861 26.35868103 -117.5234375 25.3828125 C-101.77269951 17.26861351 -84.87587243 10.10537167 -67.19140625 7.70703125 C-66.55074219 7.55621094 -65.91007813 7.40539062 -65.25 7.25 C-64.92 6.59 -64.59 5.93 -64.25 5.25 C-62.27 5.58 -60.29 5.91 -58.25 6.25 C-57.92 5.59 -57.59 4.93 -57.25 4.25 C-56.26 4.58 -55.27 4.91 -54.25 5.25 C-52.61683359 4.796107 -50.98538792 4.33452281 -49.36621094 3.83300781 C-33.58062925 -0.51585802 -16.24264108 -0.03029867 0 0 Z M-43.92773438 5.84423828 C-46.26484565 6.25259393 -48.59956033 6.57322989 -50.953125 6.87109375 C-96.23222484 12.79246107 -141.08437117 35.46006162 -172.66015625 68.625 C-174.25 70.25 -174.25 70.25 -177.3125 72.75 C-180.26247697 75.2606187 -182.67394463 77.85814692 -185.16796875 80.80859375 C-186.67862822 82.58000495 -188.22839886 84.31829769 -189.80078125 86.03515625 C-209.51932789 107.79461349 -224.48822674 134.19358058 -234.375 161.75 C-234.60477539 162.38945557 -234.83455078 163.02891113 -235.07128906 163.68774414 C-239.10757671 175.26121048 -241.95246049 186.91104559 -243.9375 199 C-244.14955078 200.23621094 -244.36160156 201.47242188 -244.58007812 202.74609375 C-250.84260244 239.92612767 -246.56639667 276.80499736 -234.25 312.25 C-233.86690674 313.36979248 -233.86690674 313.36979248 -233.47607422 314.51220703 C-229.90667328 324.86227598 -225.45836058 334.62354472 -220.25 344.25 C-219.88422852 344.92643555 -219.51845703 345.60287109 -219.14160156 346.29980469 C-209.33403375 364.18319922 -196.70900486 379.93258912 -183.67285156 395.54052734 C-180.76237799 399.03729055 -177.96956726 402.60330754 -175.25 406.25 C-174.79302734 406.85859863 -174.33605469 407.46719727 -173.86523438 408.09423828 C-166.38075059 418.10228867 -159.60974936 428.27635913 -153.45605469 439.14990234 C-152.24330233 441.26166262 -150.99266128 443.3456228 -149.7265625 445.42578125 C-133.54137523 472.08209178 -125.95526548 497.97873105 -123.54150391 529.01391602 C-121.7679466 551.65607885 -117.3129955 569.96810585 -103.25 588.25 C-103.70890625 588.60191406 -104.1678125 588.95382812 -104.640625 589.31640625 C-110.04960674 593.66859114 -113.953363 598.20938229 -115.25 605.25 C-115.97350345 616.10255172 -115.42592178 623.84691994 -109.375 633.125 C-107.34932781 635.46474129 -107.34932781 635.46474129 -104.234375 636.26953125 C-101.25 638.25 -101.25 638.25 -100.48193359 640.26757812 C-99.97719817 642.86454843 -99.64586925 645.43092995 -99.375 648.0625 C-99.25898438 648.95259766 -99.14296875 649.84269531 -99.0234375 650.75976562 C-97.47958774 663.15651163 -97.47958774 663.15651163 -100.1875 667 C-100.868125 667.7425 -101.54875 668.485 -102.25 669.25 C-104.21256526 673.17513052 -103.59188699 677.96087229 -103.25 682.25 C-101.55610636 686.44015796 -98.94357696 688.69290826 -95.25 691.25 C-94.59 691.25 -93.93 691.25 -93.25 691.25 C-92.91198848 693.79112232 -92.57946621 696.33276746 -92.25 698.875 C-92.10691406 699.94427734 -92.10691406 699.94427734 -91.9609375 701.03515625 C-90.91759133 709.15835144 -90.91759133 709.15835144 -91.25 713.25 C-93.6875 715.9375 -93.6875 715.9375 -96.25 718.25 C-97.79278505 722.87835514 -97.75478774 727.4164845 -97.25 732.25 C-95.29568129 736.15863741 -93.17240591 739.23579156 -89.25 741.25 C-87.81274068 741.28355469 -86.37511792 741.30275344 -84.9375 741.3125 C-81.7860205 741.56955379 -80.6266688 741.85155378 -78.42578125 744.1796875 C-77.27112702 745.9076316 -76.14770109 747.65671663 -75.05078125 749.421875 C-69.25716937 758.52073617 -61.42547137 765.26079478 -52.05078125 770.47265625 C-47.09200477 773.25901637 -44.77561235 776.16275165 -41.79296875 780.9765625 C-35.91388394 789.63891024 -26.31517658 794.30484259 -16.3125 796.5625 C-10.93600656 797.37712022 -5.55292265 797.45370111 -0.125 797.5 C0.71023193 797.50942627 1.54546387 797.51885254 2.40600586 797.52856445 C15.04705376 797.46252448 26.23461763 793.71888411 35.75 785.25 C38.97318896 781.96221808 41.9538939 778.72848275 44.14453125 774.66015625 C46.05643235 771.78997869 47.49720977 771.12362894 50.625 769.75 C66.35746267 761.59242676 76.41372008 745.52146305 83.16796875 729.67578125 C85.2076272 726.54830496 87.39536986 725.77082444 90.75 724.25 C95.13880752 718.937233 95.21632028 714.19440083 95.28125 707.43359375 C94.99652189 704.12155589 94.99652189 704.12155589 92.66015625 701.66015625 C89.62979141 696.25011841 90.89450323 691.23563251 91.6875 685.25 C91.80673828 684.08726562 91.92597656 682.92453125 92.04882812 681.7265625 C92.87791425 674.92260688 93.82766627 671.05381847 98.75 666.25 C100.09711555 662.20865334 100.19562818 658.47969118 99.75 654.25 C99.275625 653.46625 98.80125 652.6825 98.3125 651.875 C96.14661553 648.23631408 96.19814497 644.84950321 95.9609375 640.67578125 C95.8992044 638.24170176 95.8992044 638.24170176 94.75 636.25 C95.575 636.229375 96.4 636.20875 97.25 636.1875 C103.14355489 634.60886923 106.89603127 630.88129538 110.37109375 625.94921875 C114.58952781 618.45641943 114.45525259 611.87332252 113.1875 603.5625 C111.20966259 599.00487467 108.18639048 595.78746079 104.75 592.25 C105.17410156 591.33863281 105.59820313 590.42726563 106.03515625 589.48828125 C109.63114048 581.60648781 112.79577467 573.64902257 115.5625 565.4375 C115.8519751 564.5916333 116.1414502 563.7457666 116.43969727 562.87426758 C120.47514845 550.62544445 121.39046623 538.15369316 122.35180664 525.37915039 C125.22948378 487.63877495 139.75506269 457.82417106 159.75 426.25 C160.2651416 425.4343457 160.7802832 424.61869141 161.31103516 423.77832031 C166.78511327 415.1725603 172.83621806 407.11675916 179.21679688 399.16894531 C184.47249536 392.59095327 189.6196239 385.92594129 194.75 379.25 C195.25063965 378.5988623 195.7512793 377.94772461 196.26708984 377.27685547 C213.01135423 355.36030894 226.80589806 330.7576825 234.75 304.25 C234.9670459 303.54343262 235.1840918 302.83686523 235.40771484 302.10888672 C237.09014946 296.53898046 238.4953865 290.93093192 239.75 285.25 C239.94899902 284.35361816 240.14799805 283.45723633 240.35302734 282.53369141 C248.43736561 244.20426125 244.91034366 203.27361849 232.75 166.25 C232.30729167 164.83333333 231.86458333 163.41666667 231.421875 162 C225.32596205 143.1293673 216.16052421 125.42478854 204.75 109.25 C203.94755859 108.09806152 203.94755859 108.09806152 203.12890625 106.92285156 C195.66469351 96.26523141 187.72450221 86.39737131 178.59472656 77.12548828 C176.64998022 75.14831235 174.72753414 73.15080796 172.8046875 71.15234375 C158.57127053 56.48860216 142.89927485 45.30466403 125.75 34.25 C124.69296875 33.5590625 123.6359375 32.868125 122.546875 32.15625 C100.27824749 18.35230546 74.05692343 10.78285775 48.36328125 6.671875 C46.64984486 6.39526643 44.93868311 6.10408874 43.23046875 5.796875 C15.37830168 0.83396966 -16.11762892 0.77385605 -43.92773438 5.84423828 Z " fill="#FEF1C7" transform="translate(513.25,398.75)"/>
<path d="M0 0 C4.33575471 4.19589166 5.18006398 6.13029476 5.3125 12.1875 C5.25344115 18.12619586 4.79318755 21.40824665 1 26 C-3.363427 28.61774194 -6.93878111 29.46462464 -11.984375 29.84375 C-12.65879135 29.89779999 -13.3332077 29.95184998 -14.02806091 30.00753784 C-16.26795739 30.18382827 -18.50874845 30.34194775 -20.75 30.5 C-22.36897363 30.62350461 -23.98786879 30.74804144 -25.60668945 30.87353516 C-30.73656262 31.26664828 -35.86809384 31.63455298 -41 32 C-42.58448408 32.11409926 -44.16895703 32.22835319 -45.75341797 32.34277344 C-52.26038138 32.81173918 -58.76774563 33.27496824 -65.27539062 33.734375 C-80.26502869 34.79404516 -95.25253575 35.8823944 -110.23713589 37.01107597 C-113.81144221 37.28025103 -117.38587023 37.54730594 -120.96078491 37.80828857 C-135.02206162 38.83635415 -149.03902885 39.88332447 -162.97845459 42.0604248 C-176.79842665 44.17268249 -176.79842665 44.17268249 -180.81573486 42.03283691 C-183.72577638 39.73095695 -185.64485875 37.41865179 -187 34 C-187.56064092 29.11441485 -187.67274127 24.53769432 -185.6875 20 C-184.19442565 18.2304304 -182.67177312 16.59908734 -181 15 C-180.34 14.01 -179.68 13.02 -179 12 C-179 12.66 -179 13.32 -179 14 C-172.92865793 13.63364622 -166.8577514 13.26083333 -160.78710938 12.88305664 C-158.7400072 12.75645621 -156.69281135 12.63135786 -154.64550781 12.50805664 C-141.74458408 11.72977351 -128.87143363 10.75600919 -116 9.58984375 C-97.03189714 7.87181084 -78.04420393 6.4590662 -59.04949951 5.07092285 C-55.44479107 4.80685671 -51.84027196 4.5402554 -48.23575401 4.27360344 C-44.69751687 4.01199758 -41.1592059 3.75140229 -37.62086868 3.49115372 C-35.9650099 3.36935091 -34.30916369 3.24737712 -32.65333176 3.12520981 C-30.3397554 2.95477901 -28.02610005 2.78547406 -25.71240234 2.61669922 C-24.98550894 2.56332335 -24.25861553 2.50994747 -23.50969505 2.45495415 C-19.79263237 2.18606544 -16.07570798 1.94150918 -12.35479736 1.73199463 C-11.23930732 1.66808124 -11.23930732 1.66808124 -10.10128212 1.60287666 C-8.05502908 1.48786477 -6.00843294 1.3790048 -3.96182251 1.27053833 C-1.11578214 1.32906702 -1.11578214 1.32906702 0 0 Z " fill="#D08837" transform="translate(603,1097)"/>
<path d="M0 0 C0 0.99 0 1.98 0 3 C-0.33 3.33 -0.66 3.66 -1 4 C-1.27369903 5.64406499 -1.49111917 7.29758449 -1.68359375 8.953125 C-1.80669922 9.96503906 -1.92980469 10.97695312 -2.05664062 12.01953125 C-2.30867657 14.15731304 -2.55870724 16.29533228 -2.80664062 18.43359375 C-2.99323242 19.95919922 -2.99323242 19.95919922 -3.18359375 21.515625 C-3.29243896 22.44665039 -3.40128418 23.37767578 -3.51342773 24.33691406 C-4.01826723 27.09997941 -4.92533564 29.41355351 -6 32 C-7.11678635 32.0806369 -7.11678635 32.0806369 -8.25613403 32.16290283 C-40.4013938 34.48433741 -72.54656038 36.80686365 -104.6875 39.1875 C-105.74575989 39.26577026 -106.80401978 39.34404053 -107.89434814 39.42468262 C-119.52055915 40.2850737 -131.14565296 41.15940394 -142.76953125 42.05078125 C-143.81533859 42.1307988 -144.86114594 42.21081635 -145.93864441 42.29325867 C-152.07123316 42.76534478 -158.20018822 43.2671272 -164.32737732 43.80508423 C-168.30536903 44.09520125 -172.26381383 44.10952397 -176.25 44.0625 C-177.00667969 44.05798828 -177.76335937 44.05347656 -178.54296875 44.04882812 C-180.36201555 44.03731517 -182.18102018 44.0193967 -184 44 C-186.91275354 36.93124446 -187.111183 30.5526868 -187 23 C-177.36730502 21.62785822 -167.74875614 20.54384907 -158.05123901 19.73822021 C-154.35639561 19.43105898 -150.66254334 19.11247864 -146.96875 18.79296875 C-145.84544533 18.69595673 -145.84544533 18.69595673 -144.69944763 18.59698486 C-137.10390066 17.93404328 -129.52152306 17.15805677 -121.9375 16.375 C-113.19673615 15.4762487 -104.50634857 14.74642846 -95.72998047 14.32495117 C-89.9154243 13.97435433 -84.14180461 13.26189169 -78.35546875 12.60546875 C-63.24038425 10.94039833 -48.10781332 9.82949874 -32.9375 8.8125 C-30.3443691 8.63392673 -27.75126995 8.45489182 -25.15820312 8.27539062 C-20.48186725 7.95413881 -15.80553136 7.63297934 -11.12866211 7.31958008 C-9.74643715 7.22656364 -9.74643715 7.22656364 -8.33628845 7.13166809 C-6.55980325 7.03154928 -4.7793042 7 -3 7 C-2.814375 5.824375 -2.814375 5.824375 -2.625 4.625 C-2 2 -2 2 0 0 Z " fill="#B26924" transform="translate(608,1067)"/>
<path d="M0 0 C4.93252928 3.17850486 9.14896171 7.55613172 10.5859375 13.37109375 C12.59160879 26.10521431 9.11997984 36.77670534 1.9765625 47.33984375 C-12.02419848 66.18276515 -32.72893885 79.18507194 -56 83 C-57.66649711 83.02377314 -59.33358186 83.02878097 -61 83 C-61.69680156 72.39313177 -59.86224261 62.78705561 -57.55126953 52.48828125 C-57.03623667 50.16356252 -56.55789452 47.83455222 -56.08984375 45.5 C-52.53528264 28.36249428 -45.93193721 10.86085088 -31.140625 0.37109375 C-21.10646898 -6.05589304 -10.33583021 -5.66624977 0 0 Z " fill="#FEE791" transform="translate(599,667)"/>
<path d="M0 0 C2.92688064 2.10777144 5.47661931 4.42746254 8 7 C8.53367187 7.53496094 9.06734375 8.06992187 9.6171875 8.62109375 C16.24674014 15.7830716 20.38898783 24.68113888 23 34 C23.30550781 35.01835938 23.61101562 36.03671875 23.92578125 37.0859375 C26.15974323 44.90049175 27.81087196 52.7551309 29.25 60.75 C29.42523193 61.69568848 29.60046387 62.64137695 29.78100586 63.61572266 C30.90594036 70.12957512 31.20207283 76.39574659 31 83 C12.07563459 83.17186608 -9.29176386 71.27282037 -22.72265625 58.4453125 C-29.5448889 51.11989631 -35.03603232 43.19374018 -39 34 C-39.433125 33.05125 -39.86625 32.1025 -40.3125 31.125 C-41.9839576 23.52746546 -41.94386822 16.02496594 -38.3203125 9.03125 C-29.45646903 -4.60543227 -14.11321018 -7.9841788 0 0 Z " fill="#FEE792" transform="translate(454,667)"/>
<path d="M0 0 C0.99 0.33 1.98 0.66 3 1 C2.34 1 1.68 1 1 1 C1 5.29 1 9.58 1 14 C-0.93488281 13.97510498 -2.86976563 13.95020996 -4.86328125 13.92456055 C-13.67392589 13.9280794 -22.40538861 14.54753185 -31.1875 15.20703125 C-32.93730735 15.33477587 -34.68714542 15.46210045 -36.43701172 15.58903503 C-41.03234611 15.92363953 -45.62719879 16.26446646 -50.22198486 16.60650635 C-53.86215412 16.87642992 -57.50264402 17.14185778 -61.14316082 17.40704632 C-92.60424446 19.69917241 -124.06581157 22.05024652 -155.48852539 24.82543945 C-157.33596922 24.98770702 -159.18363923 25.14741426 -161.03149414 25.30493164 C-175.60247029 26.5129344 -175.60247029 26.5129344 -190 29 C-192.134195 23.60174205 -192.62672484 18.35108014 -193.125 12.625 C-193.21136719 11.69816406 -193.29773438 10.77132813 -193.38671875 9.81640625 C-193.59748948 7.54476612 -193.80050257 5.27264919 -194 3 C-182.93458277 2.1011124 -171.96236516 1.86122414 -160.86547852 1.88647461 C-159.09974163 1.88675742 -157.33400464 1.88659691 -155.56826782 1.8860321 C-150.82342909 1.8857478 -146.07861617 1.89158463 -141.33378339 1.89860606 C-136.35704002 1.90490125 -131.38029593 1.90544824 -126.40354919 1.90663147 C-117.00110378 1.90972673 -107.59867013 1.91791556 -98.19622988 1.92798096 C-87.48266546 1.93919844 -76.76910046 1.94466669 -66.05553162 1.94967639 C-44.03701454 1.96009987 -22.01850801 1.97766402 0 2 C0 1.34 0 0.68 0 0 Z " fill="#B36A24" transform="translate(607,1034)"/>
<path d="M0 0 C1.80138428 0.1071936 1.80138428 0.1071936 3.63916016 0.21655273 C20.15231115 1.120584 36.64786906 1.12015201 53.17858887 1.06866455 C56.89379285 1.05823728 60.6090042 1.05382639 64.32421875 1.04882812 C71.54949851 1.03826157 78.77474305 1.02130902 86 1 C86.19775391 5.71923828 86.19775391 5.71923828 84.41796875 8.24609375 C72.65308572 19.80493679 60.51677278 24.19981865 44.25 24.1875 C43.37053711 24.18814453 42.49107422 24.18878906 41.58496094 24.18945312 C35.22831253 24.13786837 29.17783662 23.5869672 23 22 C23 21.34 23 20.68 23 20 C22.39414062 19.81566406 21.78828125 19.63132812 21.1640625 19.44140625 C12.12696904 16.31318159 4.47255992 10.61435175 0 2 C0 1.34 0 0.68 0 0 Z " fill="#C37729" transform="translate(469,1172)"/>
<path d="M0 0 C0.99 0.33 1.98 0.66 3 1 C2.21238281 1.53367187 1.42476563 2.06734375 0.61328125 2.6171875 C-12.4537467 11.5553439 -24.60112538 20.99532277 -36 32 C-36.59522461 32.57331055 -37.19044922 33.14662109 -37.80371094 33.73730469 C-45.07450895 40.77716153 -51.9337315 47.87372782 -58 56 C-58.78375 57.02480469 -59.5675 58.04960937 -60.375 59.10546875 C-63.81367986 63.62253501 -67.11476822 68.10407561 -70 73 C-71.0509206 74.62142036 -72.1021786 76.24263494 -73.15991211 77.85961914 C-80.31973537 88.69799146 -80.31973537 88.69799146 -85.92919922 100.37133789 C-86.93235295 102.8339362 -88.07647779 105.11519461 -89.32421875 107.4609375 C-92.44479509 113.6379138 -94.61771432 120.07350996 -96.8125 126.625 C-97.42254883 128.41744141 -97.42254883 128.41744141 -98.04492188 130.24609375 C-99.03632032 133.16197154 -100.02118661 136.07987871 -101 139 C-104.85179291 127.44462126 -91.76610059 105.72189241 -86.73974609 95.41601562 C-81.07780611 84.34878026 -74.31569611 74.03515727 -67 64 C-66.5771875 63.41879395 -66.154375 62.83758789 -65.71875 62.23876953 C-60.38261195 54.96619701 -54.6328027 48.22378312 -48.46484375 41.65234375 C-46.50451132 39.54288936 -44.63945317 37.41054058 -42.8125 35.1875 C-40.18999408 32.08681637 -37.26614988 29.48643533 -34.171875 26.86328125 C-31.88880599 24.90460514 -29.70133397 22.86239992 -27.5 20.8125 C-20.73752825 14.70107367 -13.38706143 9.32652259 -6 4 C-5.43474609 3.57799316 -4.86949219 3.15598633 -4.28710938 2.72119141 C-2.703125 1.58203125 -2.703125 1.58203125 0 0 Z " fill="#FEC557" transform="translate(377,438)"/>
<path d="M0 0 C3.03427344 2.63527112 4.64710456 5.74710563 6.5625 9.25 C12.32286442 19.57082278 18.78752038 29.4910429 26.1796875 38.72265625 C27.94873056 40.93585819 29.67046695 43.18141356 31.38623047 45.43603516 C35.07939615 50.28504379 38.84728749 55.05418568 42.72900391 59.75390625 C52.77499629 71.93664635 61.82906357 84.61884641 69.78515625 98.26171875 C71.29754437 100.84671292 72.86889976 103.38023189 74.49609375 105.89453125 C78.95211744 112.78758863 83.03758396 119.7040392 86.5625 127.125 C86.89709229 127.82351074 87.23168457 128.52202148 87.57641602 129.24169922 C89.37673553 133.15510763 90.50805212 136.67355426 91 141 C88.47910286 138.03059968 86.96463462 134.86413359 85.40087891 131.31567383 C73.9775284 105.53021939 57.49261788 81.55407308 39.56689453 59.90527344 C35.27430957 54.68568275 31.13507034 49.34456037 27 44 C26.50612793 43.36594238 26.01225586 42.73188477 25.50341797 42.07861328 C18.26815606 32.76301266 11.79624513 23.273445 6 13 C5.37738281 11.906875 4.75476563 10.81375 4.11328125 9.6875 C0 2.32386364 0 2.32386364 0 0 Z " fill="#FECA5E" transform="translate(290,735)"/>
<path d="M0 0 C0.33 0 0.66 0 1 0 C1.21774549 8.33016097 0.67606336 16.27283448 -0.625 24.5 C-0.80321289 25.63002441 -0.98142578 26.76004883 -1.16503906 27.92431641 C-7.10583393 63.52385111 -24.11401113 102.50846346 -49 129 C-49.66 129.33 -50.32 129.66 -51 130 C-49.31819454 126.23421821 -46.93109607 123.05296307 -44.5 119.75 C-18.49612859 83.77932261 -3.83770728 44.18412993 0 0 Z " fill="#FEC759" transform="translate(755,651)"/>
<path d="M0 0 C6.12641907 0.54714974 11.19022283 2.4369158 16.8125 4.875 C17.73321289 5.27356201 18.65392578 5.67212402 19.60253906 6.08276367 C28.94023874 10.24329188 37.5098375 15.33098412 46 21 C46.72703125 21.4837207 47.4540625 21.96744141 48.203125 22.46582031 C62.7333741 32.22350089 75.39440405 43.24532007 87.8125 55.5625 C88.68422852 56.42480225 89.55595703 57.28710449 90.45410156 58.17553711 C96.39963599 64.15105948 101.77690139 70.38660865 107 77 C106.67 77.66 106.34 78.32 106 79 C104.31129226 77.16776737 102.62402822 75.33423723 100.9375 73.5 C100.47150391 72.9946875 100.00550781 72.489375 99.52539062 71.96875 C96.84074019 69.0466815 94.20513674 66.0912735 91.609375 63.08984375 C82.072709 52.16129762 71.86385521 42.34863885 60 34 C58.06048821 32.50260216 56.12302639 31.00254579 54.1875 29.5 C47.4356442 24.44489963 40.32748413 20.15577546 33 16 C32.37689941 15.64518555 31.75379883 15.29037109 31.11181641 14.92480469 C22.98248849 10.33577048 14.78108056 6.52492283 6.046875 3.2265625 C3 2 3 2 0 0 Z " fill="#FEC555" transform="translate(601,417)"/>
<path d="M0 0 C1.18272619 3.49455891 0.80706683 5.94713891 0.0390625 9.5234375 C-0.18499268 10.61575684 -0.40904785 11.70807617 -0.63989258 12.83349609 C-0.88247803 14.00219238 -1.12506348 15.17088867 -1.375 16.375 C-3.7834351 28.66875412 -4.8751003 40.49615265 -5 53 C-5.03848134 54.79949169 -5.07754595 56.598971 -5.1171875 58.3984375 C-5.28118636 68.49307127 -4.7549513 78.30315496 -3.4375 88.3125 C-3.08697655 91.26691197 -2.9073068 94.03381765 -3 97 C-16.55724179 70.78933254 -7.2414971 29.32763593 -1 2 C-0.67 1.34 -0.34 0.68 0 0 Z " fill="#FEC85E" transform="translate(274,578)"/>
<path d="M0 0 C0.78753662 0.00829834 1.57507324 0.01659668 2.38647461 0.02514648 C14.85318491 0.38462782 22.86865064 5.56999702 31.8125 13.875 C32.988125 15.1434375 32.988125 15.1434375 34.1875 16.4375 C34.77660156 17.05625 35.36570312 17.675 35.97265625 18.3125 C39.51787161 22.15618319 42.0090399 25.19989955 43.1875 30.4375 C42.5275 30.4375 41.8675 30.4375 41.1875 30.4375 C40.10421779 28.83208177 39.09699483 27.17514003 38.125 25.5 C30.69886281 13.58755725 20.97247664 5.74589439 7.1875 2.4375 C-4.10482119 1.25473207 -13.37220689 2.69297034 -22.6015625 9.4921875 C-32.62594105 18.03804414 -35.5853866 25.54559151 -37.8125 38.4375 C-38.1425 38.4375 -38.4725 38.4375 -38.8125 38.4375 C-39.44877555 28.57522904 -37.09326959 21.73004514 -30.625 14.1875 C-22.00678615 5.18782422 -12.5788396 -0.172016 0 0 Z " fill="#FEEA98" transform="translate(438.8125,649.5625)"/>
<path d="M0 0 C0.84258362 0.00718552 1.68516724 0.01437103 2.55328369 0.02177429 C3.42728821 0.02223251 4.30129272 0.02269073 5.20178223 0.02316284 C7.06131335 0.02619035 8.92084183 0.03409144 10.78033447 0.0464325 C13.57844416 0.06440289 16.37621674 0.06694401 19.17437744 0.06669617 C29.12572335 0.08663073 38.96484467 0.37182015 48.88140869 1.25224304 C50.77710217 1.39988319 52.67291291 1.54603719 54.56890869 1.68974304 C57.98337124 1.95945689 58.88009271 2.25136572 61.88140869 4.25224304 C53.49314658 5.97291219 45.31987709 5.23878632 36.88140869 4.25224304 C36.88140869 3.59224304 36.88140869 2.93224304 36.88140869 2.25224304 C22.03140869 2.25224304 7.18140869 2.25224304 -8.11859131 2.25224304 C-5.48347154 -0.38287672 -3.5857879 0.01422562 0 0 Z " fill="#FFF6D8" transform="translate(498.11859130859375,398.7477569580078)"/>
<path d="M0 0 C0.66 0.33 1.32 0.66 2 1 C1.51120361 1.4626123 1.02240723 1.92522461 0.51879883 2.40185547 C-1.73028646 4.54574375 -3.95872706 6.71001042 -6.1875 8.875 C-6.95642578 9.60203125 -7.72535156 10.3290625 -8.51757812 11.078125 C-13.7682539 16.21612533 -17.15501538 21.22555203 -20 28 C-21 25 -21 25 -20.25 23.0546875 C-14.80999976 13.56868708 -8.98429142 6.33586084 0 0 Z " fill="#F6B74E" transform="translate(562,657)"/>
<path d="M0 0 C1.03272454 1.54908681 2.06251156 3.10090818 3.04296875 4.68359375 C6.09432527 9.35956329 8.99189924 11.54504865 14 14 C13.67 14.99 13.34 15.98 13 17 C8.25 15.125 8.25 15.125 6 14 C6 13.34 6 12.68 6 12 C5.4225 11.814375 4.845 11.62875 4.25 11.4375 C0.85537664 9.26871285 -0.20497313 6.59005374 -2 3 C-2 2.34 -2 1.68 -2 1 C-1.34 0.67 -0.68 0.34 0 0 Z " fill="#FCF1CA" transform="translate(399,1023)"/>
<path d="M0 0 C0.185625 0.9590625 0.185625 0.9590625 0.375 1.9375 C0.684375 2.9584375 0.684375 2.9584375 1 4 C1.66 4.33 2.32 4.66 3 5 C2.74424607 7.41913128 2.47106619 9.83410539 2.1875 12.25 C2.11724609 12.93191406 2.04699219 13.61382813 1.97460938 14.31640625 C1.47104252 18.46579713 0.62552571 20.80370784 -2 24 C-1.86116581 20.56217969 -1.71272946 17.12483971 -1.5625 13.6875 C-1.52318359 12.71103516 -1.48386719 11.73457031 -1.44335938 10.72851562 C-1.40146484 9.79072266 -1.35957031 8.85292969 -1.31640625 7.88671875 C-1.27974854 7.02264404 -1.24309082 6.15856934 -1.20532227 5.26831055 C-1 3 -1 3 0 0 Z " fill="#FEF4D5" transform="translate(628,1001)"/>
<path d="M0 0 C5.1386757 6.41583194 8.21470189 13.83289962 9 22 C9.350625 23.175625 9.70125 24.35125 10.0625 25.5625 C10.97051692 28.89189539 11.16721405 31.57211192 11 35 C10.34 34.67 9.68 34.34 9 34 C8.48088306 31.97754441 8.06202653 29.92915163 7.6875 27.875 C6.33648311 21.10605894 4.37695128 14.78243438 2.0859375 8.27734375 C1.16836144 5.50811242 0.48832088 2.87024162 0 0 Z " fill="#FEEC9B" transform="translate(483,683)"/>
<path d="M0 0 C0.33 0 0.66 0 1 0 C2.29371424 10.66116364 -1.55291418 20.09988745 -5 30 C-5.33 30 -5.66 30 -6 30 C-5.40569631 24.46554693 -4.42905627 19.24949424 -3 13.875 C-1.79046413 9.27350485 -0.70445106 4.71101648 0 0 Z " fill="#FEC65B" transform="translate(632,939)"/>
<path d="M0 0 C5.77746903 -0.233276 10.93121339 0.62753509 16.5625 1.875 C17.7990332 2.13603516 17.7990332 2.13603516 19.06054688 2.40234375 C23.4800088 3.35618445 27.73737868 4.46628536 32 6 C32 6.33 32 6.66 32 7 C26.23051572 6.48486748 20.56902261 5.6192653 14.875 4.5625 C13.87243164 4.37917114 13.87243164 4.37917114 12.84960938 4.19213867 C8.47335354 3.36269807 4.26017462 2.27805239 0 1 C0 0.67 0 0.34 0 0 Z " fill="#FEC555" transform="translate(557,406)"/>
<path d="M0 0 C0.72703125 0.09539062 1.4540625 0.19078125 2.203125 0.2890625 C3.96935867 0.52146167 5.73477406 0.76006638 7.5 1 C7.5 1.33 7.5 1.66 7.5 2 C3.9375173 2.02913821 0.37506546 2.04684529 -3.1875 2.0625 C-4.69860352 2.07506836 -4.69860352 2.07506836 -6.24023438 2.08789062 C-7.21669922 2.09111328 -8.19316406 2.09433594 -9.19921875 2.09765625 C-10.54246216 2.10551147 -10.54246216 2.10551147 -11.9128418 2.11352539 C-14.53641759 1.99840198 -16.94293053 1.58234285 -19.5 1 C-13.89147808 -2.73901461 -6.43167652 -0.88137789 0 0 Z " fill="#FEF9E6" transform="translate(516.5,1197)"/>
<path d="M0 0 C0.33 0 0.66 0 1 0 C1.04898438 1.19238281 1.09796875 2.38476562 1.1484375 3.61328125 C1.22347604 5.17971068 1.2990234 6.74611579 1.375 8.3125 C1.42140625 9.49102539 1.42140625 9.49102539 1.46875 10.69335938 C1.50742187 11.45068359 1.54609375 12.20800781 1.5859375 12.98828125 C1.6173584 13.68477783 1.6487793 14.38127441 1.68115234 15.09887695 C1.92118253 17.32532739 1.92118253 17.32532739 4 20 C3.34 20.66 2.68 21.32 2 22 C-0.2448636 19.86223867 -1.915483 18.1893163 -2.14257812 14.99365234 C-1.94501241 12.69873303 -1.63082564 10.45912494 -1.25 8.1875 C-1.1365625 7.39923828 -1.023125 6.61097656 -0.90625 5.79882812 C-0.62464532 3.86279593 -0.31507003 1.93086839 0 0 Z " fill="#F9EABE" transform="translate(605,1080)"/>
<path d="M0 0 C0.33 0 0.66 0 1 0 C1.09796875 0.74765625 1.1959375 1.4953125 1.296875 2.265625 C2.26809216 9.59208447 2.26809216 9.59208447 7 15 C7 15.66 7 16.32 7 17 C3.86225918 16.74558858 2.37842816 16.37842816 0.125 14.125 C-1.58896101 9.36399718 -0.71725331 4.93435713 0 0 Z " fill="#FAE8B9" transform="translate(409,1073)"/>
<path d="M0 0 C1.75442336 5.26327009 -1.74360298 10.16308263 -4 15 C-5.25620687 17.40039529 -6.58215306 19.68943462 -8 22 C-9.32 21.34 -10.64 20.68 -12 20 C-11.01 19.67 -10.02 19.34 -9 19 C-8.67 18.01 -8.34 17.02 -8 16 C-7.34 16 -6.68 16 -6 16 C-5.81824219 15.43152344 -5.63648438 14.86304688 -5.44921875 14.27734375 C-3.85915366 9.39298997 -2.09540222 4.68970973 0 0 Z " fill="#FCC052" transform="translate(625,969)"/>
<path d="M0 0 C2.8503026 3.20945602 3.43451699 5.49988548 3.6875 9.75 C3.78611328 11.22726562 3.78611328 11.22726562 3.88671875 12.734375 C3.92410156 13.48203125 3.96148438 14.2296875 4 15 C3.01 14.67 2.02 14.34 1 14 C-1.01286793 8.96783018 -1.07626486 5.27369782 0 0 Z " fill="#FFF6D8" transform="translate(751,574)"/>
<path d="M0 0 C1.51699416 2.80452702 2.45308563 5.3857302 3.125 8.5 C3.29257812 9.2528125 3.46015625 10.005625 3.6328125 10.78125 C4 13 4 13 4 17 C3.01 17 2.02 17 1 17 C-0.13480527 13.39006828 -0.10015767 10.0157673 -0.0625 6.25 C-0.05347656 5.07953125 -0.04445313 3.9090625 -0.03515625 2.703125 C-0.02355469 1.81109375 -0.01195312 0.9190625 0 0 Z " fill="#FEF7DC" transform="translate(395,1007)"/>
<path d="M0 0 C0.66 0.33 1.32 0.66 2 1 C-3.28350251 4.23199069 -8.60520389 7.39446441 -14 10.4375 C-14.9075 10.95183594 -15.815 11.46617187 -16.75 11.99609375 C-17.86375 12.49302734 -17.86375 12.49302734 -19 13 C-19.66 12.67 -20.32 12.34 -21 12 C-16.14158695 8.85632097 -11.19215421 5.91962936 -6.125 3.125 C-5.01382812 2.50882812 -3.90265625 1.89265625 -2.7578125 1.2578125 C-1.84773438 0.84273438 -0.93765625 0.42765625 0 0 Z " fill="#FEC455" transform="translate(402,424)"/>
<path d="M0 0 C2 1 2 1 3.1484375 3.04296875 C4.25523253 6.88628911 3.97585906 10.38638717 3.625 14.3125 C3.56828125 15.05306641 3.5115625 15.79363281 3.453125 16.55664062 C3.31258589 18.37193743 3.15772905 20.18611597 3 22 C2.67 22 2.34 22 2 22 C1.93941406 20.99839844 1.87882812 19.99679687 1.81640625 18.96484375 C1.73191595 17.62238669 1.64727232 16.27993928 1.5625 14.9375 C1.48128906 13.62652344 1.40007812 12.31554687 1.31640625 10.96484375 C1.02101751 7.26336762 0.56734612 3.66629552 0 0 Z " fill="#FFF8E0" transform="translate(384,901)"/>
<path d="M0 0 C0.99 0.33 1.98 0.66 3 1 C3.66 5.62 4.32 10.24 5 15 C2.21366246 13.60683123 2.06507306 11.84019484 1 9 C0.67 8.67 0.34 8.34 0 8 C-0.14115161 5.32941149 -0.04247107 2.67567762 0 0 Z " fill="#FEEDB8" transform="translate(383,892)"/>
<path d="M0 0 C1.98 0.99 1.98 0.99 4 2 C4.18451025 11.41002278 4.18451025 11.41002278 3 16 C2.67 16 2.34 16 2 16 C1.34 10.72 0.68 5.44 0 0 Z " fill="#FEEDBD" transform="translate(752,588)"/>
<path d="M0 0 C0.33 0 0.66 0 1 0 C1.33 5.28 1.66 10.56 2 16 C1.01 15.34 0.02 14.68 -1 14 C-1.328125 11.25 -1.328125 11.25 -1.25 8 C-1.23453125 6.9275 -1.2190625 5.855 -1.203125 4.75 C-1 2 -1 2 0 0 Z " fill="#FEECBA" transform="translate(388,911)"/>
<path d="M0 0 C0.66 0.33 1.32 0.66 2 1 C2.10251672 6.12583611 2.03590199 10.94997778 1 16 C0.67 16 0.34 16 0 16 C-0.19389096 13.5211787 -0.38040123 11.04219069 -0.5625 8.5625 C-0.61857422 7.85544922 -0.67464844 7.14839844 -0.73242188 6.41992188 C-0.86190993 4.61572163 -0.93521608 2.80768048 -1 1 C-0.67 0.67 -0.34 0.34 0 0 Z " fill="#FFF6DC" transform="translate(388,926)"/>
<path d="M0 0 C2 2 2 2 2.046875 4.0234375 C1.94890625 4.79945313 1.8509375 5.57546875 1.75 6.375 C1.66234375 7.14585937 1.5746875 7.91671875 1.484375 8.7109375 C0.98335114 11.0786793 0.17347456 12.89351698 -1 15 C-2.01603857 9.20858017 -1.96263236 5.5415502 0 0 Z " fill="#FFF5D3" transform="translate(272,572)"/>
<path d="M0 0 C0.33 0 0.66 0 1 0 C1.22262606 2.08185451 1.42757926 4.16560426 1.625 6.25 C1.74101563 7.41015625 1.85703125 8.5703125 1.9765625 9.765625 C1.99955595 12.93872091 1.69705154 14.38317244 0 17 C-0.66 17 -1.32 17 -2 17 C-3 14 -3 14 -2.1015625 12.140625 C-1.73804688 11.43421875 -1.37453125 10.7278125 -1 10 C-0.54935368 7.41467299 -0.54935368 7.41467299 -0.375 4.75 C-0.30023437 3.85796875 -0.22546875 2.9659375 -0.1484375 2.046875 C-0.09945312 1.37140625 -0.05046875 0.6959375 0 0 Z " fill="#F8E1AF" transform="translate(608,1106)"/>
<path d="M0 0 C1.36511719 0.43119141 1.36511719 0.43119141 2.7578125 0.87109375 C3.45648438 1.09925781 4.15515625 1.32742188 4.875 1.5625 C4.545 2.2225 4.215 2.8825 3.875 3.5625 C1.8125 4.1875 1.8125 4.1875 -0.125 4.5625 C-0.125 3.9025 -0.125 3.2425 -0.125 2.5625 C-1.094375 2.43875 -2.06375 2.315 -3.0625 2.1875 C-4.073125 1.98125 -5.08375 1.775 -6.125 1.5625 C-6.455 0.9025 -6.785 0.2425 -7.125 -0.4375 C-4.30685434 -1.84657283 -2.95222796 -0.94622691 0 0 Z " fill="#FEF3D0" transform="translate(425.125,1139.4375)"/>
<path d="M0 0 C0.33 0 0.66 0 1 0 C1.04254356 1.99954746 1.04080783 4.00041636 1 6 C0.67 6.33 0.34 6.66 0 7 C-1.9609375 6.94921875 -1.9609375 6.94921875 -4.375 6.6875 C-5.16648437 6.60886719 -5.95796875 6.53023437 -6.7734375 6.44921875 C-9 6 -9 6 -12 4 C-8.37 4.33 -4.74 4.66 -1 5 C-0.67 3.35 -0.34 1.7 0 0 Z " fill="#F6B84F" transform="translate(486,745)"/>
<path d="M0 0 C3.34373475 0.55728913 6.03312999 1.35173889 9 3 C8.67 3.99 8.34 4.98 8 6 C4.64532525 4.82133049 2.28780716 3.76945078 0 1 C0 0.67 0 0.34 0 0 Z " fill="#FBEEBB" transform="translate(404,1034)"/>
<path d="M0 0 C-1.39332574 3.36720387 -2.9789286 4.9859524 -6 7 C-6.66 6.34 -7.32 5.68 -8 5 C-3.375 0 -3.375 0 0 0 Z " fill="#F9EAB3" transform="translate(582,1155)"/>
<path d="M0 0 C0.80824219 0.10183594 1.61648438 0.20367188 2.44921875 0.30859375 C3.06410156 0.39238281 3.67898438 0.47617188 4.3125 0.5625 C1.22361478 2.62175681 0.60314073 2.8015374 -2.875 2.6875 C-4.7621875 2.625625 -4.7621875 2.625625 -6.6875 2.5625 C-7.0175 1.9025 -7.3475 1.2425 -7.6875 0.5625 C-4.59271121 -0.46909626 -3.16118607 -0.41232862 0 0 Z " fill="#FBE7BA" transform="translate(498.6875,1194.4375)"/>
<path d="M0 0 C0.33 0 0.66 0 1 0 C1.3125 2.75 1.3125 2.75 1 6 C-1.5 8.375 -1.5 8.375 -4 10 C-3.4359146 6.05140217 -2.2568294 3.29120954 0 0 Z " fill="#F9E6B4" transform="translate(422,1106)"/>
<path d="M0 0 C0.66 0.33 1.32 0.66 2 1 C1.34 3.97 0.68 6.94 0 10 C-0.99 9.01 -1.98 8.02 -3 7 C-2.01 4.69 -1.02 2.38 0 0 Z " fill="#FEECB5" transform="translate(621,982)"/>
<path d="M0 0 C0.33 0.66 0.66 1.32 1 2 C1.66 2 2.32 2 3 2 C3.25 8.625 3.25 8.625 1 12 C0.67 8.04 0.34 4.08 0 0 Z " fill="#FEEAB7" transform="translate(755,605)"/>
<path d="M0 0 C1.8871875 0.061875 1.8871875 0.061875 3.8125 0.125 C3.8125 1.115 3.8125 2.105 3.8125 3.125 C0.1825 2.795 -3.4475 2.465 -7.1875 2.125 C-4.09861478 0.06574319 -3.47814073 -0.1140374 0 0 Z " fill="#FEEDB5" transform="translate(558.1875,402.875)"/>
<path d="M0 0 C-0.33 2.64 -0.66 5.28 -1 8 C-1.33 8 -1.66 8 -2 8 C-2.433125 6.576875 -2.433125 6.576875 -2.875 5.125 C-3.76825109 1.94788422 -3.76825109 1.94788422 -6 0 C-3.50907189 -1.24546405 -2.58919267 -0.7767578 0 0 Z " fill="#FEF9D9" transform="translate(420,1090)"/>
<path d="M0 0 C0 0.99 0 1.98 0 3 C-3.3 2.67 -6.6 2.34 -10 2 C-6.3558226 -0.4294516 -4.28758728 -0.16179575 0 0 Z " fill="#FEEAAF" transform="translate(578,406)"/>
<path d="M0 0 C2.35953094 2.35953094 2.49141413 3.77895617 3 7 C2.01 7.33 1.02 7.66 0 8 C-1.125 2.25 -1.125 2.25 0 0 Z " fill="#FEEEBE" transform="translate(280,714)"/>
<path d="M0 0 C1.32 0.66 2.64 1.32 4 2 C3.01 2 2.02 2 1 2 C0.67 2.99 0.34 3.98 0 5 C-0.99 5.33 -1.98 5.66 -3 6 C-3 4.68 -3 3.36 -3 2 C-2.01 1.34 -1.02 0.68 0 0 Z " fill="#FCF1CD" transform="translate(547,1185)"/>
<path d="M0 0 C0.66 0.33 1.32 0.66 2 1 C1.25 5.75 1.25 5.75 -1 8 C-1.625 5.6875 -1.625 5.6875 -2 3 C-1.34 2.01 -0.68 1.02 0 0 Z " fill="#FEF3CD" transform="translate(624,977)"/>
<path d="M0 0 C0.66 0 1.32 0 2 0 C0.515 5.445 0.515 5.445 -1 11 C-3 8 -3 8 -3 6 C-2.34 6 -1.68 6 -1 6 C-0.67 4.02 -0.34 2.04 0 0 Z " fill="#FFF7D1" transform="translate(647,873)"/>
<path d="M0 0 C0 0.33 0 0.66 0 1 C-3.3 1.33 -6.6 1.66 -10 2 C-10 1.34 -10 0.68 -10 0 C-6.7169902 -1.6415049 -3.57454967 -0.51888624 0 0 Z " fill="#FFEBB0" transform="translate(467,405)"/>
<path d="M0 0 C2.91517292 1.07401108 4.77810176 1.77810176 7 4 C5.1875 4.625 5.1875 4.625 3 5 C2.01 4.34 1.02 3.68 0 3 C0 2.01 0 1.02 0 0 Z " fill="#FAECBB" transform="translate(478,1187)"/>
<path d="M0 0 C0.66 0.99 1.32 1.98 2 3 C0.35 4.98 -1.3 6.96 -3 9 C-3.66 8.34 -4.32 7.68 -5 7 C-4.0409375 6.1028125 -4.0409375 6.1028125 -3.0625 5.1875 C-0.79689611 3.09189663 -0.79689611 3.09189663 0 0 Z " fill="#C77A2A" transform="translate(423,1109)"/>
<path d="M0 0 C0.33 1.32 0.66 2.64 1 4 C1.66 4 2.32 4 3 4 C2.67 6.31 2.34 8.62 2 11 C1.67 11 1.34 11 1 11 C0.67 7.37 0.34 3.74 0 0 Z " fill="#FAE6BF" transform="translate(606,1071)"/>
<path d="M0 0 C-4.75 4 -4.75 4 -7 4 C-7 3.01 -7 2.02 -7 1 C-3.375 -1.125 -3.375 -1.125 0 0 Z " fill="#FDF4CF" transform="translate(619,1033)"/>
<path d="M0 0 C0.33 0 0.66 0 1 0 C1.49230769 6.4 1.49230769 6.4 -1 9.4375 C-1.99 10.2109375 -1.99 10.2109375 -3 11 C-1.125 3.375 -1.125 3.375 0 0 Z " fill="#FBE9B0" transform="translate(625,1019)"/>
<path d="M0 0 C0.66 0 1.32 0 2 0 C2 2.64 2 5.28 2 8 C1.34 8 0.68 8 0 8 C-1.125 2.25 -1.125 2.25 0 0 Z " fill="#FFFCE3" transform="translate(407,1072)"/>
<path d="M0 0 C0.66 0.66 1.32 1.32 2 2 C1.625 4.625 1.625 4.625 1 7 C0.01 7 -0.98 7 -2 7 C-1.34 4.69 -0.68 2.38 0 0 Z " fill="#FFF0BF" transform="translate(743,714)"/>
<path d="M0 0 C2.50037734 2.17424117 3.43628586 3.73045798 4 7 C2.68 6.67 1.36 6.34 0 6 C0 4.02 0 2.04 0 0 Z " fill="#FEF5D1" transform="translate(722,510)"/>
<path d="M0 0 C1.32 1.32 2.64 2.64 4 4 C3.67 4.66 3.34 5.32 3 6 C2.01 5.67 1.02 5.34 0 5 C-0.75 3 -0.75 3 -1 1 C-0.67 0.67 -0.34 0.34 0 0 Z " fill="#FEF1AE" transform="translate(711,495)"/>
<path d="M0 0 C0.99 0.495 0.99 0.495 2 1 C1.01 1.495 1.01 1.495 0 2 C0 1.34 0 0.68 0 0 Z " fill="#FFFFFF" transform="translate(614,1115)"/>
<path d="" fill="#FFFFFF" transform="translate(0,0)"/>
<path d="M0 0 C2 1 2 1 2 1 Z " fill="#FFFFFF" transform="translate(409,1054)"/>
<path d="M0 0 C2 1 2 1 2 1 Z " fill="#FFFFFF" transform="translate(620,1034)"/>
<path d="M0 0 C2 1 2 1 2 1 Z " fill="#FFFFFF" transform="translate(627,1029)"/>
<path d="" fill="#FFFFFF" transform="translate(0,0)"/>
<path d="" fill="#FFFFFF" transform="translate(0,0)"/>
<path d="M0 0 C2 1 2 1 2 1 Z " fill="#FFFFFF" transform="translate(667,845)"/>
<path d="M0 0 C2 1 2 1 2 1 Z " fill="#FFFFFF" transform="translate(298,763)"/>
<path d="M0 0 C2 1 2 1 2 1 Z " fill="#FFFFFF" transform="translate(748,717)"/>
<path d="" fill="#FFFFFF" transform="translate(0,0)"/>
<path d="" fill="#FFFFFF" transform="translate(0,0)"/>
<path d="" fill="#FFFFFF" transform="translate(0,0)"/>
<path d="M0 0 C2 1 2 1 2 1 Z " fill="#FFFFFF" transform="translate(298,508)"/>
<path d="M0 0 C2 1 2 1 2 1 Z " fill="#FFFFFF" transform="translate(323,474)"/>
<path d="M0 0 C2 1 2 1 2 1 Z " fill="#FFFFFF" transform="translate(599,410)"/>
<path d="" fill="#FFFFFF" transform="translate(0,0)"/>
<path d="" fill="#FFFFFF" transform="translate(0,0)"/>
<path d="" fill="#FFFFFF" transform="translate(0,0)"/>
<path d="" fill="#FFFFFF" transform="translate(0,0)"/>
<path d="" fill="#FFFFFF" transform="translate(0,0)"/>
<path d="" fill="#FFFFFF" transform="translate(0,0)"/>
<path d="" fill="#FFFFFF" transform="translate(0,0)"/>
<path d="" fill="#FFFFFF" transform="translate(0,0)"/>
<path d="" fill="#FFFFFF" transform="translate(0,0)"/>
<path d="" fill="#FFFFFF" transform="translate(0,0)"/>
<path d="" fill="#FFFFFF" transform="translate(0,0)"/>
<path d="" fill="#FFFFFF" transform="translate(0,0)"/>
<path d="" fill="#FFFFFF" transform="translate(0,0)"/>
<path d="" fill="#FFFFFF" transform="translate(0,0)"/>
<path d="" fill="#FFFFFF" transform="translate(0,0)"/>
<path d="" fill="#FFFFFF" transform="translate(0,0)"/>
<path d="" fill="#FFFFFF" transform="translate(0,0)"/>
<path d="" fill="#FFFFFF" transform="translate(0,0)"/>
<path d="" fill="#FFFFFF" transform="translate(0,0)"/>
<path d="" fill="#FFFFFF" transform="translate(0,0)"/>
<path d="" fill="#FFFFFF" transform="translate(0,0)"/>
<path d="" fill="#FFFFFF" transform="translate(0,0)"/>
<path d="" fill="#FFFFFF" transform="translate(0,0)"/>
<path d="" fill="#FFFFFF" transform="translate(0,0)"/>
<path d="" fill="#FFFFFF" transform="translate(0,0)"/>
<path d="" fill="#FFFFFF" transform="translate(0,0)"/>
<path d="" fill="#FFFFFF" transform="translate(0,0)"/>
<path d="" fill="#FFFFFF" transform="translate(0,0)"/>
<path d="" fill="#FFFFFF" transform="translate(0,0)"/>
<path d="" fill="#FFFFFF" transform="translate(0,0)"/>
<path d="" fill="#FFFFFF" transform="translate(0,0)"/>
<path d="" fill="#FFFFFF" transform="translate(0,0)"/>
<path d="" fill="#FFFFFF" transform="translate(0,0)"/>
<path d="" fill="#FFFFFF" transform="translate(0,0)"/>
<path d="" fill="#FFFFFF" transform="translate(0,0)"/>
<path d="" fill="#FFFFFF" transform="translate(0,0)"/>
<path d="" fill="#FFFFFF" transform="translate(0,0)"/>
<path d="" fill="#FFFFFF" transform="translate(0,0)"/>
<path d="" fill="#FFFFFF" transform="translate(0,0)"/>
<path d="" fill="#FFFFFF" transform="translate(0,0)"/>
<path d="" fill="#FFFFFF" transform="translate(0,0)"/>
<path d="" fill="#FFFFFF" transform="translate(0,0)"/>
<path d="" fill="#FFFFFF" transform="translate(0,0)"/>
<path d="" fill="#FFFFFF" transform="translate(0,0)"/>
<path d="" fill="#FFFFFF" transform="translate(0,0)"/>
<path d="" fill="#FFFFFF" transform="translate(0,0)"/>
<path d="" fill="#FFFFFF" transform="translate(0,0)"/>
<path d="" fill="#FFFFFF" transform="translate(0,0)"/>
<path d="" fill="#FFFFFF" transform="translate(0,0)"/>
<path d="" fill="#FFFFFF" transform="translate(0,0)"/>
<path d="" fill="#FFFFFF" transform="translate(0,0)"/>
<path d="" fill="#FFFFFF" transform="translate(0,0)"/>
<path d="" fill="#FFFFFF" transform="translate(0,0)"/>
<path d="" fill="#FFFFFF" transform="translate(0,0)"/>
<path d="" fill="#FFFFFF" transform="translate(0,0)"/>
<path d="" fill="#FFFFFF" transform="translate(0,0)"/>
<path d="" fill="#FFFFFF" transform="translate(0,0)"/>
<path d="" fill="#FFFFFF" transform="translate(0,0)"/>
<path d="" fill="#FFFFFF" transform="translate(0,0)"/>
<path d="" fill="#FFFFFF" transform="translate(0,0)"/>
<path d="" fill="#FFFFFF" transform="translate(0,0)"/>
<path d="" fill="#FFFFFF" transform="translate(0,0)"/>
<path d="" fill="#FFFFFF" transform="translate(0,0)"/>
<path d="" fill="#FFFFFF" transform="translate(0,0)"/>
<path d="" fill="#FFFFFF" transform="translate(0,0)"/>
<path d="" fill="#FFFFFF" transform="translate(0,0)"/>
<path d="" fill="#FFFFFF" transform="translate(0,0)"/>
<path d="" fill="#FFFFFF" transform="translate(0,0)"/>
<path d="" fill="#FFFFFF" transform="translate(0,0)"/>
<path d="" fill="#FFFFFF" transform="translate(0,0)"/>
<path d="" fill="#FFFFFF" transform="translate(0,0)"/>
<path d="" fill="#FFFFFF" transform="translate(0,0)"/>
<path d="" fill="#FFFFFF" transform="translate(0,0)"/>
<path d="" fill="#FFFFFF" transform="translate(0,0)"/>
<path d="" fill="#FFFFFF" transform="translate(0,0)"/>
<path d="" fill="#FFFFFF" transform="translate(0,0)"/>
<path d="" fill="#FFFFFF" transform="translate(0,0)"/>
<path d="" fill="#FFFFFF" transform="translate(0,0)"/>
<path d="" fill="#FFFFFF" transform="translate(0,0)"/>
<path d="" fill="#FFFFFF" transform="translate(0,0)"/>
<path d="" fill="#FFFFFF" transform="translate(0,0)"/>
<path d="" fill="#FFFFFF" transform="translate(0,0)"/>
<path d="" fill="#FFFFFF" transform="translate(0,0)"/>
<path d="" fill="#FFFFFF" transform="translate(0,0)"/>
<path d="" fill="#FFFFFF" transform="translate(0,0)"/>
<path d="" fill="#FFFFFF" transform="translate(0,0)"/>
<path d="" fill="#FFFFFF" transform="translate(0,0)"/>
<path d="" fill="#FFFFFF" transform="translate(0,0)"/>
<path d="" fill="#FFFFFF" transform="translate(0,0)"/>
<path d="" fill="#FFFFFF" transform="translate(0,0)"/>
<path d="" fill="#FFFFFF" transform="translate(0,0)"/>
<path d="" fill="#FFFFFF" transform="translate(0,0)"/>
<path d="" fill="#FFFFFF" transform="translate(0,0)"/>
<path d="" fill="#FFFFFF" transform="translate(0,0)"/>
<path d="" fill="#FFFFFF" transform="translate(0,0)"/>
<path d="" fill="#FFFFFF" transform="translate(0,0)"/>
<path d="" fill="#FFFFFF" transform="translate(0,0)"/>
<path d="" fill="#FFFFFF" transform="translate(0,0)"/>
<path d="" fill="#FFFFFF" transform="translate(0,0)"/>
<path d="" fill="#FFFFFF" transform="translate(0,0)"/>
<path d="" fill="#FFFFFF" transform="translate(0,0)"/>
<path d="" fill="#FFFFFF" transform="translate(0,0)"/>
<path d="" fill="#FFFFFF" transform="translate(0,0)"/>
<path d="" fill="#FFFFFF" transform="translate(0,0)"/>
<path d="" fill="#FFFFFF" transform="translate(0,0)"/>
<path d="" fill="#FFFFFF" transform="translate(0,0)"/>
<path d="" fill="#FFFFFF" transform="translate(0,0)"/>
<path d="" fill="#FFFFFF" transform="translate(0,0)"/>
<path d="" fill="#FFFFFF" transform="translate(0,0)"/>
<path d="" fill="#FFFFFF" transform="translate(0,0)"/>
<path d="" fill="#FFFFFF" transform="translate(0,0)"/>
<path d="" fill="#FFFFFF" transform="translate(0,0)"/>
<path d="" fill="#FFFFFF" transform="translate(0,0)"/>
<path d="" fill="#FFFFFF" transform="translate(0,0)"/>
<path d="" fill="#FFFFFF" transform="translate(0,0)"/>
<path d="" fill="#FFFFFF" transform="translate(0,0)"/>
<path d="" fill="#FFFFFF" transform="translate(0,0)"/>
<path d="" fill="#FFFFFF" transform="translate(0,0)"/>
<path d="" fill="#FFFFFF" transform="translate(0,0)"/>
<path d="" fill="#FFFFFF" transform="translate(0,0)"/>
<path d="" fill="#FFFFFF" transform="translate(0,0)"/>
<path d="" fill="#FFFFFF" transform="translate(0,0)"/>
<path d="" fill="#FFFFFF" transform="translate(0,0)"/>
<path d="" fill="#FFFFFF" transform="translate(0,0)"/>
<path d="" fill="#FFFFFF" transform="translate(0,0)"/>
<path d="" fill="#FFFFFF" transform="translate(0,0)"/>
<path d="" fill="#FFFFFF" transform="translate(0,0)"/>
<path d="" fill="#FFFFFF" transform="translate(0,0)"/>
<path d="" fill="#FFFFFF" transform="translate(0,0)"/>
<path d="" fill="#FFFFFF" transform="translate(0,0)"/>
<path d="" fill="#FFFFFF" transform="translate(0,0)"/>
<path d="" fill="#FFFFFF" transform="translate(0,0)"/>
<path d="" fill="#FFFFFF" transform="translate(0,0)"/>
<path d="" fill="#FFFFFF" transform="translate(0,0)"/>
<path d="" fill="#FFFFFF" transform="translate(0,0)"/>
<path d="" fill="#FFFFFF" transform="translate(0,0)"/>
<path d="" fill="#FFFFFF" transform="translate(0,0)"/>
<path d="" fill="#FFFFFF" transform="translate(0,0)"/>
<path d="" fill="#FFFFFF" transform="translate(0,0)"/>
<path d="" fill="#FFFFFF" transform="translate(0,0)"/>
<path d="" fill="#FFFFFF" transform="translate(0,0)"/>
<path d="" fill="#FFFFFF" transform="translate(0,0)"/>
<path d="" fill="#FFFFFF" transform="translate(0,0)"/>
<path d="" fill="#FFFFFF" transform="translate(0,0)"/>
<path d="" fill="#FFFFFF" transform="translate(0,0)"/>
<path d="" fill="#FFFFFF" transform="translate(0,0)"/>
<path d="" fill="#FFFFFF" transform="translate(0,0)"/>
<path d="" fill="#FFFFFF" transform="translate(0,0)"/>
<path d="" fill="#FFFFFF" transform="translate(0,0)"/>
<path d="" fill="#FFFFFF" transform="translate(0,0)"/>
<path d="" fill="#FFFFFF" transform="translate(0,0)"/>
<path d="" fill="#FFFFFF" transform="translate(0,0)"/>
<path d="" fill="#FFFFFF" transform="translate(0,0)"/>
<path d="" fill="#FFFFFF" transform="translate(0,0)"/>
<path d="" fill="#FFFFFF" transform="translate(0,0)"/>
<path d="" fill="#FFFFFF" transform="translate(0,0)"/>
<path d="" fill="#FFFFFF" transform="translate(0,0)"/>
<path d="" fill="#FFFFFF" transform="translate(0,0)"/>
<path d="" fill="#FFFFFF" transform="translate(0,0)"/>
<path d="" fill="#FFFFFF" transform="translate(0,0)"/>
<path d="" fill="#FFFFFF" transform="translate(0,0)"/>
<path d="" fill="#FFFFFF" transform="translate(0,0)"/>
<path d="" fill="#FFFFFF" transform="translate(0,0)"/>
<path d="" fill="#FFFFFF" transform="translate(0,0)"/>
<path d="" fill="#FFFFFF" transform="translate(0,0)"/>
<path d="" fill="#FFFFFF" transform="translate(0,0)"/>
<path d="" fill="#FFFFFF" transform="translate(0,0)"/>
<path d="" fill="#FFFFFF" transform="translate(0,0)"/>
<path d="" fill="#FFFFFF" transform="translate(0,0)"/>
<path d="" fill="#FFFFFF" transform="translate(0,0)"/>
<path d="" fill="#FFFFFF" transform="translate(0,0)"/>
</svg>
