<?xml version="1.0" encoding="UTF-8"?>
<svg version="1.1" xmlns="http://www.w3.org/2000/svg" width="1024" height="1536">
<path d="M0 0 C1.01615072 0.00070055 1.01615072 0.00070055 2.05282974 0.00141525 C19.59890444 0.01424386 37.10148409 0.34600205 54.625 1.25 C55.88828125 1.31219727 57.1515625 1.37439453 58.453125 1.43847656 C74.0825559 2.27542589 89.47891393 4.19823409 104.93676758 6.57324219 C105.66134659 6.68314484 106.3859256 6.79304749 107.13246155 6.90628052 C109.10437827 7.20675407 111.07518324 7.5144983 113.04589844 7.82275391 C116.63621301 8.32626348 116.63621301 8.32626348 120.32275391 8.23022461 C123.31058608 8.24811714 125.11964753 8.51917364 127.8515625 9.58984375 C133.13941789 11.49692078 138.50578881 12.65754977 144 13.8125 C145.44632813 14.12477539 145.44632813 14.12477539 146.921875 14.44335938 C152.70487681 15.67980547 158.49517673 16.78427943 164.32836914 17.7578125 C167.39462553 18.41493729 169.86498049 19.78190452 172.625 21.25 C176.79194139 22.65844078 181.03472157 23.82202801 185.28125 24.96484375 C190.44452346 26.40340639 194.21239255 28.11214582 198.625 31.25 C200.23375 31.8996875 200.23375 31.8996875 201.875 32.5625 C209.00768477 35.46312514 215.5142809 40.55519872 220.625 46.25 C221.49125 47.1575 222.3575 48.065 223.25 49 C228.87146678 55.96445777 229.04755068 64.26655102 228.91796875 72.84765625 C228.91372391 73.92252792 228.90947906 74.9973996 228.90510559 76.10484314 C228.88843339 79.50765998 228.85080223 82.90986488 228.8125 86.3125 C228.79743837 88.63215285 228.78375256 90.95181507 228.77148438 93.27148438 C228.73856752 98.9311952 228.68848361 104.59055386 228.625 110.25 C229.49713135 110.10925049 230.3692627 109.96850098 231.26782227 109.82348633 C258.73733564 105.60955043 285.24578327 108.25144841 308.625 124.25 C309.71554687 124.99056641 309.71554687 124.99056641 310.828125 125.74609375 C315.16365065 128.83716297 318.31922909 132.09417371 321.625 136.25 C322.615 136.91 323.605 137.57 324.625 138.25 C326.01171875 140.5625 326.01171875 140.5625 327.3125 143.25 C327.96798828 144.5803125 327.96798828 144.5803125 328.63671875 145.9375 C329.625 148.25 329.625 148.25 329.625 150.25 C330.285 150.58 330.945 150.91 331.625 151.25 C332.37208624 153.26363089 333.02380924 155.31310357 333.625 157.375 C333.955 158.49132812 334.285 159.60765625 334.625 160.7578125 C334.955 161.91023437 335.285 163.06265625 335.625 164.25 C336.17414063 165.77560547 336.17414063 165.77560547 336.734375 167.33203125 C338.34179852 172.98953166 337.91248725 178.98635631 337.875 184.8125 C337.88273438 186.01841797 337.89046875 187.22433594 337.8984375 188.46679688 C337.89457031 190.21766602 337.89457031 190.21766602 337.890625 192.00390625 C337.88836914 193.05908447 337.88611328 194.1142627 337.88378906 195.20141602 C337.60387106 198.49890292 336.76592276 201.15302031 335.625 204.25 C335.25322561 205.5407638 334.89224479 206.83473427 334.546875 208.1328125 C332.12379667 216.9673623 329.53568115 225.41595149 324.625 233.25 C323.965 233.58 323.305 233.91 322.625 234.25 C321.94153318 235.90984798 321.27911685 237.57836805 320.625 239.25 C318.02946963 244.64071692 315.13061718 247.86966724 310.5234375 251.671875 C308.47595686 253.31789254 308.47595686 253.31789254 306.25 255.6875 C304.625 257.25 304.625 257.25 302.625 257.25 C302.41617188 257.81976562 302.20734375 258.38953125 301.9921875 258.9765625 C292.26369957 275.15364815 261.47236454 282.49925248 244.625 287.25 C245.46160156 287.54132813 246.29820312 287.83265625 247.16015625 288.1328125 C258.90190244 292.2677796 270.63194682 296.46793634 281.671875 302.26953125 C283.75048346 303.37127439 283.75048346 303.37127439 286.625 304.25 C286.625 304.91 286.625 305.57 286.625 306.25 C287.35332031 306.52585937 288.08164062 306.80171875 288.83203125 307.0859375 C306.24078226 314.34161275 321.34984836 328.82694453 328.625 346.25 C331.64215035 355.96522412 329.14033034 365.08961363 325.625 374.25 C324.94995937 376.24718917 324.28101909 378.24648224 323.625 380.25 C322.965 380.25 322.305 380.25 321.625 380.25 C321.21701172 381.34828125 321.21701172 381.34828125 320.80078125 382.46875 C315.87201102 394.12750216 304.78906038 404.86768246 294.625 412.25 C293.965 412.25 293.305 412.25 292.625 412.25 C292.625 412.91 292.625 413.57 292.625 414.25 C290.5305032 415.88429751 288.44717909 417.39167234 286.25 418.875 C285.64671875 419.29523438 285.0434375 419.71546875 284.421875 420.1484375 C279.89037135 423.25 279.89037135 423.25 277.625 423.25 C277.625 423.91 277.625 424.57 277.625 425.25 C276.78582031 425.6521875 276.78582031 425.6521875 275.9296875 426.0625 C270.7723987 428.58310417 265.76892144 431.29413662 260.8125 434.1875 C250.20823854 440.33074768 239.10649334 445.00258189 227.625 449.25 C226.04946309 449.83719646 224.47394338 450.42443904 222.8984375 451.01171875 C221.22416017 451.63335637 219.54968142 452.2544518 217.875 452.875 C217.09495605 453.16431396 216.31491211 453.45362793 215.51123047 453.75170898 C213.21961906 454.59548932 210.92403919 455.42668223 208.625 456.25 C207.81998047 456.5397168 207.01496094 456.82943359 206.18554688 457.12792969 C205.39728516 457.40282227 204.60902344 457.67771484 203.796875 457.9609375 C202.73871582 458.3329126 202.73871582 458.3329126 201.65917969 458.71240234 C199.625 459.25 199.625 459.25 195.625 459.25 C195.295 459.91 194.965 460.57 194.625 461.25 C192.44219043 461.92257438 190.2248965 462.48342525 188 463 C186.53345713 463.34728597 185.0673347 463.69635055 183.6015625 464.046875 C182.80266602 464.23701172 182.00376953 464.42714844 181.18066406 464.62304688 C177.53581965 465.51719671 173.91538347 466.49716882 170.29101562 467.47045898 C148.74925848 473.22923582 126.85804006 477.58276598 104.5703125 479.0078125 C101.51094103 479.25937885 98.52939852 479.69398896 95.5 480.1875 C79.8628883 482.70747455 64.16841585 483.66132217 48.35522461 484.25537109 C45.19413954 484.37474926 42.03364002 484.50501717 38.87304688 484.63671875 C18.69636488 485.45108118 -1.31563814 485.30853464 -21.48925781 484.45043945 C-24.79470553 484.31060882 -28.10042329 484.17935966 -31.40625 484.04882812 C-33.52866662 483.96144085 -35.65106334 483.87356865 -37.7734375 483.78515625 C-38.75154388 483.74656998 -39.72965027 483.7079837 -40.73739624 483.66822815 C-45.36897891 483.46614985 -49.80718139 483.09404384 -54.375 482.25 C-55.365 482.25 -56.355 482.25 -57.375 482.25 C-60.21094467 481.95314807 -63.04266054 481.64045206 -65.875 481.3125 C-70.97572662 480.73019527 -76.07003644 480.16697851 -81.1875 479.75 C-90.34441794 478.94408006 -99.38906203 477.2692867 -108.4375 475.6875 C-109.16404785 475.56068848 -109.8905957 475.43387695 -110.63916016 475.30322266 C-113.91493615 474.72207374 -117.16373357 474.12579993 -120.375 473.25 C-120.705 473.91 -121.035 474.57 -121.375 475.25 C-121.375 474.26 -121.375 473.27 -121.375 472.25 C-122.00664062 472.21261719 -122.63828125 472.17523437 -123.2890625 472.13671875 C-130.16160215 471.63167621 -136.69458169 470.42279583 -143.40625 468.87109375 C-146.35890034 468.14761146 -146.35890034 468.14761146 -149.375 468.25 C-149.375 467.59 -149.375 466.93 -149.375 466.25 C-150.509375 466.188125 -151.64375 466.12625 -152.8125 466.0625 C-164.58885178 464.73766042 -176.24182888 460.05582613 -187.39819336 456.21801758 C-190.28213129 455.23333022 -193.0542561 454.31377364 -196.046875 453.71875 C-198.85385999 453.15358524 -201.24923385 452.13975564 -203.875 451 C-208.03036766 449.22273461 -212.19616364 447.56003176 -216.4375 446 C-222.16819996 443.81720618 -227.70715395 441.30909472 -233.25 438.6875 C-234.04672119 438.31141602 -234.84344238 437.93533203 -235.66430664 437.54785156 C-240.35824544 435.30106219 -244.88897404 432.88778327 -249.375 430.25 C-249.375 429.59 -249.375 428.93 -249.375 428.25 C-249.91125 428.146875 -250.4475 428.04375 -251 427.9375 C-256.76839777 426.26770065 -262.60822766 422.91581731 -267.375 419.25 C-267.375 418.59 -267.375 417.93 -267.375 417.25 C-268.43267578 416.89421875 -268.43267578 416.89421875 -269.51171875 416.53125 C-272.87786868 415.02497827 -275.34483173 413.09415483 -278.1875 410.75 C-279.65123047 409.55890625 -279.65123047 409.55890625 -281.14453125 408.34375 C-281.88058594 407.6528125 -282.61664063 406.961875 -283.375 406.25 C-283.375 405.59 -283.375 404.93 -283.375 404.25 C-284.24125 403.87875 -284.24125 403.87875 -285.125 403.5 C-287.70439979 402.06700012 -289.43621592 400.46575324 -291.375 398.25 C-291.375 397.59 -291.375 396.93 -291.375 396.25 C-291.96410156 396.01410156 -292.55320312 395.77820313 -293.16015625 395.53515625 C-299.57304695 391.81409621 -304.41077562 381.92974987 -307.375 375.25 C-307.375 374.26 -307.375 373.27 -307.375 372.25 C-308.035 371.92 -308.695 371.59 -309.375 371.25 C-309.9296875 369.40625 -309.9296875 369.40625 -310.375 367.25 C-310.74625 366.095 -311.1175 364.94 -311.5 363.75 C-314.04435719 353.18113166 -310.84718677 344.28863686 -305.375 335.25 C-303.8046875 332.90625 -303.8046875 332.90625 -302.375 331.25 C-301.715 331.25 -301.055 331.25 -300.375 331.25 C-300.1275 330.6725 -299.88 330.095 -299.625 329.5 C-298.19200012 326.92060021 -296.59075324 325.18878408 -294.375 323.25 C-293.715 323.25 -293.055 323.25 -292.375 323.25 C-292.1275 322.46625 -291.88 321.6825 -291.625 320.875 C-290.375 318.25 -290.375 318.25 -288.4375 316.9375 C-286.375 316.25 -286.375 316.25 -283.375 316.25 C-283.045 315.26 -282.715 314.27 -282.375 313.25 C-280.725 312.92 -279.075 312.59 -277.375 312.25 C-277.375 311.59 -277.375 310.93 -277.375 310.25 C-276.446875 309.816875 -276.446875 309.816875 -275.5 309.375 C-273.24174235 308.31279958 -273.24174235 308.31279958 -271.375 306.25 C-267.98810569 304.70253967 -264.57569481 303.25168892 -261.140625 301.81640625 C-256.92240891 300.05980793 -256.92240891 300.05980793 -253.375 297.25 C-251.39704178 296.40476785 -249.39214082 295.62191299 -247.375 294.875 C-243.3145838 293.35345943 -239.26661254 291.82126684 -235.25 290.1875 C-231.76537644 288.79025646 -228.26851115 287.43477544 -224.75 286.125 C-223.91210938 285.81304688 -223.07421875 285.50109375 -222.2109375 285.1796875 C-219.3743502 284.24978698 -216.51888657 283.52504456 -213.61914062 282.82128906 C-211.16588513 282.1967658 -208.74371434 281.49603881 -206.31640625 280.77734375 C-205.43533203 280.51759766 -204.55425781 280.25785156 -203.64648438 279.99023438 C-201.84301565 279.45582511 -200.04091639 278.916772 -198.24023438 278.37304688 C-193.22123427 276.90290879 -188.4931142 275.88032002 -183.26538086 275.56079102 C-181.04770304 275.32962463 -181.04770304 275.32962463 -178.375 273.25 C-178.72691406 272.69054687 -179.07882812 272.13109375 -179.44140625 271.5546875 C-195.375 245.67819843 -195.375 245.67819843 -195.375 236.25 C-196.035 235.92 -196.695 235.59 -197.375 235.25 C-197.875 233.625 -197.875 233.625 -198.375 231.25 C-199.68423909 226.51482251 -201.15516155 221.85439398 -202.6875 217.1875 C-214.6378832 179.38253634 -216.53924086 140.09050364 -216.5625 100.75 C-216.56358765 99.76052368 -216.56467529 98.77104736 -216.5657959 97.75158691 C-216.56456738 87.90827204 -216.46031444 78.07503864 -215.98046875 68.2421875 C-215.93372261 67.16426941 -215.93372261 67.16426941 -215.8860321 66.0645752 C-215.44507462 58.27322198 -213.37106176 51.30465882 -208.375 45.25 C-206.73895804 43.87926214 -205.06821939 42.54944744 -203.375 41.25 C-202.47523438 40.46496094 -201.57546875 39.67992187 -200.6484375 38.87109375 C-197.45074002 36.20234608 -193.9986216 34.16995575 -190.3125 32.25 C-189.66490723 31.9082373 -189.01731445 31.56647461 -188.35009766 31.21435547 C-182.20218121 28.0377071 -175.88639792 25.58975023 -169.375 23.25 C-168.51132812 22.87617187 -167.64765625 22.50234375 -166.7578125 22.1171875 C-164.375 21.25 -164.375 21.25 -160.375 21.25 C-160.045 20.59 -159.715 19.93 -159.375 19.25 C-157.21484375 18.5390625 -157.21484375 18.5390625 -154.3125 17.875 C-153.21808594 17.61847656 -152.12367188 17.36195313 -150.99609375 17.09765625 C-149.80113281 16.81792969 -148.60617187 16.53820312 -147.375 16.25 C-144.87464958 15.60552465 -142.37466678 14.95962186 -139.875 14.3125 C-132.61351355 12.46495046 -125.29398637 10.9738568 -117.9375 9.55688477 C-117.12667969 9.40018311 -116.31585938 9.24348145 -115.48046875 9.08203125 C-114.39995239 8.87670776 -114.39995239 8.87670776 -113.29760742 8.66723633 C-111.17100966 8.24191337 -111.17100966 8.24191337 -108.375 7.25 C-106.1875 7.6875 -106.1875 7.6875 -104.375 8.25 C-104.045 7.59 -103.715 6.93 -103.375 6.25 C-101.59667969 5.85522461 -101.59667969 5.85522461 -99.296875 5.65234375 C-98.46542969 5.57306641 -97.63398438 5.49378906 -96.77734375 5.41210938 C-95.90207031 5.33798828 -95.02679688 5.26386719 -94.125 5.1875 C-92.41126578 5.03205634 -90.69771612 4.87456199 -88.984375 4.71484375 C-88.22092773 4.649021 -87.45748047 4.58319824 -86.67089844 4.51538086 C-84.36770196 4.28562374 -84.36770196 4.28562374 -82.10571289 3.76806641 C-55.52334162 -1.27509782 -26.98300516 -0.04042646 0 0 Z M227.86083984 152.64282227 C225.97897475 155.09013912 225.84962037 157.47073917 225.4375 160.5 C225.20160156 162.2325 225.20160156 162.2325 224.9609375 164 C224.60289579 167.46384535 224.54603015 170.77532671 224.625 174.25 C224.295 174.58 223.965 174.91 223.625 175.25 C223.25005204 177.51433416 222.92496057 179.7870179 222.625 182.0625 C222.12057887 185.86536241 221.59404508 189.5420392 220.625 193.25 C220.39119629 194.16539551 220.15739258 195.08079102 219.91650391 196.02392578 C219.02973843 199.47481959 218.14009472 202.92496346 217.25 206.375 C216.94578125 207.5609375 216.6415625 208.746875 216.328125 209.96875 C213.55296615 220.71359582 210.70333637 230.53875187 205.734375 240.46484375 C204.27196378 243.26561357 204.27196378 243.26561357 205.625 246.25 C210.14577862 246.30834421 214.66645953 246.34371252 219.1875 246.375 C220.46431641 246.39175781 221.74113281 246.40851563 223.05664062 246.42578125 C229.33664602 246.45840465 234.70705948 246.38525692 240.625 244.25 C242.18388999 243.95910665 243.7463292 243.6862287 245.3125 243.4375 C254.30943077 241.67366403 262.29144701 237.8697229 269.734375 232.58203125 C271.625 231.25 271.625 231.25 274.3125 229.8125 C277.20392136 227.85883692 279.12407247 225.48598852 281.29296875 222.7734375 C282.625 221.25 282.625 221.25 284.625 220.25 C294.07467513 205.61650309 297.89717029 188.97366351 295.234375 171.71875 C293.36859375 165.88220354 289.03449385 160.39298598 284.625 156.25 C281.98184757 155.40763169 281.98184757 155.40763169 279.625 155.25 C279.625 154.59 279.625 153.93 279.625 153.25 C278.47 152.775625 277.315 152.30125 276.125 151.8125 C275.15046875 151.41224609 275.15046875 151.41224609 274.15625 151.00390625 C267.06310957 148.89128881 259.64692577 149.06732211 252.3125 149.0625 C251.34376953 149.05025391 250.37503906 149.03800781 249.37695312 149.02539062 C238.02822342 148.67669767 238.02822342 148.67669767 227.86083984 152.64282227 Z " fill="#F3B550" transform="translate(499.375,611.75)"/>
<path d="M0 0 C1.859375 2.2734375 1.859375 2.2734375 3.75 5.375 C15.44470819 23.79254414 30.96480165 39.68101927 48.35693359 52.76269531 C49.82626126 53.86916673 51.28315201 54.99210897 52.73828125 56.1171875 C70.8820495 69.82825972 91.56246065 79.59211561 113.375 85.875 C114.26832031 86.13692139 115.16164063 86.39884277 116.08203125 86.66870117 C135.12070563 91.8129061 154.43510563 93.6712491 174.10180664 93.52148438 C177.43384685 93.50002353 180.76372679 93.52145313 184.09570312 93.546875 C204.15175813 93.57371703 224.1058509 91.24775083 243.4375 85.75 C244.50621338 85.45262939 245.57492676 85.15525879 246.67602539 84.84887695 C256.49160218 82.02374837 265.80588634 78.43589452 275 74 C276.20027832 73.42161377 276.20027832 73.42161377 277.42480469 72.83154297 C288.33541466 67.49253742 298.45533589 61.51960069 308 54 C308.52722656 53.5870166 309.05445313 53.1740332 309.59765625 52.74853516 C324.79144243 40.70456644 339.14333031 26.60632658 349.75634766 10.30175781 C352 8 352 8 354.82470703 7.72827148 C356.46221924 7.95365601 356.46221924 7.95365601 358.1328125 8.18359375 C363.67864129 8.79637271 369.03915999 9.08561166 374.6171875 9.03515625 C393.53471529 9.00303538 409.41198779 10.37161378 427 18 C428.9899556 18.81477462 430.98086047 19.62723425 432.97265625 20.4375 C449.39273274 27.24077142 465.22005203 34.642229 479 46 C479.82113281 46.65742187 480.64226563 47.31484375 481.48828125 47.9921875 C490.36426428 55.42116154 497.70906561 65.14613867 499.4140625 76.83984375 C500.2137916 92.85547118 490.28875808 108.43822609 480 120 C432.69572802 171.8934924 345.08561662 193.60986989 277.5234375 200.25390625 C276.47330475 200.35968491 275.423172 200.46546356 274.34121704 200.57444763 C272.13473594 200.795636 269.92805679 201.014857 267.72119141 201.23217773 C264.40335231 201.55970118 261.08643915 201.89561377 257.76953125 202.23242188 C234.3991255 204.58019532 211.28566121 205.20781316 187.8125 205.1875 C187.04518429 205.18708584 186.27786858 205.18667168 185.48730087 205.18624496 C106.17740825 205.13261101 24.28231696 197.56363085 -95 139 C-95.59603027 138.56333008 -96.19206055 138.12666016 -96.80615234 137.67675781 C-114.36141859 124.66834766 -130.03651499 108.67012861 -136 87 C-137.39781948 75.14541559 -135.19373764 66.65716648 -127.87890625 57.28125 C-125.67520777 54.74527809 -123.39165079 52.35860553 -121 50 C-120.40832031 49.39800781 -119.81664062 48.79601562 -119.20703125 48.17578125 C-108.49618895 38.03240079 -94.28903931 31.11456963 -81 25 C-79.95199219 24.51732666 -79.95199219 24.51732666 -78.8828125 24.02490234 C-56.20337014 13.73420772 -25.38045452 0 0 0 Z " fill="#E7A23F" transform="translate(327,888)"/>
<path d="M0 0 C5.69211384 0.01138687 11.38404059 0.00462045 17.07614803 -0.00687027 C40.41324061 -0.04701769 63.65841864 -0.08351172 86.90161133 2.26074219 C87.79751984 2.34988892 88.69342834 2.43903564 89.6164856 2.53088379 C95.0801688 3.09198785 100.5228028 3.76511111 105.96411133 4.51074219 C106.75358154 4.61678772 107.54305176 4.72283325 108.35644531 4.83209229 C182.66304086 14.88788618 182.66304086 14.88788618 201.96411133 37.69824219 C203.27687552 41.28646432 203.53740634 44.52729475 202.90161133 48.26074219 C196.89888002 60.78818144 182.84270744 66.64764552 170.51293945 71.12890625 C165.02563791 73.01363634 159.48682193 74.6926868 153.90161133 76.26074219 C152.80727783 76.57519287 151.71294434 76.88964355 150.58544922 77.21362305 C141.00267388 79.88385816 131.40569168 81.74409308 121.58911133 83.32324219 C120.41267059 83.51509094 120.41267059 83.51509094 119.21246338 83.71081543 C82.58893771 89.66888679 45.99323224 91.66813511 8.9354248 91.5788002 C6.54239841 91.57313153 4.14937917 91.57032959 1.75634766 91.56771851 C-21.29912016 91.53117022 -44.20297713 91.22850645 -67.09838867 88.26074219 C-67.78588196 88.17352905 -68.47337524 88.08631592 -69.18170166 87.99645996 C-155.52810855 77.00669296 -155.52810855 77.00669296 -176.59838867 55.13574219 C-179.20632674 51.62130159 -180.26334087 48.71445141 -180.09838867 44.26074219 C-175.7661861 32.8602091 -164.86368022 26.27274028 -154.23120117 21.38818359 C-137.48383396 14.06935605 -120.31013413 9.61487609 -102.28588867 6.69824219 C-101.03485352 6.49005859 -99.78381836 6.281875 -98.49487305 6.06738281 C-94.69912079 5.44355748 -90.90015369 4.84673411 -87.09838867 4.26074219 C-86.0073584 4.08687988 -84.91632813 3.91301758 -83.79223633 3.73388672 C-56.0111328 -0.363916 -28.00617046 -0.05651144 0 0 Z " fill="#E6A03D" transform="translate(494.098388671875,634.7392578125)"/>
<path d="M0 0 C1 3 1 3 -0.15234375 5.78515625 C-24.66734113 50.79190199 -77.94921365 72.73025766 -124.71826172 86.59423828 C-154.6834302 95.36967949 -185.33767717 103.19172133 -216.4765625 106.25390625 C-217.52669525 106.35968491 -218.576828 106.46546356 -219.65878296 106.57444763 C-221.86526406 106.795636 -224.07194321 107.014857 -226.27880859 107.23217773 C-229.59664769 107.55970118 -232.91356085 107.89561377 -236.23046875 108.23242188 C-259.6008745 110.58019532 -282.71433879 111.20781316 -306.1875 111.1875 C-306.95481571 111.18708584 -307.72213142 111.18667168 -308.51269913 111.18624496 C-387.82259175 111.13261101 -469.71768304 103.56363085 -589 45 C-589.89404541 44.34499512 -589.89404541 44.34499512 -590.80615234 43.67675781 C-602.54031895 34.98176853 -613.21888321 25.5183252 -621 13 C-621.51820313 12.16855469 -622.03640625 11.33710937 -622.5703125 10.48046875 C-625.20526894 6.02408068 -625.20526894 6.02408068 -626 4 C-625.67 3.01 -625.34 2.02 -625 1 C-624.67 1.845625 -624.34 2.69125 -624 3.5625 C-621.37376366 8.07634371 -618.04055109 10.76329094 -614 14 C-612.99453125 14.83337891 -612.99453125 14.83337891 -611.96875 15.68359375 C-557.68995884 59.53194557 -479.3568133 70.70010841 -411.9375 77.1875 C-411.13175537 77.26622345 -410.32601074 77.3449469 -409.49584961 77.42605591 C-403.33564284 78.02039968 -397.17052021 78.5256745 -391 79 C-389.8824231 79.08860291 -388.76484619 79.17720581 -387.61340332 79.26849365 C-364.23640193 81.07068539 -340.91800577 81.31371311 -317.47949219 81.26074219 C-312.38961489 81.24933333 -307.29994655 81.25613336 -302.21007633 81.26763153 C-279.37926685 81.31126096 -256.7618474 80.86423432 -234 79 C-231.65018108 78.82065811 -229.30024644 78.64282575 -226.95019531 78.46655273 C-221.88578371 78.08647222 -216.82502927 77.6727951 -211.76513672 77.23681641 C-210.00672212 77.08621936 -208.24795813 76.93960854 -206.48876953 76.79833984 C-195.30641974 75.89635329 -184.25893209 74.34573893 -173.1875 72.5625 C-171.91245605 72.35713623 -170.63741211 72.15177246 -169.32373047 71.94018555 C-160.50735791 70.48559224 -151.75157675 68.80129654 -143 67 C-141.856521 66.76788818 -140.71304199 66.53577637 -139.53491211 66.29663086 C-124.15037595 63.15672589 -108.98768515 59.69303373 -94 55 C-92.97084473 54.68192383 -91.94168945 54.36384766 -90.88134766 54.03613281 C-63.97595122 45.6503455 -37.70132488 35.41289412 -15.41796875 17.8125 C-13 16 -13 16 -10.73828125 14.9375 C-8.6402088 14.06208773 -8.6402088 14.06208773 -8 11 C-7.360625 10.896875 -6.72125 10.79375 -6.0625 10.6875 C-5.381875 10.460625 -4.70125 10.23375 -4 10 C-2.80404463 7.1628485 -2.80404463 7.1628485 -2 4 C-1.36184656 2.65278717 -0.70674629 1.31252882 0 0 Z " fill="#D69332" transform="translate(821,982)"/>
<path d="M0 0 C4.41951566 0.01083275 8.83900016 0.01046755 13.2585268 0.00986195 C17.5888706 0.01013687 21.91919534 0.0156683 26.2495327 0.02286339 C28.28279668 0.025989 30.31606275 0.02800269 32.34932899 0.0287571 C42.84081417 0.03692418 53.31016082 0.17950945 63.79229736 0.64483643 C64.67101659 0.68358792 65.54973581 0.72233942 66.45508289 0.76226521 C75.5823832 1.20777621 84.62704014 2.21584604 93.68682861 3.38311768 C94.5420813 3.49132843 95.39733398 3.59953918 96.27850342 3.71102905 C121.53832814 6.93713843 147.61166951 11.73271755 170.99932861 22.19561768 C167.2496159 25.60169094 162.93073595 26.7012097 158.18682861 28.13311768 C157.42434814 28.37223877 156.66186768 28.61135986 155.87628174 28.85772705 C153.25843766 29.66633578 150.63200731 30.43664925 147.99932861 31.19561768 C146.88614258 31.51731934 145.77295654 31.839021 144.6260376 32.17047119 C135.06382761 34.83322865 125.48180316 36.6824442 115.68682861 38.25811768 C114.51038788 38.44996643 114.51038788 38.44996643 113.31018066 38.64569092 C76.686655 44.60376228 40.09094953 46.6030106 3.03314209 46.51367569 C0.64011569 46.50800702 -1.75290355 46.50520508 -4.14593506 46.50259399 C-27.20140287 46.46604571 -50.10525984 46.16338194 -73.00067139 43.19561768 C-73.68816467 43.10840454 -74.37565796 43.02119141 -75.08398438 42.93133545 C-136.04755148 35.17217763 -136.04755148 35.17217763 -160.00067139 23.19561768 C-160.00067139 22.53561768 -160.00067139 21.87561768 -160.00067139 21.19561768 C-137.53081058 13.17460655 -115.18061995 7.68874534 -91.56317139 4.44561768 C-90.83739899 4.34447662 -90.11162659 4.24333557 -89.36386108 4.13912964 C-83.91923259 3.39174907 -78.46640408 2.76698389 -73.00067139 2.19561768 C-72.12502533 2.1006601 -71.24937927 2.00570251 -70.34719849 1.90786743 C-46.96963816 -0.52320212 -23.47077963 -0.07244737 0 0 Z " fill="#AD722C" transform="translate(500.00067138671875,679.8043823242188)"/>
<path d="M0 0 C1.01615072 0.00070055 1.01615072 0.00070055 2.05282974 0.00141525 C19.59890444 0.01424386 37.10148409 0.34600205 54.625 1.25 C55.88828125 1.31219727 57.1515625 1.37439453 58.453125 1.43847656 C74.0825559 2.27542589 89.47891393 4.19823409 104.93676758 6.57324219 C105.66134659 6.68314484 106.3859256 6.79304749 107.13246155 6.90628052 C109.10437827 7.20675407 111.07518324 7.5144983 113.04589844 7.82275391 C116.63621301 8.32626348 116.63621301 8.32626348 120.32275391 8.23022461 C123.31058608 8.24811714 125.11964753 8.51917364 127.8515625 9.58984375 C133.13941789 11.49692078 138.50578881 12.65754977 144 13.8125 C145.44632813 14.12477539 145.44632813 14.12477539 146.921875 14.44335938 C152.70487681 15.67980547 158.49517673 16.78427943 164.32836914 17.7578125 C167.39462553 18.41493729 169.86498049 19.78190452 172.625 21.25 C176.79194139 22.65844078 181.03472157 23.82202801 185.28125 24.96484375 C190.44452346 26.40340639 194.21239255 28.11214582 198.625 31.25 C200.23375 31.8996875 200.23375 31.8996875 201.875 32.5625 C209.00768477 35.46312514 215.5142809 40.55519872 220.625 46.25 C221.49125 47.1575 222.3575 48.065 223.25 49 C228.87146678 55.96445777 229.04755068 64.26655102 228.91796875 72.84765625 C228.91372391 73.92252792 228.90947906 74.9973996 228.90510559 76.10484314 C228.88843339 79.50765998 228.85080223 82.90986488 228.8125 86.3125 C228.79743837 88.63215285 228.78375256 90.95181507 228.77148438 93.27148438 C228.73856752 98.9311952 228.68848361 104.59055386 228.625 110.25 C229.49713135 110.10925049 230.3692627 109.96850098 231.26782227 109.82348633 C258.73733564 105.60955043 285.24578327 108.25144841 308.625 124.25 C309.71554687 124.99056641 309.71554687 124.99056641 310.828125 125.74609375 C315.16365065 128.83716297 318.31922909 132.09417371 321.625 136.25 C322.615 136.91 323.605 137.57 324.625 138.25 C326.01171875 140.5625 326.01171875 140.5625 327.3125 143.25 C327.96798828 144.5803125 327.96798828 144.5803125 328.63671875 145.9375 C329.625 148.25 329.625 148.25 329.625 150.25 C330.285 150.58 330.945 150.91 331.625 151.25 C332.37208624 153.26363089 333.02380924 155.31310357 333.625 157.375 C333.955 158.49132812 334.285 159.60765625 334.625 160.7578125 C334.955 161.91023437 335.285 163.06265625 335.625 164.25 C336.17414063 165.77560547 336.17414063 165.77560547 336.734375 167.33203125 C338.34179852 172.98953166 337.91248725 178.98635631 337.875 184.8125 C337.88273438 186.01841797 337.89046875 187.22433594 337.8984375 188.46679688 C337.89457031 190.21766602 337.89457031 190.21766602 337.890625 192.00390625 C337.88836914 193.05908447 337.88611328 194.1142627 337.88378906 195.20141602 C337.60387106 198.49890292 336.76592276 201.15302031 335.625 204.25 C335.25322561 205.5407638 334.89224479 206.83473427 334.546875 208.1328125 C332.12379667 216.9673623 329.53568115 225.41595149 324.625 233.25 C323.965 233.58 323.305 233.91 322.625 234.25 C321.94153318 235.90984798 321.27911685 237.57836805 320.625 239.25 C318.02946963 244.64071692 315.13061718 247.86966724 310.5234375 251.671875 C308.47595686 253.31789254 308.47595686 253.31789254 306.25 255.6875 C304.625 257.25 304.625 257.25 302.625 257.25 C302.41617188 257.81976562 302.20734375 258.38953125 301.9921875 258.9765625 C292.26369957 275.15364815 261.47236454 282.49925248 244.625 287.25 C245.46160156 287.54132813 246.29820312 287.83265625 247.16015625 288.1328125 C258.90190244 292.2677796 270.63194682 296.46793634 281.671875 302.26953125 C283.75048346 303.37127439 283.75048346 303.37127439 286.625 304.25 C286.625 304.91 286.625 305.57 286.625 306.25 C287.35332031 306.52585937 288.08164062 306.80171875 288.83203125 307.0859375 C306.24078226 314.34161275 321.34984836 328.82694453 328.625 346.25 C331.64215035 355.96522412 329.14033034 365.08961363 325.625 374.25 C324.94995937 376.24718917 324.28101909 378.24648224 323.625 380.25 C322.965 380.25 322.305 380.25 321.625 380.25 C321.21701172 381.34828125 321.21701172 381.34828125 320.80078125 382.46875 C315.87201102 394.12750216 304.78906038 404.86768246 294.625 412.25 C293.965 412.25 293.305 412.25 292.625 412.25 C292.625 412.91 292.625 413.57 292.625 414.25 C290.5305032 415.88429751 288.44717909 417.39167234 286.25 418.875 C285.64671875 419.29523438 285.0434375 419.71546875 284.421875 420.1484375 C279.89037135 423.25 279.89037135 423.25 277.625 423.25 C277.625 423.91 277.625 424.57 277.625 425.25 C276.78582031 425.6521875 276.78582031 425.6521875 275.9296875 426.0625 C270.7723987 428.58310417 265.76892144 431.29413662 260.8125 434.1875 C250.20823854 440.33074768 239.10649334 445.00258189 227.625 449.25 C226.04946309 449.83719646 224.47394338 450.42443904 222.8984375 451.01171875 C221.22416017 451.63335637 219.54968142 452.2544518 217.875 452.875 C217.09495605 453.16431396 216.31491211 453.45362793 215.51123047 453.75170898 C213.21961906 454.59548932 210.92403919 455.42668223 208.625 456.25 C207.81998047 456.5397168 207.01496094 456.82943359 206.18554688 457.12792969 C205.39728516 457.40282227 204.60902344 457.67771484 203.796875 457.9609375 C202.73871582 458.3329126 202.73871582 458.3329126 201.65917969 458.71240234 C199.625 459.25 199.625 459.25 195.625 459.25 C195.295 459.91 194.965 460.57 194.625 461.25 C192.44219043 461.92257438 190.2248965 462.48342525 188 463 C186.53345713 463.34728597 185.0673347 463.69635055 183.6015625 464.046875 C182.80266602 464.23701172 182.00376953 464.42714844 181.18066406 464.62304688 C177.53581965 465.51719671 173.91538347 466.49716882 170.29101562 467.47045898 C148.74925848 473.22923582 126.85804006 477.58276598 104.5703125 479.0078125 C101.51094103 479.25937885 98.52939852 479.69398896 95.5 480.1875 C79.8628883 482.70747455 64.16841585 483.66132217 48.35522461 484.25537109 C45.19413954 484.37474926 42.03364002 484.50501717 38.87304688 484.63671875 C18.69636488 485.45108118 -1.31563814 485.30853464 -21.48925781 484.45043945 C-24.79470553 484.31060882 -28.10042329 484.17935966 -31.40625 484.04882812 C-33.52866662 483.96144085 -35.65106334 483.87356865 -37.7734375 483.78515625 C-38.75154388 483.74656998 -39.72965027 483.7079837 -40.73739624 483.66822815 C-45.36897891 483.46614985 -49.80718139 483.09404384 -54.375 482.25 C-55.365 482.25 -56.355 482.25 -57.375 482.25 C-60.21094467 481.95314807 -63.04266054 481.64045206 -65.875 481.3125 C-70.97572662 480.73019527 -76.07003644 480.16697851 -81.1875 479.75 C-90.34441794 478.94408006 -99.38906203 477.2692867 -108.4375 475.6875 C-109.16404785 475.56068848 -109.8905957 475.43387695 -110.63916016 475.30322266 C-113.91493615 474.72207374 -117.16373357 474.12579993 -120.375 473.25 C-120.705 473.91 -121.035 474.57 -121.375 475.25 C-121.375 474.26 -121.375 473.27 -121.375 472.25 C-122.00664062 472.21261719 -122.63828125 472.17523437 -123.2890625 472.13671875 C-130.16160215 471.63167621 -136.69458169 470.42279583 -143.40625 468.87109375 C-146.35890034 468.14761146 -146.35890034 468.14761146 -149.375 468.25 C-149.375 467.59 -149.375 466.93 -149.375 466.25 C-150.509375 466.188125 -151.64375 466.12625 -152.8125 466.0625 C-164.58885178 464.73766042 -176.24182888 460.05582613 -187.39819336 456.21801758 C-190.28213129 455.23333022 -193.0542561 454.31377364 -196.046875 453.71875 C-198.85385999 453.15358524 -201.24923385 452.13975564 -203.875 451 C-208.03036766 449.22273461 -212.19616364 447.56003176 -216.4375 446 C-222.16819996 443.81720618 -227.70715395 441.30909472 -233.25 438.6875 C-234.04672119 438.31141602 -234.84344238 437.93533203 -235.66430664 437.54785156 C-240.35824544 435.30106219 -244.88897404 432.88778327 -249.375 430.25 C-249.375 429.59 -249.375 428.93 -249.375 428.25 C-249.91125 428.146875 -250.4475 428.04375 -251 427.9375 C-256.76839777 426.26770065 -262.60822766 422.91581731 -267.375 419.25 C-267.375 418.59 -267.375 417.93 -267.375 417.25 C-268.43267578 416.89421875 -268.43267578 416.89421875 -269.51171875 416.53125 C-272.87786868 415.02497827 -275.34483173 413.09415483 -278.1875 410.75 C-279.65123047 409.55890625 -279.65123047 409.55890625 -281.14453125 408.34375 C-281.88058594 407.6528125 -282.61664063 406.961875 -283.375 406.25 C-283.375 405.59 -283.375 404.93 -283.375 404.25 C-284.24125 403.87875 -284.24125 403.87875 -285.125 403.5 C-287.70439979 402.06700012 -289.43621592 400.46575324 -291.375 398.25 C-291.375 397.59 -291.375 396.93 -291.375 396.25 C-291.96410156 396.01410156 -292.55320312 395.77820313 -293.16015625 395.53515625 C-299.57304695 391.81409621 -304.41077562 381.92974987 -307.375 375.25 C-307.375 374.26 -307.375 373.27 -307.375 372.25 C-308.035 371.92 -308.695 371.59 -309.375 371.25 C-309.9296875 369.40625 -309.9296875 369.40625 -310.375 367.25 C-310.74625 366.095 -311.1175 364.94 -311.5 363.75 C-314.04435719 353.18113166 -310.84718677 344.28863686 -305.375 335.25 C-303.8046875 332.90625 -303.8046875 332.90625 -302.375 331.25 C-301.715 331.25 -301.055 331.25 -300.375 331.25 C-300.1275 330.6725 -299.88 330.095 -299.625 329.5 C-298.19200012 326.92060021 -296.59075324 325.18878408 -294.375 323.25 C-293.715 323.25 -293.055 323.25 -292.375 323.25 C-292.1275 322.46625 -291.88 321.6825 -291.625 320.875 C-290.375 318.25 -290.375 318.25 -288.4375 316.9375 C-286.375 316.25 -286.375 316.25 -283.375 316.25 C-283.045 315.26 -282.715 314.27 -282.375 313.25 C-280.725 312.92 -279.075 312.59 -277.375 312.25 C-277.375 311.59 -277.375 310.93 -277.375 310.25 C-276.446875 309.816875 -276.446875 309.816875 -275.5 309.375 C-273.24174235 308.31279958 -273.24174235 308.31279958 -271.375 306.25 C-267.98810569 304.70253967 -264.57569481 303.25168892 -261.140625 301.81640625 C-256.92240891 300.05980793 -256.92240891 300.05980793 -253.375 297.25 C-251.39704178 296.40476785 -249.39214082 295.62191299 -247.375 294.875 C-243.3145838 293.35345943 -239.26661254 291.82126684 -235.25 290.1875 C-231.76537644 288.79025646 -228.26851115 287.43477544 -224.75 286.125 C-223.91210938 285.81304688 -223.07421875 285.50109375 -222.2109375 285.1796875 C-219.3743502 284.24978698 -216.51888657 283.52504456 -213.61914062 282.82128906 C-211.16588513 282.1967658 -208.74371434 281.49603881 -206.31640625 280.77734375 C-205.43533203 280.51759766 -204.55425781 280.25785156 -203.64648438 279.99023438 C-201.84301565 279.45582511 -200.04091639 278.916772 -198.24023438 278.37304688 C-193.22123427 276.90290879 -188.4931142 275.88032002 -183.26538086 275.56079102 C-181.04770304 275.32962463 -181.04770304 275.32962463 -178.375 273.25 C-178.72691406 272.69054687 -179.07882812 272.13109375 -179.44140625 271.5546875 C-195.375 245.67819843 -195.375 245.67819843 -195.375 236.25 C-196.035 235.92 -196.695 235.59 -197.375 235.25 C-197.875 233.625 -197.875 233.625 -198.375 231.25 C-199.68423909 226.51482251 -201.15516155 221.85439398 -202.6875 217.1875 C-214.6378832 179.38253634 -216.53924086 140.09050364 -216.5625 100.75 C-216.56358765 99.76052368 -216.56467529 98.77104736 -216.5657959 97.75158691 C-216.56456738 87.90827204 -216.46031444 78.07503864 -215.98046875 68.2421875 C-215.93372261 67.16426941 -215.93372261 67.16426941 -215.8860321 66.0645752 C-215.44507462 58.27322198 -213.37106176 51.30465882 -208.375 45.25 C-206.73895804 43.87926214 -205.06821939 42.54944744 -203.375 41.25 C-202.47523438 40.46496094 -201.57546875 39.67992187 -200.6484375 38.87109375 C-197.45074002 36.20234608 -193.9986216 34.16995575 -190.3125 32.25 C-189.66490723 31.9082373 -189.01731445 31.56647461 -188.35009766 31.21435547 C-182.20218121 28.0377071 -175.88639792 25.58975023 -169.375 23.25 C-168.51132812 22.87617187 -167.64765625 22.50234375 -166.7578125 22.1171875 C-164.375 21.25 -164.375 21.25 -160.375 21.25 C-160.045 20.59 -159.715 19.93 -159.375 19.25 C-157.21484375 18.5390625 -157.21484375 18.5390625 -154.3125 17.875 C-153.21808594 17.61847656 -152.12367188 17.36195313 -150.99609375 17.09765625 C-149.80113281 16.81792969 -148.60617187 16.53820312 -147.375 16.25 C-144.87464958 15.60552465 -142.37466678 14.95962186 -139.875 14.3125 C-132.61351355 12.46495046 -125.29398637 10.9738568 -117.9375 9.55688477 C-117.12667969 9.40018311 -116.31585938 9.24348145 -115.48046875 9.08203125 C-114.39995239 8.87670776 -114.39995239 8.87670776 -113.29760742 8.66723633 C-111.17100966 8.24191337 -111.17100966 8.24191337 -108.375 7.25 C-106.1875 7.6875 -106.1875 7.6875 -104.375 8.25 C-104.045 7.59 -103.715 6.93 -103.375 6.25 C-101.59667969 5.85522461 -101.59667969 5.85522461 -99.296875 5.65234375 C-98.46542969 5.57306641 -97.63398438 5.49378906 -96.77734375 5.41210938 C-95.90207031 5.33798828 -95.02679688 5.26386719 -94.125 5.1875 C-92.41126578 5.03205634 -90.69771612 4.87456199 -88.984375 4.71484375 C-88.22092773 4.649021 -87.45748047 4.58319824 -86.67089844 4.51538086 C-84.36770196 4.28562374 -84.36770196 4.28562374 -82.10571289 3.76806641 C-55.52334162 -1.27509782 -26.98300516 -0.04042646 0 0 Z M-204.609375 46.5078125 C-216.96142254 59.77969337 -213.58127481 80.49854782 -213.5625 97.625 C-213.56189575 98.64857605 -213.5612915 99.6721521 -213.56066895 100.72674561 C-213.46346859 161.82190834 -206.56050858 223.47582316 -173.375 276.25 C-173.89964844 276.34796875 -174.42429687 276.4459375 -174.96484375 276.546875 C-215.62249322 284.3942749 -260.74767494 297.26323034 -292.375 325.25 C-293.09171875 325.88421875 -293.8084375 326.5184375 -294.546875 327.171875 C-301.34946751 333.56528901 -307.68137213 342.05845859 -308.74609375 351.5625 C-309.06851709 369.46647867 -300.68365783 384.20152102 -288.5703125 397.01196289 C-287.18557909 398.4380775 -285.78057631 399.84442369 -284.375 401.25 C-283.60671875 402.01828125 -282.8384375 402.7865625 -282.046875 403.578125 C-269.52173369 415.42162597 -254.62884899 424.40116818 -239.375 432.25 C-238.53291992 432.68666992 -237.69083984 433.12333984 -236.82324219 433.57324219 C-190.22337562 457.48429304 -137.97919469 469.25352274 -86.375 476.25 C-84.7046167 476.47961426 -84.7046167 476.47961426 -83.00048828 476.71386719 C-51.3303682 480.95306208 -19.48101809 481.44228567 12.41953278 481.49542618 C14.6458118 481.49991593 16.87206009 481.50761621 19.09832764 481.51596069 C39.02962894 481.58050777 58.7512886 480.90694303 78.625 479.25 C79.56372955 479.17203186 80.50245911 479.09406372 81.46963501 479.01373291 C86.90349306 478.55101462 92.32777255 478.02017335 97.75 477.4375 C98.53796967 477.35385193 99.32593933 477.27020386 100.13778687 477.184021 C123.69490987 474.65558408 146.67930976 470.13721472 169.625 464.25 C170.6577002 463.98993164 171.69040039 463.72986328 172.75439453 463.46191406 C210.98704096 453.79579241 251.6069584 441.05828734 283.625 417.25 C284.16350586 416.85522461 284.70201172 416.46044922 285.25683594 416.05371094 C302.84491262 403.07792674 316.35885429 388.77643745 324.625 368.25 C325.2746875 366.7959375 325.2746875 366.7959375 325.9375 365.3125 C328.15911292 355.41622428 326.58970737 347.02564472 321.625 338.25 C302.56325159 309.89078654 262.19582035 294.62036159 230.625 286.25 C231.42381592 286.08508057 232.22263184 285.92016113 233.0456543 285.75024414 C260.48437943 279.98537606 284.99712648 272.26373367 305.625 252.25 C306.30949219 251.63898438 306.99398437 251.02796875 307.69921875 250.3984375 C322.79309617 236.46106542 332.78642097 213.92005814 333.75146484 193.58520508 C334.3124053 172.55351086 332.57036203 153.30474476 318.25 136.75 C316.73930049 135.21881643 315.19801713 133.71709005 313.625 132.25 C312.90054688 131.55648437 312.17609375 130.86296875 311.4296875 130.1484375 C295.64969364 116.29413781 273.69808899 111.0768934 253.1875 111.0625 C252.30384766 111.05025391 251.42019531 111.03800781 250.50976562 111.02539062 C242.11331692 111.0075385 233.92435243 112.09394625 225.625 113.25 C225.63388245 112.62074615 225.64276489 111.99149231 225.6519165 111.34317017 C225.74084593 104.75637962 225.80092259 98.16976138 225.84472656 91.58251953 C225.86476324 89.12867294 225.89200032 86.67487363 225.92675781 84.22119141 C225.97562498 80.68119597 225.9980492 77.14183532 226.015625 73.6015625 C226.03627014 72.51573883 226.05691528 71.42991516 226.07818604 70.31118774 C226.08056167 62.13100815 224.51518401 55.39732161 219.79296875 48.62109375 C207.20219137 36.32832294 192.06751942 30.61851164 175.625 25.25 C174.77744141 24.97027344 173.92988281 24.69054687 173.05664062 24.40234375 C143.50620316 14.7617755 112.577944 10.24618963 81.75 7 C80.96656219 6.91700653 80.18312439 6.83401306 79.37594604 6.74850464 C61.38127179 4.86420961 43.53521732 4.08260156 25.44921875 4.046875 C24.46164896 4.04404762 23.47407917 4.04122025 22.45658302 4.03830719 C17.21494927 4.02342253 11.97334219 4.01412936 6.73168945 4.00976562 C2.48615784 4.0054119 -1.75916701 3.99162555 -6.00463867 3.96875 C-112.11937815 2.71681871 -112.11937815 2.71681871 -204.609375 46.5078125 Z " fill="#FEF3D2" transform="translate(499.375,611.75)"/>
<path d="M0 0 C3.54075319 1.28135649 6.26055368 2.78815505 9.25 5.0625 C24.79694003 16.1411343 42.770677 23.39152803 61 28.6875 C61.91652344 28.96094238 62.83304687 29.23438477 63.77734375 29.51611328 C82.89607401 34.82508955 102.31971762 36.6721278 122.10180664 36.52148438 C125.43384685 36.50002353 128.76372679 36.52145313 132.09570312 36.546875 C152.15175813 36.57371703 172.1058509 34.24775083 191.4375 28.75 C192.50621338 28.45262939 193.57492676 28.15525879 194.67602539 27.84887695 C214.35132102 22.18591478 234.4720181 13.2098605 251 1 C253.84252301 3.84252301 253.84715009 6.29243876 254.140625 10.21484375 C253.77869656 17.38303764 249.71693668 22.67197773 244.75 27.5625 C221.16037809 47.36656594 187.51781185 51.18646187 158 54 C157.00742187 54.09571289 156.01484375 54.19142578 154.9921875 54.29003906 C145.78696683 55.09161727 136.60883129 55.23978348 127.375 55.25 C126.1684375 55.25250763 126.1684375 55.25250763 124.9375 55.25506592 C110.12574936 55.25689688 95.66616133 54.16146862 81 52 C79.36925537 51.7668811 79.36925537 51.7668811 77.70556641 51.52905273 C52.84176913 47.8677147 20.40724814 40.83256916 4.30859375 19.7890625 C1.01026288 14.73350123 -0.14225996 10.81175691 -0.0625 4.75 C-0.05347656 3.85796875 -0.04445313 2.9659375 -0.03515625 2.046875 C-0.02355469 1.37140625 -0.01195312 0.6959375 0 0 Z " fill="#D69434" transform="translate(379,945)"/>
<path d="M0 0 C1.093125 0.53367187 2.18625 1.06734375 3.3125 1.6171875 C32.5522432 15.76420517 63.24328041 27.81914333 95 35 C96.14774902 35.26232422 97.29549805 35.52464844 98.47802734 35.79492188 C118.85938332 40.40453217 139.29876086 44.15225366 160 47 C161.11938965 47.15452637 162.2387793 47.30905273 163.39208984 47.46826172 C195.05610335 51.70442545 226.90045412 52.19229645 258.79453278 52.24542618 C261.0208118 52.24991593 263.24706009 52.25761621 265.47332764 52.26596069 C285.40462894 52.33050777 305.1262886 51.65694303 325 50 C325.93872955 49.92203186 326.87745911 49.84406372 327.84463501 49.76373291 C333.27849306 49.30101462 338.70277255 48.77017335 344.125 48.1875 C344.91296967 48.10385193 345.70093933 48.02020386 346.51278687 47.934021 C370.06990987 45.40558408 393.05430976 40.88721472 416 35 C417.54905029 34.60989746 417.54905029 34.60989746 419.12939453 34.21191406 C445.24257188 27.60988222 470.54510603 19.3382655 495 8 C495.80179688 7.63148926 496.60359375 7.26297852 497.4296875 6.88330078 C501.63342655 4.95039468 505.82400578 2.99233847 510 1 C510.66 1.66 511.32 2.32 512 3 C499.84529849 10.40232272 487.32947348 16.06894745 474 21 C472.42446309 21.58719646 470.84894338 22.17443904 469.2734375 22.76171875 C467.59916017 23.38335637 465.92468142 24.0044518 464.25 24.625 C463.07993408 25.05897095 463.07993408 25.05897095 461.88623047 25.50170898 C459.59461906 26.34548932 457.29903919 27.17668223 455 28 C454.19498047 28.2897168 453.38996094 28.57943359 452.56054688 28.87792969 C451.77228516 29.15282227 450.98402344 29.42771484 450.171875 29.7109375 C449.46643555 29.9589209 448.76099609 30.2069043 448.03417969 30.46240234 C446 31 446 31 442 31 C441.67 31.66 441.34 32.32 441 33 C438.81719043 33.67257438 436.5998965 34.23342525 434.375 34.75 C432.90845713 35.09728597 431.4423347 35.44635055 429.9765625 35.796875 C429.17766602 35.98701172 428.37876953 36.17714844 427.55566406 36.37304688 C423.91081965 37.26719671 420.29038347 38.24716882 416.66601562 39.22045898 C395.12425848 44.97923582 373.23304006 49.33276598 350.9453125 50.7578125 C347.88594103 51.00937885 344.90439852 51.44398896 341.875 51.9375 C326.2378883 54.45747455 310.54341585 55.41132217 294.73022461 56.00537109 C291.56913954 56.12474926 288.40864002 56.25501717 285.24804688 56.38671875 C265.07136488 57.20108118 245.05936186 57.05853464 224.88574219 56.20043945 C221.58029447 56.06060882 218.27457671 55.92935966 214.96875 55.79882812 C212.84633338 55.71144085 210.72393666 55.62356865 208.6015625 55.53515625 C207.62345612 55.49656998 206.64534973 55.4579837 205.63760376 55.41822815 C201.00602109 55.21614985 196.56781861 54.84404384 192 54 C191.01 54 190.02 54 189 54 C186.16405533 53.70314807 183.33233946 53.39045206 180.5 53.0625 C175.39927338 52.48019527 170.30496356 51.91697851 165.1875 51.5 C156.03058206 50.69408006 146.98593797 49.0192867 137.9375 47.4375 C137.21095215 47.31068848 136.4844043 47.18387695 135.73583984 47.05322266 C132.46006385 46.47207374 129.21126643 45.87579993 126 45 C125.505 45.99 125.505 45.99 125 47 C125 46.01 125 45.02 125 44 C124.36835938 43.96261719 123.73671875 43.92523437 123.0859375 43.88671875 C116.21339785 43.38167621 109.68041831 42.17279583 102.96875 40.62109375 C100.01609966 39.89761146 100.01609966 39.89761146 97 40 C97 39.34 97 38.68 97 38 C95.865625 37.938125 94.73125 37.87625 93.5625 37.8125 C81.78614822 36.48766042 70.13317112 31.80582613 58.97680664 27.96801758 C56.09286871 26.98333022 53.3207439 26.06377364 50.328125 25.46875 C47.52114001 24.90358524 45.12576615 23.88975564 42.5 22.75 C38.34463234 20.97273461 34.17883636 19.31003176 29.9375 17.75 C24.19155712 15.5587506 18.62649423 13.05497184 13.0625 10.4375 C12.2573999 10.06141602 11.4522998 9.68533203 10.62280273 9.29785156 C6.14738764 7.16460932 2.0475817 4.8651421 -2 2 C-1.34 1.34 -0.68 0.68 0 0 Z " fill="#FDEEC4" transform="translate(253,1040)"/>
<path d="M0 0 C1.1859375 -0.02449219 2.371875 -0.04898438 3.59375 -0.07421875 C16.75933921 -0.11733749 28.49642922 3.08386883 38.21484375 12.22265625 C45.40446212 19.86827579 47.97927643 27.59388413 47.8125 38 C47.79823975 39.44197754 47.79823975 39.44197754 47.78369141 40.91308594 C47.30875276 57.34651215 40.33950821 70.81920825 29.1484375 82.69921875 C12.56234968 98.01117314 -10.56772713 104.54594607 -32.75 104.5625 C-34.04550781 104.58086914 -34.04550781 104.58086914 -35.3671875 104.59960938 C-40.56135571 104.61145018 -44.83302875 104.06520887 -49.75 102.375 C-49.17968135 96.8034255 -47.68315246 92.18625503 -45.625 87 C-37.38783027 65.29612042 -32.72361338 43.2545536 -30.01953125 20.2421875 C-29.89932617 19.2737793 -29.77912109 18.30537109 -29.65527344 17.30761719 C-29.43278297 15.48522374 -29.23039783 13.66022089 -29.05175781 11.83300781 C-28.33463979 5.93383035 -28.33463979 5.93383035 -25.71484375 3.4296875 C-17.16247493 0.38734286 -9.0473924 0.0097075 0 0 Z M-23.51416016 6.76782227 C-25.39602525 9.21513912 -25.52537963 11.59573917 -25.9375 14.625 C-26.17339844 16.3575 -26.17339844 16.3575 -26.4140625 18.125 C-26.77210421 21.58884535 -26.82896985 24.90032671 -26.75 28.375 C-27.08 28.705 -27.41 29.035 -27.75 29.375 C-28.12494796 31.63933416 -28.45003943 33.9120179 -28.75 36.1875 C-29.25442113 39.99036241 -29.78095492 43.6670392 -30.75 47.375 C-30.98380371 48.29039551 -31.21760742 49.20579102 -31.45849609 50.14892578 C-32.34526157 53.59981959 -33.23490528 57.04996346 -34.125 60.5 C-34.42921875 61.6859375 -34.7334375 62.871875 -35.046875 64.09375 C-37.82203385 74.83859582 -40.67166363 84.66375187 -45.640625 94.58984375 C-47.10303622 97.39061357 -47.10303622 97.39061357 -45.75 100.375 C-41.22922138 100.43334421 -36.70854047 100.46871252 -32.1875 100.5 C-30.91068359 100.51675781 -29.63386719 100.53351563 -28.31835938 100.55078125 C-22.03835398 100.58340465 -16.66794052 100.51025692 -10.75 98.375 C-9.19111001 98.08410665 -7.6286708 97.8112287 -6.0625 97.5625 C2.93443077 95.79866403 10.91644701 91.9947229 18.359375 86.70703125 C20.25 85.375 20.25 85.375 22.9375 83.9375 C25.82892136 81.98383692 27.74907247 79.61098852 29.91796875 76.8984375 C31.25 75.375 31.25 75.375 33.25 74.375 C42.69967513 59.74150309 46.52217029 43.09866351 43.859375 25.84375 C41.99359375 20.00720354 37.65949385 14.51798598 33.25 10.375 C30.60684757 9.53263169 30.60684757 9.53263169 28.25 9.375 C28.25 8.715 28.25 8.055 28.25 7.375 C27.095 6.900625 25.94 6.42625 24.75 5.9375 C23.77546875 5.53724609 23.77546875 5.53724609 22.78125 5.12890625 C15.68810957 3.01628881 8.27192577 3.19232211 0.9375 3.1875 C-0.03123047 3.17525391 -0.99996094 3.16300781 -1.99804688 3.15039062 C-13.34677658 2.80169767 -13.34677658 2.80169767 -23.51416016 6.76782227 Z " fill="#FEF3D3" transform="translate(750.75,757.625)"/>
<path d="M0 0 C0.99 0.66 1.98 1.32 3 2 C-9.15470151 9.40232272 -21.67052652 15.06894745 -35 20 C-36.57553691 20.58719646 -38.15105662 21.17443904 -39.7265625 21.76171875 C-41.40083983 22.38335637 -43.07531858 23.0044518 -44.75 23.625 C-45.53004395 23.91431396 -46.31008789 24.20362793 -47.11376953 24.50170898 C-49.40538094 25.34548932 -51.70096081 26.17668223 -54 27 C-54.80501953 27.2897168 -55.61003906 27.57943359 -56.43945312 27.87792969 C-57.22771484 28.15282227 -58.01597656 28.42771484 -58.828125 28.7109375 C-59.53356445 28.9589209 -60.23900391 29.2069043 -60.96582031 29.46240234 C-63 30 -63 30 -67 30 C-67.33 30.66 -67.66 31.32 -68 32 C-70.27542368 32.70320111 -72.49513443 33.28404577 -74.8125 33.8125 C-76.26973824 34.15667688 -77.72675955 34.50177316 -79.18359375 34.84765625 C-79.96202637 35.03086426 -80.74045898 35.21407227 -81.54248047 35.40283203 C-84.09250473 36.0224783 -86.62579304 36.69035477 -89.16015625 37.37109375 C-90.02729248 37.60014404 -90.89442871 37.82919434 -91.7878418 38.06518555 C-93.46741714 38.50976504 -95.14484095 38.96258466 -96.81958008 39.42504883 C-102.63122153 40.9362536 -108.00706756 41.25636521 -114 41 C-114 40.34 -114 39.68 -114 39 C-113.39454346 38.86013672 -112.78908691 38.72027344 -112.1652832 38.57617188 C-73.20745286 29.52517907 -35.61907999 18.46110853 0 0 Z " fill="#FCEBB9" transform="translate(762,1041)"/>
<path d="M0 0 C1.84881096 -0.0006757 3.69762183 -0.00164793 5.5464325 -0.00289917 C9.40327814 -0.00436474 13.26010045 -0.0022593 17.11694336 0.00244141 C22.01491571 0.00812586 26.91283309 0.00486048 31.81080341 -0.00113106 C35.6245107 -0.00477801 39.43820537 -0.00357908 43.25191307 -0.00100327 C45.05568638 -0.00034475 46.85946091 -0.00112395 48.6632328 -0.00348282 C59.71938566 -0.01476935 70.67217611 0.29195023 81.69921875 1.1328125 C81.69921875 1.4628125 81.69921875 1.7928125 81.69921875 2.1328125 C75.08733115 2.42373275 68.47516896 2.7077076 61.86279297 2.98730469 C59.62281865 3.08278636 57.38290659 3.1797422 55.14306641 3.27832031 C32.98004055 4.25186425 11.10593722 4.202076 -11.05078125 3.1328125 C-13.12758452 3.03603574 -15.20440743 2.93967957 -17.28125 2.84375 C-22.287999 2.61159434 -27.29445156 2.37383426 -32.30078125 2.1328125 C-32.30078125 1.8028125 -32.30078125 1.4728125 -32.30078125 1.1328125 C-21.52023216 0.06690574 -10.82203153 -0.01409711 0 0 Z " fill="#FEF3D4" transform="translate(487.30078125,1092.8671875)"/>
<path d="M0 0 C0.33 0 0.66 0 1 0 C1.93849854 8.34579328 2.1327674 16.58732905 2.09765625 24.98046875 C2.0962413 26.27447098 2.09482635 27.56847321 2.09336853 28.90168762 C2.08959305 32.30296851 2.07980669 35.70420509 2.06866455 39.10546875 C2.05834213 42.59179078 2.05384796 46.07812014 2.04882812 49.56445312 C2.03817873 56.37632001 2.02116388 63.18815787 2 70 C1.34 70 0.68 70 0 70 C-1.31913227 64.99266822 -1.14380786 60.00071502 -1.1328125 54.86328125 C-1.13376923 53.869832 -1.13472595 52.87638275 -1.13571167 51.85282898 C-1.13639177 49.74555396 -1.13454932 47.63827684 -1.13037109 45.53100586 C-1.12509417 42.36892728 -1.13028322 39.20699561 -1.13671875 36.04492188 C-1.14027253 23.99513366 -0.83588967 12.0213882 0 0 Z " fill="#FEF9E2" transform="translate(284,672)"/>
<path d="M0 0 C0.66 0.33 1.32 0.66 2 1 C2.625 3.5625 2.625 3.5625 3 6 C3.83772949 5.98952637 4.67545898 5.97905273 5.53857422 5.96826172 C8.64338164 5.93419981 11.74809392 5.90911089 14.85302734 5.89013672 C16.8591136 5.87511893 18.86511324 5.84971019 20.87109375 5.82421875 C22.12792969 5.81777344 23.38476562 5.81132813 24.6796875 5.8046875 C25.84226074 5.79421387 27.00483398 5.78374023 28.20263672 5.77294922 C31 6 31 6 33 8 C27.30454401 8.96729891 21.7717045 9.18319276 16 9.1875 C15.13632812 9.19974609 14.27265625 9.21199219 13.3828125 9.22460938 C8.18864429 9.23645018 3.91697125 8.69020887 -1 7 C-0.67 4.69 -0.34 2.38 0 0 Z " fill="#FEF3CF" transform="translate(702,853)"/>
<path d="M0 0 C3.60400627 -0.08858959 7.20772545 -0.14091522 10.8125 -0.1875 C12.31973633 -0.22520508 12.31973633 -0.22520508 13.85742188 -0.26367188 C21.02876725 -0.33284884 27.19047709 0.76322177 34 3 C33.67 3.66 33.34 4.32 33 5 C22.11 4.34 11.22 3.68 0 3 C0 2.01 0 1.02 0 0 Z " fill="#FEF8E0" transform="translate(742,758)"/>
<path d="M0 0 C8 10.10526316 8 10.10526316 8 14 C6.39743892 14.50512244 4.79288208 15.00391627 3.1875 15.5 C2.29417969 15.7784375 1.40085937 16.056875 0.48046875 16.34375 C-2 17 -2 17 -5 17 C-5 16.01 -5 15.02 -5 14 C-2.69 13.34 -0.38 12.68 2 12 C2.18490007 9.67642489 2.18490007 9.67642489 0 7 C-0.07905064 4.66800612 -0.08798769 2.33167378 0 0 Z " fill="#FDF0C7" transform="translate(318,874)"/>
<path d="M0 0 C1 2 1 2 0.3671875 4.7578125 C-1.20798055 8.49321103 -3.14570977 10.88654867 -5.875 13.875 C-6.73867188 14.84179688 -7.60234375 15.80859375 -8.4921875 16.8046875 C-11 19 -11 19 -15 19 C-14.505 17.515 -14.505 17.515 -14 16 C-13.34 16 -12.68 16 -12 16 C-11.7525 15.4225 -11.505 14.845 -11.25 14.25 C-9.81700012 11.67060021 -8.21575324 9.93878408 -6 8 C-5.34 8 -4.68 8 -4 8 C-3.8453125 7.13375 -3.8453125 7.13375 -3.6875 6.25 C-2.90207202 3.67950842 -1.69495803 2.06342716 0 0 Z " fill="#FEEEC8" transform="translate(788,824)"/>
<path d="M0 0 C0.33 0 0.66 0 1 0 C1.22673326 4.37424917 1.42813881 8.74931272 1.625 13.125 C1.68945312 14.3625 1.75390625 15.6 1.8203125 16.875 C1.871875 18.07382812 1.9234375 19.27265625 1.9765625 20.5078125 C2.02893066 21.60754395 2.08129883 22.70727539 2.13525391 23.84033203 C1.98952017 27.24481947 1.19165989 29.82317229 0 33 C-0.36106097 34.66088045 -0.70462173 36.32618981 -1 38 C-2.69242399 35.04497399 -3.27328801 32.90004978 -3.25 29.5 C-3.25515625 28.7471875 -3.2603125 27.994375 -3.265625 27.21875 C-3 25 -3 25 -2.00927734 23.17285156 C-0.83922838 20.65387822 -0.68720568 18.78362189 -0.5859375 16.015625 C-0.54726563 15.08105469 -0.50859375 14.14648438 -0.46875 13.18359375 C-0.4378125 12.21550781 -0.406875 11.24742187 -0.375 10.25 C-0.33632813 9.26644531 -0.29765625 8.28289063 -0.2578125 7.26953125 C-0.16371574 4.84653963 -0.07807672 2.42355204 0 0 Z " fill="#FEF9E8" transform="translate(835,783)"/>
<path d="M0 0 C0.66 0 1.32 0 2 0 C3.16655636 3.49966907 2.75875193 5.16407502 2.0625 8.75 C1.24301107 13.28193878 0.79125106 17.40752322 1 22 C0.34 22.33 -0.32 22.66 -1 23 C-1.84942326 18.56261287 -2.16329619 14.32893048 -2.1875 9.8125 C-2.20167969 8.60207031 -2.21585938 7.39164063 -2.23046875 6.14453125 C-2 3 -2 3 0 0 Z " fill="#FEF5DA" transform="translate(724,764)"/>
<path d="M0 0 C9.57 0.33 19.14 0.66 29 1 C29 1.33 29 1.66 29 2 C25.04952215 2.31040012 21.09855222 2.61336928 17.14697266 2.90942383 C15.80241488 3.01121539 14.45800989 3.11504632 13.11376953 3.22094727 C11.18303014 3.37269911 9.25167425 3.51654217 7.3203125 3.66015625 C5.57645264 3.79369507 5.57645264 3.79369507 3.79736328 3.92993164 C1 4 1 4 -1 3 C-0.67 2.01 -0.34 1.02 0 0 Z " fill="#FCE8B6" transform="translate(450,1091)"/>
<path d="M0 0 C0.91644287 0.00523682 1.83288574 0.01047363 2.77709961 0.01586914 C3.76645508 0.0190918 4.75581055 0.02231445 5.77514648 0.02563477 C6.81606445 0.03401367 7.85698242 0.04239258 8.92944336 0.05102539 C10.49662109 0.05779297 10.49662109 0.05779297 12.09545898 0.06469727 C14.68600996 0.07652627 17.27644895 0.0930085 19.86694336 0.11352539 C19.86694336 1.10352539 19.86694336 2.09352539 19.86694336 3.11352539 C16.78368978 3.17175069 13.70057831 3.20719673 10.61694336 3.23852539 C9.30790039 3.26366211 9.30790039 3.26366211 7.97241211 3.28930664 C7.12807617 3.29575195 6.28374023 3.30219727 5.41381836 3.30883789 C4.63876953 3.31931152 3.8637207 3.32978516 3.06518555 3.34057617 C0.60810797 3.08679095 -1.00617206 2.33796691 -3.13305664 1.11352539 C-2.13305664 0.11352539 -2.13305664 0.11352539 0 0 Z " fill="#FEF8EA" transform="translate(534.133056640625,612.886474609375)"/>
<path d="M0 0 C0.66 0.33 1.32 0.66 2 1 C2.625 3.5625 2.625 3.5625 3 6 C5.88167681 6.80652508 8.56031547 7.17515006 11.546875 7.31640625 C12.39121094 7.35830078 13.23554687 7.40019531 14.10546875 7.44335938 C15.41451172 7.50233398 15.41451172 7.50233398 16.75 7.5625 C17.63816406 7.60568359 18.52632812 7.64886719 19.44140625 7.69335938 C21.62745963 7.79913615 23.81362089 7.90122546 26 8 C26 8.33 26 8.66 26 9 C22.81257885 9.05865035 19.62529882 9.09381259 16.4375 9.125 C15.09461914 9.15013672 15.09461914 9.15013672 13.72460938 9.17578125 C8.39910095 9.21479596 4.03629311 8.75475782 -1 7 C-0.67 4.69 -0.34 2.38 0 0 Z " fill="#FCE2AE" transform="translate(702,853)"/>
<path d="M0 0 C0 0.66 0 1.32 0 2 C-3.22914752 2.02917228 -6.45826083 2.04685663 -9.6875 2.0625 C-11.05551758 2.07506836 -11.05551758 2.07506836 -12.45117188 2.08789062 C-13.33740234 2.09111328 -14.22363281 2.09433594 -15.13671875 2.09765625 C-15.94842529 2.10289307 -16.76013184 2.10812988 -17.59643555 2.11352539 C-20.14864673 1.9929791 -22.51026137 1.559949 -25 1 C-25 0.67 -25 0.34 -25 0 C-22.14619655 -0.19629336 -19.29232606 -0.38226546 -16.4375 -0.5625 C-15.63763672 -0.61857422 -14.83777344 -0.67464844 -14.01367188 -0.73242188 C-9.15845373 -1.02968013 -4.78889489 -0.86778632 0 0 Z " fill="#FDEBBA" transform="translate(573,1092)"/>
<path d="M0 0 C2.05701803 3.3957123 2.26969117 6.0617659 2.25 10 C2.25515625 11.03125 2.2603125 12.0625 2.265625 13.125 C2.00499165 15.94597278 1.45296344 17.60145718 0 20 C-1.23759823 16.28720531 -1.35608897 12.68693654 -1.5625 8.8125 C-1.60568359 8.06291016 -1.64886719 7.31332031 -1.69335938 6.54101562 C-1.79922685 4.69421625 -1.9000976 2.84713166 -2 1 C-1.34 0.67 -0.68 0.34 0 0 Z " fill="#FEF7E3" transform="translate(827,958)"/>
<path d="M0 0 C2 3 2 3 2 5 C2.66 5 3.32 5 4 5 C4.22331199 6.58129029 4.42804644 8.16521089 4.625 9.75 C4.74101562 10.63171875 4.85703125 11.5134375 4.9765625 12.421875 C5.00207817 15.22859878 4.44843844 16.63384866 3 19 C2.49356447 16.77228658 1.9951038 14.54275924 1.5 12.3125 C1.2215625 11.07113281 0.943125 9.82976563 0.65625 8.55078125 C0.10645874 5.57601782 -0.13795705 3.00631398 0 0 Z " fill="#FEF7E3" transform="translate(289,793)"/>
<path d="M0 0 C-0.33 0.99 -0.66 1.98 -1 3 C-4.76500389 3.77011443 -7.33441233 4.07811402 -11 3 C-13.6617678 2.61460891 -16.32818418 2.31171185 -19 2 C-19 1.67 -19 1.34 -19 1 C-12.62641289 0.03794912 -6.44070471 -0.10655578 0 0 Z " fill="#FEF6DC" transform="translate(450,1091)"/>
<path d="M0 0 C1.62463842 -0.05395478 3.24978541 -0.09277195 4.875 -0.125 C5.77992188 -0.14820313 6.68484375 -0.17140625 7.6171875 -0.1953125 C10 0 10 0 12 2 C11.34 2 10.68 2 10 2 C10 2.66 10 3.32 10 4 C7.03 3.67 4.06 3.34 1 3 C0.67 2.01 0.34 1.02 0 0 Z " fill="#FDF1C8" transform="translate(600,619)"/>
<path d="M0 0 C2.56616632 3.84924948 2.55097676 6.4349304 3 11 C2.01 11 1.02 11 0 11 C-0.66 8.03 -1.32 5.06 -2 2 C-1.34 2 -0.68 2 0 2 C0 1.34 0 0.68 0 0 Z " fill="#FEF6DB" transform="translate(832,769)"/>
<path d="M0 0 C0.33 0.66 0.66 1.32 1 2 C-2.0979597 3.54897985 -5.26216552 2.83239539 -8.625 2.5625 C-9.33140625 2.51029297 -10.0378125 2.45808594 -10.765625 2.40429688 C-12.51079987 2.27458793 -14.25545725 2.13795046 -16 2 C-16 1.67 -16 1.34 -16 1 C-10.65097076 0.40801257 -5.39115154 -0.14187241 0 0 Z " fill="#F9E0A8" transform="translate(602,1088)"/>
<path d="M0 0 C0.33 0 0.66 0 1 0 C1.19448477 2.12437212 1.38038289 4.24953191 1.5625 6.375 C1.66691406 7.55835938 1.77132812 8.74171875 1.87890625 9.9609375 C2 13 2 13 1 15 C0.34 15 -0.32 15 -1 15 C-1.33 12.36 -1.66 9.72 -2 7 C-1.34 7 -0.68 7 0 7 C0 4.69 0 2.38 0 0 Z " fill="#FBECC8" transform="translate(190,964)"/>
<path d="M0 0 C0.33 0 0.66 0 1 0 C1 5.61 1 11.22 1 17 C0.01 17 -0.98 17 -2 17 C-1.34 11.39 -0.68 5.78 0 0 Z " fill="#FDEDC4" transform="translate(287,754)"/>
<path d="M0 0 C0.99 0.66 1.98 1.32 3 2 C-2.29230769 6.06153846 -2.29230769 6.06153846 -5.875 5.75 C-6.57625 5.5025 -7.2775 5.255 -8 5 C-5.44008376 2.98863724 -2.95409701 1.37154504 0 0 Z " fill="#FBE3B0" transform="translate(762,1041)"/>
<path d="M0 0 C0 0.99 0 1.98 0 3 C-1.45922693 2.88590407 -2.91740598 2.75834456 -4.375 2.625 C-5.59316406 2.52058594 -5.59316406 2.52058594 -6.8359375 2.4140625 C-9 2 -9 2 -11 0 C-6.98195309 -0.84098656 -3.98196457 -1.05404945 0 0 Z " fill="#FDEDBE" transform="translate(739,897)"/>
<path d="M0 0 C-2 2 -2 2 -4.3828125 2.1953125 C-5.28773438 2.17210937 -6.19265625 2.14890625 -7.125 2.125 C-8.49011719 2.09792969 -8.49011719 2.09792969 -9.8828125 2.0703125 C-10.58148437 2.04710937 -11.28015625 2.02390625 -12 2 C-12 1.34 -12 0.68 -12 0 C-7.74433453 -1.16063604 -4.3164922 -0.76173392 0 0 Z " fill="#FAE5AB" transform="translate(660,1080)"/>
<path d="M0 0 C3.53600465 1.91135386 5.78972846 3.62642766 8 7 C7.67 7.66 7.34 8.32 7 9 C3.46352496 7.32482761 2.2088437 6.50719183 0.6875 2.8125 C0.460625 1.884375 0.23375 0.95625 0 0 Z " fill="#FEF2C5" transform="translate(714,653)"/>
<path d="M0 0 C0.99773437 0.02320313 1.99546875 0.04640625 3.0234375 0.0703125 C4.52777344 0.09738281 4.52777344 0.09738281 6.0625 0.125 C6.83335937 0.14820313 7.60421875 0.17140625 8.3984375 0.1953125 C8.3984375 1.1853125 8.3984375 2.1753125 8.3984375 3.1953125 C4.1084375 2.8653125 -0.1815625 2.5353125 -4.6015625 2.1953125 C-2.6015625 0.1953125 -2.6015625 0.1953125 0 0 Z " fill="#FEFBEE" transform="translate(404.6015625,616.8046875)"/>
<path d="M0 0 C9.41002278 -0.18451025 9.41002278 -0.18451025 14 1 C10.35602463 3.33214424 7.24674388 3.23164058 3 3 C2.01 2.67 1.02 2.34 0 2 C0 1.34 0 0.68 0 0 Z " fill="#FEF7DD" transform="translate(767,722)"/>
<path d="M0 0 C7.75 0.75 7.75 0.75 10 3 C5.70700357 4.26264601 3.12168689 3.62950412 -1 2 C-0.67 1.34 -0.34 0.68 0 0 Z " fill="#FEF5D0" transform="translate(325,1070)"/>
<path d="M0 0 C0.33 0 0.66 0 1 0 C1.33 4.29 1.66 8.58 2 13 C-0.83857423 10.16142577 -0.90046025 6.86673652 -1 3 C-0.67 2.01 -0.34 1.02 0 0 Z " fill="#FDEEC7" transform="translate(290,785)"/>
<path d="M0 0 C2.01822917 0.06510417 4.03645833 0.13020833 6.0546875 0.1953125 C5.7246875 1.1853125 5.3946875 2.1753125 5.0546875 3.1953125 C2.0846875 2.8653125 -0.8853125 2.5353125 -3.9453125 2.1953125 C-1.9453125 0.1953125 -1.9453125 0.1953125 0 0 Z " fill="#FEF5DA" transform="translate(734.9453125,758.8046875)"/>
<path d="M0 0 C1.99097846 2.98646769 2.94124926 5.59687262 4 9 C3.34 9.66 2.68 10.32 2 11 C-0.67927341 6.98108988 -0.15601248 4.75838077 0 0 Z " fill="#FEF0CB" transform="translate(306,848)"/>
<path d="M0 0 C3.96 0.33 7.92 0.66 12 1 C12 1.33 12 1.66 12 2 C6.06 2.495 6.06 2.495 0 3 C0 2.01 0 1.02 0 0 Z " fill="#FEF5DD" transform="translate(602,1088)"/>
<path d="M0 0 C0.66 0.33 1.32 0.66 2 1 C2 3.64 2 6.28 2 9 C1.01 9 0.02 9 -1 9 C-0.67 6.03 -0.34 3.06 0 0 Z " fill="#FEF9DC" transform="translate(188,962)"/>
<path d="M0 0 C2.375 0.6875 2.375 0.6875 5 2 C6.3125 4.625 6.3125 4.625 7 7 C6.34 7.66 5.68 8.32 5 9 C4.16094435 7.87926138 3.32892169 6.75325453 2.5 5.625 C2.0359375 4.99851562 1.571875 4.37203125 1.09375 3.7265625 C0 2 0 2 0 0 Z " fill="#FEF6DC" transform="translate(817,944)"/>
<path d="M0 0 C0.66 0.33 1.32 0.66 2 1 C2 1.66 2 2.32 2 3 C0.02 3.99 -1.96 4.98 -4 6 C-4.66 5.34 -5.32 4.68 -6 4 C-4.02 2.68 -2.04 1.36 0 0 Z " fill="#FDEDCD" transform="translate(769,1037)"/>
<path d="M0 0 C2.6015625 0.0234375 2.6015625 0.0234375 5.625 0.375 C6.62789062 0.48585938 7.63078125 0.59671875 8.6640625 0.7109375 C9.82035156 0.85402344 9.82035156 0.85402344 11 1 C11 1.33 11 1.66 11 2 C2.57142857 3.28571429 2.57142857 3.28571429 -2 2 C-1.34 1.34 -0.68 0.68 0 0 Z " fill="#FCF0CA" transform="translate(644,1081)"/>
<path d="M0 0 C4.455 0.99 4.455 0.99 9 2 C4.64467851 4.17766075 3.53374042 4.03039555 -1 3 C-0.67 2.01 -0.34 1.02 0 0 Z " fill="#FEF9D9" transform="translate(654,628)"/>
<path d="M0 0 C-4.1795645 2.78637633 -6.14668677 1.79562512 -11 1 C-11 0.67 -11 0.34 -11 0 C-7.01803543 -1.05404945 -4.01804691 -0.84098656 0 0 Z " fill="#FEFAE0" transform="translate(371,626)"/>
<path d="M0 0 C-3.18762365 2.12508244 -5.26512223 2.5020163 -9 3 C-9.33 2.34 -9.66 1.68 -10 1 C-6.1496895 -1.56687367 -4.41430237 -0.83288724 0 0 Z " fill="#FDF7E0" transform="translate(333,637)"/>
<path d="M0 0 C3.23356015 1.21258505 4.00856305 2.01284458 6 5 C2.31245243 4.50168276 0.39509338 3.89932357 -2 1 C-1.34 0.67 -0.68 0.34 0 0 Z " fill="#FDE9B6" transform="translate(275,1051)"/>
<path d="M0 0 C0 0.99 0 1.98 0 3 C-2.875 3.125 -2.875 3.125 -6 3 C-6.66 2.34 -7.32 1.68 -8 1 C-5.23735711 0.40267181 -2.83967231 0 0 0 Z " fill="#FDECBC" transform="translate(747,894)"/>
<path d="M0 0 C0 0.99 0 1.98 0 3 C-1.98 3.33 -3.96 3.66 -6 4 C-6 3.01 -6 2.02 -6 1 C-3 0 -3 0 0 0 Z " fill="#FEF8E0" transform="translate(294,893)"/>
<path d="M0 0 C1.65 0 3.3 0 5 0 C5.33 0.66 5.66 1.32 6 2 C1.545 2.495 1.545 2.495 -3 3 C-2.01 2.67 -1.02 2.34 0 2 C0 1.34 0 0.68 0 0 Z " fill="#FDF1C8" transform="translate(358,627)"/>
<path d="M0 0 C2.97 0.33 5.94 0.66 9 1 C5.23312136 2.88343932 3.97041037 3.22057835 0 3 C0 2.01 0 1.02 0 0 Z " fill="#FEF7DC" transform="translate(377,622)"/>
<path d="M0 0 C2 1 2 1 2 1 Z " fill="#FFFFFF" transform="translate(756,1053)"/>
<path d="M0 0 C2 1 2 1 2 1 Z " fill="#FFFFFF" transform="translate(234,1034)"/>
<path d="M0 0 C2 1 2 1 2 1 Z " fill="#FFFFFF" transform="translate(184,977)"/>
<path d="M0 0 C2 1 2 1 2 1 Z " fill="#FFFFFF" transform="translate(774,891)"/>
<path d="M0 0 C2 1 2 1 2 1 Z " fill="#FFFFFF" transform="translate(296,841)"/>
<path d="" fill="#FFFFFF" transform="translate(0,0)"/>
<path d="M0 0 C2 1 2 1 2 1 Z " fill="#FFFFFF" transform="translate(804,729)"/>
<path d="M0 0 C2 1 2 1 2 1 Z " fill="#FFFFFF" transform="translate(629,616)"/>
<path d="" fill="#FFFFFF" transform="translate(0,0)"/>
<path d="M0 0 C2 1 2 1 2 1 Z " fill="#FFFFFF" transform="translate(450,608)"/>
<path d="" fill="#FFFFFF" transform="translate(0,0)"/>
<path d="" fill="#FFFFFF" transform="translate(0,0)"/>
<path d="" fill="#FFFFFF" transform="translate(0,0)"/>
<path d="" fill="#FFFFFF" transform="translate(0,0)"/>
<path d="" fill="#FFFFFF" transform="translate(0,0)"/>
<path d="" fill="#FFFFFF" transform="translate(0,0)"/>
<path d="" fill="#FFFFFF" transform="translate(0,0)"/>
<path d="" fill="#FFFFFF" transform="translate(0,0)"/>
<path d="" fill="#FFFFFF" transform="translate(0,0)"/>
<path d="" fill="#FFFFFF" transform="translate(0,0)"/>
<path d="" fill="#FFFFFF" transform="translate(0,0)"/>
<path d="" fill="#FFFFFF" transform="translate(0,0)"/>
<path d="" fill="#FFFFFF" transform="translate(0,0)"/>
<path d="" fill="#FFFFFF" transform="translate(0,0)"/>
<path d="" fill="#FFFFFF" transform="translate(0,0)"/>
<path d="" fill="#FFFFFF" transform="translate(0,0)"/>
<path d="" fill="#FFFFFF" transform="translate(0,0)"/>
<path d="" fill="#FFFFFF" transform="translate(0,0)"/>
<path d="" fill="#FFFFFF" transform="translate(0,0)"/>
<path d="" fill="#FFFFFF" transform="translate(0,0)"/>
<path d="" fill="#FFFFFF" transform="translate(0,0)"/>
<path d="" fill="#FFFFFF" transform="translate(0,0)"/>
<path d="" fill="#FFFFFF" transform="translate(0,0)"/>
<path d="" fill="#FFFFFF" transform="translate(0,0)"/>
<path d="" fill="#FFFFFF" transform="translate(0,0)"/>
<path d="" fill="#FFFFFF" transform="translate(0,0)"/>
<path d="" fill="#FFFFFF" transform="translate(0,0)"/>
<path d="" fill="#FFFFFF" transform="translate(0,0)"/>
<path d="" fill="#FFFFFF" transform="translate(0,0)"/>
<path d="" fill="#FFFFFF" transform="translate(0,0)"/>
<path d="" fill="#FFFFFF" transform="translate(0,0)"/>
<path d="" fill="#FFFFFF" transform="translate(0,0)"/>
<path d="" fill="#FFFFFF" transform="translate(0,0)"/>
<path d="" fill="#FFFFFF" transform="translate(0,0)"/>
<path d="" fill="#FFFFFF" transform="translate(0,0)"/>
<path d="" fill="#FFFFFF" transform="translate(0,0)"/>
<path d="" fill="#FFFFFF" transform="translate(0,0)"/>
<path d="" fill="#FFFFFF" transform="translate(0,0)"/>
<path d="" fill="#FFFFFF" transform="translate(0,0)"/>
<path d="" fill="#FFFFFF" transform="translate(0,0)"/>
<path d="" fill="#FFFFFF" transform="translate(0,0)"/>
<path d="" fill="#FFFFFF" transform="translate(0,0)"/>
<path d="" fill="#FFFFFF" transform="translate(0,0)"/>
<path d="" fill="#FFFFFF" transform="translate(0,0)"/>
<path d="" fill="#FFFFFF" transform="translate(0,0)"/>
<path d="" fill="#FFFFFF" transform="translate(0,0)"/>
<path d="" fill="#FFFFFF" transform="translate(0,0)"/>
<path d="" fill="#FFFFFF" transform="translate(0,0)"/>
<path d="" fill="#FFFFFF" transform="translate(0,0)"/>
<path d="" fill="#FFFFFF" transform="translate(0,0)"/>
<path d="" fill="#FFFFFF" transform="translate(0,0)"/>
<path d="" fill="#FFFFFF" transform="translate(0,0)"/>
<path d="" fill="#FFFFFF" transform="translate(0,0)"/>
<path d="" fill="#FFFFFF" transform="translate(0,0)"/>
<path d="" fill="#FFFFFF" transform="translate(0,0)"/>
<path d="" fill="#FFFFFF" transform="translate(0,0)"/>
<path d="" fill="#FFFFFF" transform="translate(0,0)"/>
<path d="" fill="#FFFFFF" transform="translate(0,0)"/>
<path d="" fill="#FFFFFF" transform="translate(0,0)"/>
<path d="" fill="#FFFFFF" transform="translate(0,0)"/>
<path d="" fill="#FFFFFF" transform="translate(0,0)"/>
<path d="" fill="#FFFFFF" transform="translate(0,0)"/>
<path d="" fill="#FFFFFF" transform="translate(0,0)"/>
<path d="" fill="#FFFFFF" transform="translate(0,0)"/>
<path d="" fill="#FFFFFF" transform="translate(0,0)"/>
<path d="" fill="#FFFFFF" transform="translate(0,0)"/>
<path d="" fill="#FFFFFF" transform="translate(0,0)"/>
<path d="" fill="#FFFFFF" transform="translate(0,0)"/>
<path d="" fill="#FFFFFF" transform="translate(0,0)"/>
<path d="" fill="#FFFFFF" transform="translate(0,0)"/>
<path d="" fill="#FFFFFF" transform="translate(0,0)"/>
<path d="" fill="#FFFFFF" transform="translate(0,0)"/>
<path d="" fill="#FFFFFF" transform="translate(0,0)"/>
<path d="" fill="#FFFFFF" transform="translate(0,0)"/>
<path d="" fill="#FFFFFF" transform="translate(0,0)"/>
<path d="" fill="#FFFFFF" transform="translate(0,0)"/>
<path d="" fill="#FFFFFF" transform="translate(0,0)"/>
<path d="" fill="#FFFFFF" transform="translate(0,0)"/>
<path d="" fill="#FFFFFF" transform="translate(0,0)"/>
<path d="" fill="#FFFFFF" transform="translate(0,0)"/>
<path d="" fill="#FFFFFF" transform="translate(0,0)"/>
<path d="" fill="#FFFFFF" transform="translate(0,0)"/>
<path d="" fill="#FFFFFF" transform="translate(0,0)"/>
<path d="" fill="#FFFFFF" transform="translate(0,0)"/>
<path d="" fill="#FFFFFF" transform="translate(0,0)"/>
<path d="" fill="#FFFFFF" transform="translate(0,0)"/>
<path d="" fill="#FFFFFF" transform="translate(0,0)"/>
<path d="" fill="#FFFFFF" transform="translate(0,0)"/>
<path d="" fill="#FFFFFF" transform="translate(0,0)"/>
<path d="" fill="#FFFFFF" transform="translate(0,0)"/>
<path d="" fill="#FFFFFF" transform="translate(0,0)"/>
<path d="" fill="#FFFFFF" transform="translate(0,0)"/>
<path d="" fill="#FFFFFF" transform="translate(0,0)"/>
<path d="" fill="#FFFFFF" transform="translate(0,0)"/>
<path d="" fill="#FFFFFF" transform="translate(0,0)"/>
<path d="" fill="#FFFFFF" transform="translate(0,0)"/>
<path d="" fill="#FFFFFF" transform="translate(0,0)"/>
<path d="" fill="#FFFFFF" transform="translate(0,0)"/>
<path d="" fill="#FFFFFF" transform="translate(0,0)"/>
<path d="" fill="#FFFFFF" transform="translate(0,0)"/>
<path d="" fill="#FFFFFF" transform="translate(0,0)"/>
<path d="" fill="#FFFFFF" transform="translate(0,0)"/>
<path d="" fill="#FFFFFF" transform="translate(0,0)"/>
<path d="" fill="#FFFFFF" transform="translate(0,0)"/>
<path d="" fill="#FFFFFF" transform="translate(0,0)"/>
<path d="" fill="#FFFFFF" transform="translate(0,0)"/>
<path d="" fill="#FFFFFF" transform="translate(0,0)"/>
<path d="" fill="#FFFFFF" transform="translate(0,0)"/>
<path d="" fill="#FFFFFF" transform="translate(0,0)"/>
<path d="" fill="#FFFFFF" transform="translate(0,0)"/>
<path d="" fill="#FFFFFF" transform="translate(0,0)"/>
<path d="" fill="#FFFFFF" transform="translate(0,0)"/>
<path d="" fill="#FFFFFF" transform="translate(0,0)"/>
<path d="" fill="#FFFFFF" transform="translate(0,0)"/>
<path d="" fill="#FFFFFF" transform="translate(0,0)"/>
<path d="" fill="#FFFFFF" transform="translate(0,0)"/>
<path d="" fill="#FFFFFF" transform="translate(0,0)"/>
<path d="" fill="#FFFFFF" transform="translate(0,0)"/>
<path d="" fill="#FFFFFF" transform="translate(0,0)"/>
<path d="" fill="#FFFFFF" transform="translate(0,0)"/>
<path d="" fill="#FFFFFF" transform="translate(0,0)"/>
<path d="" fill="#FFFFFF" transform="translate(0,0)"/>
<path d="" fill="#FFFFFF" transform="translate(0,0)"/>
<path d="" fill="#FFFFFF" transform="translate(0,0)"/>
<path d="" fill="#FFFFFF" transform="translate(0,0)"/>
<path d="" fill="#FFFFFF" transform="translate(0,0)"/>
<path d="" fill="#FFFFFF" transform="translate(0,0)"/>
<path d="" fill="#FFFFFF" transform="translate(0,0)"/>
<path d="" fill="#FFFFFF" transform="translate(0,0)"/>
<path d="" fill="#FFFFFF" transform="translate(0,0)"/>
<path d="" fill="#FFFFFF" transform="translate(0,0)"/>
<path d="" fill="#FFFFFF" transform="translate(0,0)"/>
<path d="" fill="#FFFFFF" transform="translate(0,0)"/>
<path d="" fill="#FFFFFF" transform="translate(0,0)"/>
<path d="" fill="#FFFFFF" transform="translate(0,0)"/>
<path d="" fill="#FFFFFF" transform="translate(0,0)"/>
<path d="" fill="#FFFFFF" transform="translate(0,0)"/>
<path d="" fill="#FFFFFF" transform="translate(0,0)"/>
<path d="" fill="#FFFFFF" transform="translate(0,0)"/>
<path d="" fill="#FFFFFF" transform="translate(0,0)"/>
<path d="" fill="#FFFFFF" transform="translate(0,0)"/>
<path d="" fill="#FFFFFF" transform="translate(0,0)"/>
<path d="" fill="#FFFFFF" transform="translate(0,0)"/>
<path d="" fill="#FFFFFF" transform="translate(0,0)"/>
<path d="" fill="#FFFFFF" transform="translate(0,0)"/>
<path d="" fill="#FFFFFF" transform="translate(0,0)"/>
<path d="" fill="#FFFFFF" transform="translate(0,0)"/>
<path d="" fill="#FFFFFF" transform="translate(0,0)"/>
<path d="" fill="#FFFFFF" transform="translate(0,0)"/>
<path d="" fill="#FFFFFF" transform="translate(0,0)"/>
<path d="" fill="#FFFFFF" transform="translate(0,0)"/>
<path d="" fill="#FFFFFF" transform="translate(0,0)"/>
<path d="" fill="#FFFFFF" transform="translate(0,0)"/>
<path d="" fill="#FFFFFF" transform="translate(0,0)"/>
<path d="" fill="#FFFFFF" transform="translate(0,0)"/>
<path d="" fill="#FFFFFF" transform="translate(0,0)"/>
<path d="" fill="#FFFFFF" transform="translate(0,0)"/>
<path d="" fill="#FFFFFF" transform="translate(0,0)"/>
<path d="" fill="#FFFFFF" transform="translate(0,0)"/>
<path d="" fill="#FFFFFF" transform="translate(0,0)"/>
<path d="" fill="#FFFFFF" transform="translate(0,0)"/>
<path d="" fill="#FFFFFF" transform="translate(0,0)"/>
<path d="" fill="#FFFFFF" transform="translate(0,0)"/>
<path d="" fill="#FFFFFF" transform="translate(0,0)"/>
<path d="" fill="#FFFFFF" transform="translate(0,0)"/>
<path d="" fill="#FFFFFF" transform="translate(0,0)"/>
<path d="" fill="#FFFFFF" transform="translate(0,0)"/>
<path d="" fill="#FFFFFF" transform="translate(0,0)"/>
<path d="" fill="#FFFFFF" transform="translate(0,0)"/>
<path d="" fill="#FFFFFF" transform="translate(0,0)"/>
<path d="" fill="#FFFFFF" transform="translate(0,0)"/>
<path d="" fill="#FFFFFF" transform="translate(0,0)"/>
<path d="" fill="#FFFFFF" transform="translate(0,0)"/>
<path d="" fill="#FFFFFF" transform="translate(0,0)"/>
<path d="" fill="#FFFFFF" transform="translate(0,0)"/>
<path d="" fill="#FFFFFF" transform="translate(0,0)"/>
<path d="" fill="#FFFFFF" transform="translate(0,0)"/>
</svg>
